<?xml version="1.0" encoding="UTF-8"?>
<svg id="Layer_2" data-name="Layer 2" xmlns="http://www.w3.org/2000/svg" viewBox="0 0 130.93 41.96">
  <defs>
    <style>
      .cls-1 {
        fill: #122d54;
      }
    </style>
  </defs>
  <g id="Layer_1-2" data-name="Layer 1">
    <g>
      <path class="cls-1" d="M39.06,41.01c-2.22-.17-7.16,1-8.05-1.11-.28-.61-.44-1.28-.55-1.94-.44-2-.72-4.05-.94-6.11-.44-4.38-.72-8.71-.83-13.1-.11-4-.28-8.05.44-11.94.33-1.66.83-3.44,2-4.66.72-.78,1.72-1.33,2.72-1.61,1.55-.5,3.22-.61,4.88-.5,1.28.06,2.61.33,3.72,1,.78.5,1.39,1.33,1.67,2.22.39,1.17.44,2.5.33,3.72-.11,1.83-.61,3.66-.94,5.5,1.5-.94,3.28-1.55,5.05-1.72,3.39-.28,6.72.94,9.05,3.33,1.89,2,3,4.88,3.44,7.66.56,3.44.17,7.22-1.05,10.49-1.11,2.94-3.39,5.61-6.05,7.22-2,1.17-4.38,1.72-6.66,1.89-2.72.17-5.44-.11-8.21-.33ZM47.05,30.85c.94-.11,1.94-.5,2.78-1.11,2.33-1.67,3.5-5,2.78-7.88-.28-1.22-1-2.39-1.94-3.22-2.33-1.94-5.55-.44-7.49,1.89-.55.67-.89,1.55-1.11,2.44-.33,1.05-.5,2.22-.44,3.39,0,.89.17,1.83.55,2.61.33.72.94,1.39,1.67,1.66,1,.44,2.16.39,3.22.22Z"/>
      <path class="cls-1" d="M65.41,41.01c-2.22-.17-7.16,1-8.05-1.11-.28-.61-.44-1.28-.55-1.94-.44-2-.72-4.05-.94-6.11-.44-4.38-.72-8.71-.83-13.1-.11-4-.28-8.05.44-11.94.33-1.66.83-3.44,2-4.66.72-.78,1.72-1.33,2.72-1.61,1.55-.5,3.22-.61,4.88-.5,1.28.06,2.61.33,3.72,1,.78.5,1.39,1.33,1.67,2.22.39,1.17.44,2.5.33,3.72-.11,1.83-.61,3.66-.94,5.5,1.5-.94,3.28-1.55,5.05-1.72,3.39-.28,6.72.94,9.05,3.33,1.89,2,3,4.88,3.44,7.66.56,3.44.17,7.22-1.05,10.49-1.11,2.94-3.39,5.61-6.05,7.22-2,1.17-4.38,1.72-6.66,1.89-2.72.17-5.44-.11-8.21-.33ZM73.4,30.85c.94-.11,1.94-.5,2.78-1.11,2.33-1.67,3.5-5,2.78-7.88-.28-1.22-1-2.39-1.94-3.22-2.33-1.94-5.55-.44-7.49,1.89-.55.67-.89,1.55-1.11,2.44-.33,1.05-.5,2.22-.44,3.39,0,.89.17,1.83.55,2.61.33.72.94,1.39,1.67,1.66,1,.44,2.16.39,3.22.22Z"/>
      <path class="cls-1" d="M92.42,41.23c-1.22-.33-2.44-.94-3.16-2-.83-1.16-1-2.66-1.11-4.05-.22-2.39.17-13.93.5-16.32.11-1.17.55-2.39,1.39-3.16.94-.78,2.22-1.05,3.39-1.16,1.44-.17,2.89-.17,4.27,0,1.17.17,2.44.5,3.39,1.28,1.16.94,1.5,2.83,1.5,4.33.06,1.72,0,3.44-.06,5.16-.17,3.89.11,7.83-.5,11.71-.17,1.11-.61,2.33-1.44,3.05-.78.72-1.89,1.05-2.94,1.28-1.66.28-3.5.28-5.22-.11ZM91.75,10.31c-.46-.27-1.43-.85-2.17-2-.9-1.42-1.47-3.75-.33-5.63.19-.32,1.02-1.68,2.49-1.91,1.73-.28,3.73,1.08,4.63,3.47.83-2.32,3.11-3.47,4.86-2.92,1.87.59,2.49,2.94,2.38,4.48-.14,1.93-1.49,3.17-1.99,3.63-2.65,2.43-7.01,2.56-9.88.89Z"/>
      <path class="cls-1" d="M28.18,35.79c-.17-2-1.03-3.89-1.2-5.94-.17-2.74.06-5.54-.29-8.29-.17-1.83-.69-3.77-1.66-5.32-1.26-2-3.32-3.6-5.49-4.29-3.49-1.14-7.43-.8-11.03.06-1.71.46-3.54,1.03-4.86,2.23-3.09,2.69-1.71,7.83,2.34,7.6,1.54-.12,3.03-.46,4.52-.63.86-.11,1.77-.17,2.63-.06.69.11,1.49.63,1.26,1.31-.23.63-1.71.97-2.4,1.09-2.57.51-5.26.57-7.66,1.66-1.6.69-3.09,2.06-3.66,3.66-.91,2.63-.97,5.77.17,8.29.86,1.77,2.63,3.2,4.51,3.77,3.32,1.03,7.43.11,10.29-1.89.06.46.23.92.51,1.26,1.37,1.89,5.72,1.89,8,1.31,1.26-.34,2.57-1.03,3.32-2.11.69-1.03.8-2.46.69-3.71ZM15.48,33.63c-1.24,2.31-4.21,3.44-6.59,2.98-.38-.07-1.19-.24-1.97-.86-.96-.76-1.91-2.23-1.58-3.8.06-.26.3-1.4,1.26-1.92,1.13-.61,2.83-.15,4.02,1.28.01-1.8,1.31-3.14,2.65-3.18,1.43-.04,2.42,1.43,2.71,2.51.37,1.37-.27,2.54-.5,2.98Z"/>
      <path class="cls-1" d="M119.06,29.77c2.54-.51,5.2-.56,7.57-1.64,1.58-.68,3.05-2.03,3.62-3.62.9-2.6.96-5.71-.17-8.19-.85-1.75-2.6-3.16-4.46-3.73-3.7-1.12-8.5-.05-12.05,1.22-2.5.89-4.87,2.3-6.59,4.32-.88,1.03-1.58,2.23-2.02,3.52-.28.83-.46,1.69-.5,2.57-.13,2.52-.15,5,.09,7.53.17,1.81.68,3.73,1.64,5.26,1.24,1.98,3.28,3.56,5.42,4.24,3.45,1.13,7.35.79,10.9-.06,1.69-.45,3.5-1.02,4.8-2.2,3.05-2.66,1.69-7.74-2.32-7.51-1.53.11-2.99.45-4.46.62-.85.11-1.75.17-2.6.06-.68-.11-1.47-.62-1.24-1.3.23-.62,1.69-.96,2.37-1.07ZM116.49,24.09c-.84-.76-1.62-2.16-1.21-3.58.07-.24.36-1.26,1.27-1.68,1.07-.49,2.61.04,3.61,1.42.12-1.65,1.4-2.8,2.63-2.75,1.31.05,2.13,1.46,2.33,2.47.25,1.28-.4,2.31-.64,2.7-1.28,2.04-4.08,2.9-6.23,2.33-.35-.09-1.08-.29-1.75-.91Z"/>
    </g>
  </g>
</svg>