<?xml version="1.0" encoding="UTF-8"?>
<svg id="Layer_2" data-name="Layer 2" xmlns="http://www.w3.org/2000/svg" xmlns:xlink="http://www.w3.org/1999/xlink" viewBox="0 0 1081.64 737.48">
  <defs>
    <style>
      .cls-1, .cls-2 {
        fill: none;
      }

      .cls-3 {
        fill: #0f1b1a;
      }

      .cls-4 {
        fill: #c11f5e;
      }

      .cls-5 {
        fill: #bcda82;
      }

      .cls-6 {
        fill: #f3ecf2;
      }

      .cls-7 {
        fill: #24412f;
      }

      .cls-2 {
        stroke: #24412f;
        stroke-miterlimit: 10;
        stroke-width: 1.99px;
      }

      .cls-8 {
        fill: #ee2c75;
      }

      .cls-9 {
        clip-path: url(#clippath);
      }

      .cls-10 {
        fill: #f9c9db;
      }
    </style>
    <clipPath id="clippath">
      <rect class="cls-1" width="1081.64" height="483.76"/>
    </clipPath>
  </defs>
  <g id="Layer_1-2" data-name="Layer 1">
    <g>
      <polygon class="cls-4" points="685.33 531.27 643.93 531.27 643.93 490 560.41 490 560.41 531.24 521.01 531.24 521.01 490 437.49 490 437.49 531.27 396.31 531.27 396.31 613.95 437.49 613.95 437.49 655.11 478.68 655.11 478.68 696.21 519.87 696.21 519.87 737.48 560.98 737.48 560.98 696.21 601.72 696.21 601.72 655.11 643.93 655.11 643.93 613.95 685.33 613.95 685.33 531.27"/>
      <g>
        <path class="cls-6" d="M519.85,591.28h1.43v6.44h-1.43v-6.44ZM521.28,589.85h1.43v1.43h-1.43v-1.43ZM521.28,597.72h1.43v1.43h-1.43v-1.43ZM522.71,588.42h5.01v1.43h-5.01v-1.43ZM522.71,599.16h5.01v1.43h-5.01v-1.43ZM527.72,589.85h1.43v1.43h-1.43v-1.43ZM527.72,597.72h1.43v1.43h-1.43v-1.43ZM529.15,591.28h1.43v1.43h-1.43v-1.43ZM529.15,596.29h1.43v1.43h-1.43v-1.43Z"/>
        <path class="cls-6" d="M532.77,591.89h2.15v2.15h-2.15v-2.15ZM532.77,598.44h2.15v2.15h-2.15v-2.15Z"/>
        <path class="cls-6" d="M542.47,589.85v2.86h-1.43v-2.86h1.43ZM542.47,597.72v1.43h7.16v1.43h-8.59v-2.86h1.43ZM542.47,588.42h5.73v1.43h-5.73v-1.43ZM542.47,596.29h1.43v1.43h-1.43v-1.43ZM543.9,594.86h2.86v1.43h-2.86v-1.43ZM548.19,593.43v1.43h-1.43v-1.43h1.43ZM549.62,589.85v3.58h-1.43v-3.58h1.43Z"/>
        <path class="cls-6" d="M551.86,591.28h1.43v6.44h-1.43v-6.44ZM554.72,591.28h-1.43v-1.43h1.43v1.43ZM554.72,597.72v1.43h-1.43v-1.43h1.43ZM559.02,588.42v1.43h-4.29v-1.43h4.29ZM554.72,599.16h4.29v1.43h-4.29v-1.43ZM557.59,593.43v2.15h-1.43v-2.15h1.43ZM560.45,589.85v1.43h-1.43v-1.43h1.43ZM560.45,599.16h-1.43v-1.43h1.43v1.43ZM561.88,591.28v6.44h-1.43v-6.44h1.43Z"/>
      </g>
      <g>
        <path class="cls-6" d="M513.19,609.89h2.86v1.43h-1.43v10.74h-1.43v-12.17ZM517.49,611.32v4.29h-1.43v-4.29h1.43ZM518.92,615.62v3.58h-1.43v-3.58h1.43ZM520.35,619.2v2.15h-1.43v-2.15h1.43ZM521.78,615.62v3.58h-1.43v-3.58h1.43ZM523.21,611.32v4.29h-1.43v-4.29h1.43ZM524.64,611.32h-1.43v-1.43h2.86v12.17h-1.43v-10.74Z"/>
        <path class="cls-6" d="M528.83,613.36h2.15v2.15h-2.15v-2.15ZM528.83,619.91h2.15v2.15h-2.15v-2.15Z"/>
        <path class="cls-6" d="M538.96,611.32v-1.43h2.86v10.74h2.86v1.43h-7.87v-1.43h3.58v-9.31h-1.43ZM538.96,612.76h-2.15v-1.43h2.15v1.43Z"/>
        <path class="cls-6" d="M546.48,612.76h1.43v6.44h-1.43v-6.44ZM549.34,612.76h-1.43v-1.43h1.43v1.43ZM549.34,619.2v1.43h-1.43v-1.43h1.43ZM553.63,609.89v1.43h-4.29v-1.43h4.29ZM549.34,620.63h4.29v1.43h-4.29v-1.43ZM552.2,614.9v2.15h-1.43v-2.15h1.43ZM555.07,611.32v1.43h-1.43v-1.43h1.43ZM555.07,620.63h-1.43v-1.43h1.43v1.43ZM556.5,612.76v6.44h-1.43v-6.44h1.43Z"/>
        <path class="cls-6" d="M558.82,612.76h1.43v6.44h-1.43v-6.44ZM561.69,612.76h-1.43v-1.43h1.43v1.43ZM561.69,619.2v1.43h-1.43v-1.43h1.43ZM565.98,609.89v1.43h-4.29v-1.43h4.29ZM561.69,620.63h4.29v1.43h-4.29v-1.43ZM564.55,614.9v2.15h-1.43v-2.15h1.43ZM567.41,611.32v1.43h-1.43v-1.43h1.43ZM567.41,620.63h-1.43v-1.43h1.43v1.43ZM568.84,612.76v6.44h-1.43v-6.44h1.43Z"/>
      </g>
      <g>
        <path class="cls-6" d="M520.34,631.37h1.43v2.15h-1.43v-2.15ZM521.77,633.51h1.43v2.15h-1.43v-2.15ZM524.63,635.66v2.15h-1.43v-2.15h1.43ZM524.63,637.81h1.43v5.73h-1.43v-5.73ZM527.5,635.66v2.15h-1.43v-2.15h1.43ZM527.5,633.51h1.43v2.15h-1.43v-2.15ZM528.93,631.37h1.43v2.15h-1.43v-2.15Z"/>
        <path class="cls-6" d="M531.56,634.84h2.15v2.15h-2.15v-2.15ZM531.56,641.39h2.15v2.15h-2.15v-2.15Z"/>
        <path class="cls-6" d="M546.63,640.67h-7.16v-2.86h1.43v1.43h5.73v-6.44h-1.43v-1.43h2.86v7.87h1.43v1.43h-1.43v2.86h-1.43v-2.86ZM542.33,636.38v1.43h-1.43v-1.43h1.43ZM543.76,636.38h-1.43v-2.15h1.43v2.15ZM545.2,634.23h-1.43v-1.43h1.43v1.43Z"/>
        <path class="cls-6" d="M558.17,640.67h-7.16v-2.86h1.43v1.43h5.73v-6.44h-1.43v-1.43h2.86v7.87h1.43v1.43h-1.43v2.86h-1.43v-2.86ZM553.87,636.38v1.43h-1.43v-1.43h1.43ZM555.31,636.38h-1.43v-2.15h1.43v2.15ZM556.74,634.23h-1.43v-1.43h1.43v1.43Z"/>
      </g>
      <g>
        <path class="cls-6" d="M526.78,652.84h1.43v5.01h3.58v1.43h-3.58v5.73h-1.43v-12.17ZM533.22,656.42v1.43h-1.43v-1.43h1.43ZM533.22,659.28v2.15h-1.43v-2.15h1.43ZM534.66,656.42h-1.43v-2.15h1.43v2.15ZM534.66,661.43v2.15h-1.43v-2.15h1.43ZM536.09,652.84v1.43h-1.43v-1.43h1.43ZM534.66,663.58h1.43v1.43h-1.43v-1.43Z"/>
        <path class="cls-6" d="M538.48,656.31h2.15v2.15h-2.15v-2.15ZM538.48,662.86h2.15v2.15h-2.15v-2.15Z"/>
        <path class="cls-6" d="M548.18,654.27v2.86h-1.43v-2.86h1.43ZM548.18,662.15v1.43h7.16v1.43h-8.59v-2.86h1.43ZM548.18,652.84h5.73v1.43h-5.73v-1.43ZM548.18,660.71h1.43v1.43h-1.43v-1.43ZM549.61,659.28h2.86v1.43h-2.86v-1.43ZM553.91,657.85v1.43h-1.43v-1.43h1.43ZM555.34,654.27v3.58h-1.43v-3.58h1.43Z"/>
      </g>
      <g>
        <path class="cls-6" d="M503.61,556.6h7.87v1.43h-6.44v9.31h6.44v1.43h-7.87v-12.17ZM512.91,558.03v1.43h-1.43v-1.43h1.43ZM512.91,567.34h-1.43v-1.43h1.43v1.43ZM514.35,559.47v6.44h-1.43v-6.44h1.43Z"/>
        <path class="cls-6" d="M518.1,563.04h-1.43v-1.43h1.43v1.43ZM516.67,564.48h1.43v2.86h-1.43v-2.86ZM518.1,560.18h4.29v1.43h-4.29v-1.43ZM522.4,567.34h-1.43v-1.43h1.43v-1.43h-4.29v-1.43h4.29v-1.43h1.43v7.16h-1.43v-1.43ZM518.1,567.34h2.86v1.43h-2.86v-1.43Z"/>
        <path class="cls-6" d="M526.39,560.18h1.43v1.43h1.43v1.43h-1.43v5.73h-1.43v-8.59ZM529.25,560.18h2.15v1.43h-2.15v-1.43Z"/>
        <path class="cls-6" d="M533.1,556.6h1.43v7.16h2.86v1.43h-2.86v3.58h-1.43v-12.17ZM538.82,563.76h-1.43v-2.15h1.43v2.15ZM538.82,565.19v2.15h-1.43v-2.15h1.43ZM540.26,560.18v1.43h-1.43v-1.43h1.43ZM540.26,567.34v1.43h-1.43v-1.43h1.43Z"/>
        <path class="cls-6" d="M546.68,556.6h7.16v1.43h-5.73v5.01h5.73v1.43h-5.73v4.29h-1.43v-12.17ZM555.27,558.03v5.01h-1.43v-5.01h1.43Z"/>
        <path class="cls-6" d="M557.58,557.32h1.43v1.43h-1.43v-1.43ZM557.58,560.18h1.43v8.59h-1.43v-8.59Z"/>
        <path class="cls-6" d="M561.69,560.18h1.43v1.43h1.43v1.43h-1.43v5.73h-1.43v-8.59ZM564.56,560.18h2.86v1.43h-2.86v-1.43ZM568.85,561.61v7.16h-1.43v-7.16h1.43Z"/>
        <path class="cls-6" d="M571.41,556.6h1.43v7.16h2.86v1.43h-2.86v3.58h-1.43v-12.17ZM577.14,563.76h-1.43v-2.15h1.43v2.15ZM577.14,565.19v2.15h-1.43v-2.15h1.43ZM578.57,560.18v1.43h-1.43v-1.43h1.43ZM578.57,567.34v1.43h-1.43v-1.43h1.43Z"/>
      </g>
    </g>
    <g>
      <polygon class="cls-8" points="164.11 0 164.11 41.25 124.7 41.25 124.7 0 41.19 0 41.19 41.27 0 41.27 0 123.95 41.19 123.95 41.19 165.11 82.37 165.11 82.37 206.21 123.56 206.21 123.56 247.48 164.67 247.48 164.67 206.21 205.42 206.21 205.42 165.11 247.62 165.11 247.62 123.95 289.03 123.95 289.03 41.27 247.62 41.27 247.62 0 164.11 0"/>
      <polygon class="cls-5" points="560.41 0 560.41 41.25 521.01 41.25 521.01 0 437.49 0 437.49 41.27 396.31 41.27 396.31 123.95 437.49 123.95 437.49 165.11 478.68 165.11 478.68 206.21 519.87 206.21 519.87 247.48 560.98 247.48 560.98 206.21 601.72 206.21 601.72 165.11 643.93 165.11 643.93 123.95 685.33 123.95 685.33 41.27 643.93 41.27 643.93 0 560.41 0"/>
      <polygon class="cls-6" points="479.9 276.56 438.5 276.56 438.5 235.28 354.98 235.28 354.98 276.53 315.58 276.53 315.58 235.28 232.07 235.28 232.07 276.56 190.88 276.56 190.88 359.23 232.07 359.23 232.07 400.39 273.25 400.39 273.25 441.49 314.44 441.49 314.44 482.76 355.55 482.76 355.55 441.49 396.29 441.49 396.29 400.39 438.5 400.39 438.5 359.23 479.9 359.23 479.9 276.56"/>
      <g class="cls-9">
        <polygon class="cls-2" points="479.9 276.56 438.5 276.56 438.5 235.28 354.98 235.28 354.98 276.53 315.58 276.53 315.58 235.28 232.07 235.28 232.07 276.56 190.88 276.56 190.88 359.23 232.07 359.23 232.07 400.39 273.25 400.39 273.25 441.49 314.44 441.49 314.44 482.76 355.55 482.76 355.55 441.49 396.29 441.49 396.29 400.39 438.5 400.39 438.5 359.23 479.9 359.23 479.9 276.56"/>
      </g>
      <polygon class="cls-7" points="883.53 276.56 842.13 276.56 842.13 235.28 758.61 235.28 758.61 276.53 719.21 276.53 719.21 235.28 635.69 235.28 635.69 276.56 594.5 276.56 594.5 359.23 635.69 359.23 635.69 400.39 676.88 400.39 676.88 441.49 718.07 441.49 718.07 482.76 759.18 482.76 759.18 441.49 799.92 441.49 799.92 400.39 842.13 400.39 842.13 359.23 883.53 359.23 883.53 276.56"/>
      <polygon class="cls-10" points="956.72 0 956.72 41.25 917.32 41.25 917.32 0 833.8 0 833.8 41.27 792.61 41.27 792.61 123.95 833.8 123.95 833.8 165.11 874.99 165.11 874.99 206.21 916.17 206.21 916.17 247.48 957.29 247.48 957.29 206.21 998.03 206.21 998.03 165.11 1040.24 165.11 1040.24 123.95 1081.64 123.95 1081.64 41.27 1040.24 41.27 1040.24 0 956.72 0"/>
      <g>
        <path class="cls-6" d="M52.95,59.3h7.16v1.43h-5.73v5.01h5.73v1.43h-5.73v4.29h-1.43v-12.17ZM61.54,60.74v5.01h-1.43v-5.01h1.43Z"/>
        <path class="cls-6" d="M63.84,62.88h1.43v1.43h1.43v1.43h-1.43v5.73h-1.43v-8.59ZM66.71,62.88h2.15v1.43h-2.15v-1.43Z"/>
        <path class="cls-6" d="M70.55,60.02h1.43v1.43h-1.43v-1.43ZM70.55,62.88h1.43v8.59h-1.43v-8.59Z"/>
        <path class="cls-6" d="M74.67,62.88h1.43v1.43h1.43v1.43h-1.43v5.73h-1.43v-8.59ZM77.53,62.88h2.86v1.43h-2.86v-1.43ZM83.26,64.32v1.43h-1.43v5.73h-1.43v-7.16h2.86ZM83.26,62.88h2.86v1.43h-2.86v-1.43ZM87.55,64.32v7.16h-1.43v-7.16h1.43Z"/>
        <path class="cls-6" d="M91.28,65.75h-1.43v-1.43h1.43v1.43ZM89.84,67.18h1.43v2.86h-1.43v-2.86ZM91.28,62.88h4.29v1.43h-4.29v-1.43ZM95.57,70.04h-1.43v-1.43h1.43v-1.43h-4.29v-1.43h4.29v-1.43h1.43v7.16h-1.43v-1.43ZM91.28,70.04h2.86v1.43h-2.86v-1.43Z"/>
        <path class="cls-6" d="M99.56,62.88h1.43v1.43h1.43v1.43h-1.43v5.73h-1.43v-8.59ZM102.42,62.88h2.15v1.43h-2.15v-1.43Z"/>
        <path class="cls-6" d="M107.22,62.88v4.29h-1.43v-4.29h1.43ZM105.79,73.62h2.86v1.43h-2.86v-1.43ZM108.65,67.18v3.58h-1.43v-3.58h1.43ZM110.08,70.76v2.86h-1.43v-2.86h1.43ZM111.52,67.18v3.58h-1.43v-3.58h1.43ZM112.95,62.88v4.29h-1.43v-4.29h1.43Z"/>
        <path class="cls-6" d="M118.91,62.17h1.43v6.44h-1.43v-6.44ZM120.34,60.74h1.43v1.43h-1.43v-1.43ZM120.34,68.61h1.43v1.43h-1.43v-1.43ZM121.77,59.3h5.01v1.43h-5.01v-1.43ZM121.77,70.04h5.01v1.43h-5.01v-1.43ZM126.78,60.74h1.43v1.43h-1.43v-1.43ZM126.78,68.61h1.43v1.43h-1.43v-1.43ZM128.21,62.17h1.43v1.43h-1.43v-1.43ZM128.21,67.18h1.43v1.43h-1.43v-1.43Z"/>
        <path class="cls-6" d="M133.15,64.32v5.73h-1.43v-5.73h1.43ZM133.15,62.88h5.01v1.43h-5.01v-1.43ZM133.15,70.04h5.01v1.43h-5.01v-1.43ZM139.59,64.32v5.73h-1.43v-5.73h1.43Z"/>
        <path class="cls-6" d="M142.03,59.3h1.43v12.17h-1.43v-12.17Z"/>
        <path class="cls-6" d="M147.32,64.32v5.73h-1.43v-5.73h1.43ZM147.32,62.88h5.01v1.43h-5.01v-1.43ZM147.32,70.04h5.01v1.43h-5.01v-1.43ZM153.76,64.32v5.73h-1.43v-5.73h1.43Z"/>
        <path class="cls-6" d="M156.2,62.88h1.43v1.43h1.43v1.43h-1.43v5.73h-1.43v-8.59ZM159.06,62.88h2.15v1.43h-2.15v-1.43Z"/>
        <path class="cls-6" d="M162.76,62.78h2.15v2.15h-2.15v-2.15ZM162.76,69.33h2.15v2.15h-2.15v-2.15Z"/>
        <path class="cls-6" d="M171.52,59.3h1.43v5.01h6.44v-5.01h1.43v12.17h-1.43v-5.73h-6.44v5.73h-1.43v-12.17Z"/>
        <path class="cls-6" d="M184.9,64.32v5.73h-1.43v-5.73h1.43ZM184.9,62.88h5.01v1.43h-5.01v-1.43ZM184.9,70.04h5.01v1.43h-5.01v-1.43ZM191.34,64.32v5.73h-1.43v-5.73h1.43Z"/>
        <path class="cls-6" d="M194.31,62.88v-2.15h1.43v2.15h2.86v1.43h-2.86v5.73h-1.43v-5.73h-1.43v-1.43h1.43ZM198.61,70.04v1.43h-2.86v-1.43h2.86Z"/>
        <path class="cls-6" d="M204.73,59.3h7.16v1.43h-5.73v5.01h5.73v1.43h-5.73v4.29h-1.43v-12.17ZM213.32,60.74v5.01h-1.43v-5.01h1.43Z"/>
        <path class="cls-6" d="M215.63,60.02h1.43v1.43h-1.43v-1.43ZM215.63,62.88h1.43v8.59h-1.43v-8.59Z"/>
        <path class="cls-6" d="M219.74,62.88h1.43v1.43h1.43v1.43h-1.43v5.73h-1.43v-8.59ZM222.6,62.88h2.86v1.43h-2.86v-1.43ZM226.9,64.32v7.16h-1.43v-7.16h1.43Z"/>
        <path class="cls-6" d="M229.46,59.3h1.43v7.16h2.86v1.43h-2.86v3.58h-1.43v-12.17ZM235.18,66.46h-1.43v-2.15h1.43v2.15ZM235.18,67.89v2.15h-1.43v-2.15h1.43ZM236.62,62.88v1.43h-1.43v-1.43h1.43ZM236.62,70.04v1.43h-1.43v-1.43h1.43Z"/>
      </g>
      <g>
        <path class="cls-6" d="M128.91,98.46h1.43v6.44h-1.43v-6.44ZM130.34,97.03h1.43v1.43h-1.43v-1.43ZM130.34,104.9h1.43v1.43h-1.43v-1.43ZM131.77,95.6h5.01v1.43h-5.01v-1.43ZM131.77,106.33h5.01v1.43h-5.01v-1.43ZM136.78,97.03h1.43v1.43h-1.43v-1.43ZM136.78,104.9h1.43v1.43h-1.43v-1.43ZM138.21,98.46h1.43v1.43h-1.43v-1.43ZM138.21,103.47h1.43v1.43h-1.43v-1.43Z"/>
        <path class="cls-6" d="M141.83,99.07h2.15v2.15h-2.15v-2.15ZM141.83,105.62h2.15v2.15h-2.15v-2.15Z"/>
        <path class="cls-6" d="M150.19,98.46h1.43v6.44h-1.43v-6.44ZM153.05,98.46h-1.43v-1.43h1.43v1.43ZM153.05,104.9v1.43h-1.43v-1.43h1.43ZM157.34,95.6v1.43h-4.29v-1.43h4.29ZM153.05,106.33h4.29v1.43h-4.29v-1.43ZM155.91,100.61v2.15h-1.43v-2.15h1.43ZM158.78,97.03v1.43h-1.43v-1.43h1.43ZM158.78,106.33h-1.43v-1.43h1.43v1.43ZM160.21,98.46v6.44h-1.43v-6.44h1.43Z"/>
      </g>
      <g>
        <path class="cls-6" d="M122.95,117.07h2.86v1.43h-1.43v10.74h-1.43v-12.17ZM127.25,118.5v4.29h-1.43v-4.29h1.43ZM128.68,122.8v3.58h-1.43v-3.58h1.43ZM130.11,126.37v2.15h-1.43v-2.15h1.43ZM131.54,122.8v3.58h-1.43v-3.58h1.43ZM132.97,118.5v4.29h-1.43v-4.29h1.43ZM134.4,118.5h-1.43v-1.43h2.86v12.17h-1.43v-10.74Z"/>
        <path class="cls-6" d="M138.59,120.54h2.15v2.15h-2.15v-2.15ZM138.59,127.09h2.15v2.15h-2.15v-2.15Z"/>
        <path class="cls-6" d="M148.47,122.08h-1.43v-3.58h1.43v3.58ZM148.47,127.81h-1.43v-4.29h1.43v4.29ZM148.47,117.07h5.73v1.43h-5.73v-1.43ZM148.47,122.08h5.73v1.43h-5.73v-1.43ZM154.2,127.81v1.43h-5.73v-1.43h5.73ZM155.63,118.5v3.58h-1.43v-3.58h1.43ZM155.63,123.51v4.29h-1.43v-4.29h1.43Z"/>
        <path class="cls-6" d="M159.38,118.5v2.86h-1.43v-2.86h1.43ZM159.38,126.37v1.43h7.16v1.43h-8.59v-2.86h1.43ZM159.38,117.07h5.73v1.43h-5.73v-1.43ZM159.38,124.94h1.43v1.43h-1.43v-1.43ZM160.82,123.51h2.86v1.43h-2.86v-1.43ZM165.11,122.08v1.43h-1.43v-1.43h1.43ZM166.54,118.5v3.58h-1.43v-3.58h1.43Z"/>
      </g>
      <g>
        <path class="cls-6" d="M125.47,138.54h1.43v2.15h-1.43v-2.15ZM126.91,140.69h1.43v2.15h-1.43v-2.15ZM129.77,142.84v2.15h-1.43v-2.15h1.43ZM129.77,144.98h1.43v5.73h-1.43v-5.73ZM132.63,142.84v2.15h-1.43v-2.15h1.43ZM132.63,140.69h1.43v2.15h-1.43v-2.15ZM134.06,138.54h1.43v2.15h-1.43v-2.15Z"/>
        <path class="cls-6" d="M136.71,142.01h2.15v2.15h-2.15v-2.15ZM136.71,148.56h2.15v2.15h-2.15v-2.15Z"/>
        <path class="cls-6" d="M146.59,139.97v4.29h1.43v1.43h-2.86v-5.73h1.43ZM145.16,147.13h1.43v2.15h-1.43v-2.15ZM146.59,138.54h6.44v1.43h-6.44v-1.43ZM152.32,150.71h-5.73v-1.43h5.73v1.43ZM148.02,142.84h4.29v1.43h-4.29v-1.43ZM153.75,144.27v5.01h-1.43v-5.01h1.43Z"/>
        <path class="cls-6" d="M157.76,139.97v-1.43h2.86v10.74h2.86v1.43h-7.87v-1.43h3.58v-9.31h-1.43ZM157.76,141.41h-2.15v-1.43h2.15v1.43Z"/>
      </g>
      <g>
        <path class="cls-6" d="M130.79,160.02h1.43v5.01h3.58v1.43h-3.58v5.73h-1.43v-12.17ZM137.23,163.6v1.43h-1.43v-1.43h1.43ZM137.23,166.46v2.15h-1.43v-2.15h1.43ZM138.66,163.6h-1.43v-2.15h1.43v2.15ZM138.66,168.61v2.15h-1.43v-2.15h1.43ZM140.09,160.02v1.43h-1.43v-1.43h1.43ZM138.66,170.75h1.43v1.43h-1.43v-1.43Z"/>
        <path class="cls-6" d="M142.49,163.49h2.15v2.15h-2.15v-2.15ZM142.49,170.04h2.15v2.15h-2.15v-2.15Z"/>
        <path class="cls-6" d="M158.9,160.02v3.58h-1.43v-2.15h-7.16v-1.43h8.59ZM153.17,172.18h-1.43v-2.15h1.43v2.15ZM154.61,170.04h-1.43v-2.15h1.43v2.15ZM156.04,167.89h-1.43v-2.15h1.43v2.15ZM157.47,165.74h-1.43v-2.15h1.43v2.15Z"/>
      </g>
      <g>
        <path class="cls-6" d="M718.04,336.57h1.43v6.44h-1.43v-6.44ZM719.47,335.13h1.43v1.43h-1.43v-1.43ZM719.47,343.01h1.43v1.43h-1.43v-1.43ZM720.91,333.7h5.01v1.43h-5.01v-1.43ZM720.91,344.44h5.01v1.43h-5.01v-1.43ZM725.92,335.13h1.43v1.43h-1.43v-1.43ZM725.92,343.01h1.43v1.43h-1.43v-1.43ZM727.35,336.57h1.43v1.43h-1.43v-1.43ZM727.35,341.58h1.43v1.43h-1.43v-1.43Z"/>
        <path class="cls-6" d="M730.96,337.17h2.15v2.15h-2.15v-2.15ZM730.96,343.72h2.15v2.15h-2.15v-2.15Z"/>
        <path class="cls-6" d="M746.03,343.01h-7.16v-2.86h1.43v1.43h5.73v-6.44h-1.43v-1.43h2.86v7.87h1.43v1.43h-1.43v2.86h-1.43v-2.86ZM741.74,338.71v1.43h-1.43v-1.43h1.43ZM743.17,338.71h-1.43v-2.15h1.43v2.15ZM744.6,336.57h-1.43v-1.43h1.43v1.43Z"/>
        <path class="cls-6" d="M757.57,343.01h-7.16v-2.86h1.43v1.43h5.73v-6.44h-1.43v-1.43h2.86v7.87h1.43v1.43h-1.43v2.86h-1.43v-2.86ZM753.28,338.71v1.43h-1.43v-1.43h1.43ZM754.71,338.71h-1.43v-2.15h1.43v2.15ZM756.14,336.57h-1.43v-1.43h1.43v1.43Z"/>
      </g>
      <g>
        <path class="cls-6" d="M722.21,355.18h2.86v1.43h-1.43v10.74h-1.43v-12.17ZM726.51,356.61v4.29h-1.43v-4.29h1.43ZM727.94,360.9v3.58h-1.43v-3.58h1.43ZM729.37,364.48v2.15h-1.43v-2.15h1.43ZM730.8,360.9v3.58h-1.43v-3.58h1.43ZM732.23,356.61v4.29h-1.43v-4.29h1.43ZM733.66,356.61h-1.43v-1.43h2.86v12.17h-1.43v-10.74Z"/>
        <path class="cls-6" d="M737.85,358.65h2.15v2.15h-2.15v-2.15ZM737.85,365.2h2.15v2.15h-2.15v-2.15Z"/>
        <path class="cls-6" d="M746.21,358.04h1.43v6.44h-1.43v-6.44ZM749.07,358.04h-1.43v-1.43h1.43v1.43ZM749.07,364.48v1.43h-1.43v-1.43h1.43ZM753.37,355.18v1.43h-4.29v-1.43h4.29ZM749.07,365.91h4.29v1.43h-4.29v-1.43ZM751.94,360.19v2.15h-1.43v-2.15h1.43ZM754.8,356.61v1.43h-1.43v-1.43h1.43ZM754.8,365.91h-1.43v-1.43h1.43v1.43ZM756.23,358.04v6.44h-1.43v-6.44h1.43Z"/>
      </g>
      <g>
        <path class="cls-6" d="M719.65,376.65h1.43v2.15h-1.43v-2.15ZM721.08,378.8h1.43v2.15h-1.43v-2.15ZM723.95,380.95v2.15h-1.43v-2.15h1.43ZM723.95,383.09h1.43v5.73h-1.43v-5.73ZM726.81,380.95v2.15h-1.43v-2.15h1.43ZM726.81,378.8h1.43v2.15h-1.43v-2.15ZM728.24,376.65h1.43v2.15h-1.43v-2.15Z"/>
        <path class="cls-6" d="M730.87,380.12h2.15v2.15h-2.15v-2.15ZM730.87,386.67h2.15v2.15h-2.15v-2.15Z"/>
        <path class="cls-6" d="M740.57,378.08v2.86h-1.43v-2.86h1.43ZM740.57,385.96v1.43h7.16v1.43h-8.59v-2.86h1.43ZM740.57,376.65h5.73v1.43h-5.73v-1.43ZM740.57,384.52h1.43v1.43h-1.43v-1.43ZM742,383.09h2.86v1.43h-2.86v-1.43ZM746.3,381.66v1.43h-1.43v-1.43h1.43ZM747.73,378.08v3.58h-1.43v-3.58h1.43Z"/>
        <path class="cls-6" d="M758.02,376.65v3.58h-1.43v-2.15h-7.16v-1.43h8.59ZM752.29,388.82h-1.43v-2.15h1.43v2.15ZM753.72,386.67h-1.43v-2.15h1.43v2.15ZM755.16,384.52h-1.43v-2.15h1.43v2.15ZM756.59,382.38h-1.43v-2.15h1.43v2.15Z"/>
      </g>
      <g>
        <path class="cls-6" d="M719.83,398.12h1.43v5.01h3.58v1.43h-3.58v5.73h-1.43v-12.17ZM726.27,401.7v1.43h-1.43v-1.43h1.43ZM726.27,404.57v2.15h-1.43v-2.15h1.43ZM727.71,401.7h-1.43v-2.15h1.43v2.15ZM727.71,406.71v2.15h-1.43v-2.15h1.43ZM729.14,398.12v1.43h-1.43v-1.43h1.43ZM727.71,408.86h1.43v1.43h-1.43v-1.43Z"/>
        <path class="cls-6" d="M731.53,401.6h2.15v2.15h-2.15v-2.15ZM731.53,408.15h2.15v2.15h-2.15v-2.15Z"/>
        <path class="cls-6" d="M747.94,398.12v3.58h-1.43v-2.15h-7.16v-1.43h8.59ZM742.22,410.29h-1.43v-2.15h1.43v2.15ZM743.65,408.15h-1.43v-2.15h1.43v2.15ZM745.08,406h-1.43v-2.15h1.43v2.15ZM746.51,403.85h-1.43v-2.15h1.43v2.15Z"/>
        <path class="cls-6" d="M751.52,399.56v4.29h1.43v1.43h-2.86v-5.73h1.43ZM750.09,406.71h1.43v2.15h-1.43v-2.15ZM751.52,398.12h6.44v1.43h-6.44v-1.43ZM757.25,410.29h-5.73v-1.43h5.73v1.43ZM752.95,402.42h4.29v1.43h-4.29v-1.43ZM758.68,403.85v5.01h-1.43v-5.01h1.43Z"/>
      </g>
      <g>
        <path class="cls-7" d="M521.32,98.46h1.43v6.44h-1.43v-6.44ZM522.76,97.03h1.43v1.43h-1.43v-1.43ZM522.76,104.9h1.43v1.43h-1.43v-1.43ZM524.19,95.6h5.01v1.43h-5.01v-1.43ZM524.19,106.33h5.01v1.43h-5.01v-1.43ZM529.2,97.03h1.43v1.43h-1.43v-1.43ZM529.2,104.9h1.43v1.43h-1.43v-1.43ZM530.63,98.46h1.43v1.43h-1.43v-1.43ZM530.63,103.47h1.43v1.43h-1.43v-1.43Z"/>
        <path class="cls-7" d="M534.24,99.07h2.15v2.15h-2.15v-2.15ZM534.24,105.62h2.15v2.15h-2.15v-2.15Z"/>
        <path class="cls-7" d="M544.37,97.03v-1.43h2.86v10.74h2.86v1.43h-7.87v-1.43h3.58v-9.31h-1.43ZM544.37,98.46h-2.15v-1.43h2.15v1.43Z"/>
        <path class="cls-7" d="M551.8,95.6h8.59v2.86h-1.43v-1.43h-7.16v-1.43ZM551.8,104.18h1.43v2.15h-1.43v-2.15ZM558.96,107.76h-5.73v-1.43h5.73v1.43ZM556.09,102.75h-1.43v-1.43h1.43v1.43ZM557.53,101.32h-1.43v-1.43h1.43v1.43ZM558.96,99.89h-1.43v-1.43h1.43v1.43ZM558.96,101.32v1.43h-1.43v-1.43h1.43ZM560.39,102.75v3.58h-1.43v-3.58h1.43Z"/>
      </g>
      <g>
        <path class="cls-7" d="M524.01,117.07h2.86v1.43h-1.43v10.74h-1.43v-12.17ZM528.3,118.5v4.29h-1.43v-4.29h1.43ZM529.74,122.8v3.58h-1.43v-3.58h1.43ZM531.17,126.37v2.15h-1.43v-2.15h1.43ZM532.6,122.8v3.58h-1.43v-3.58h1.43ZM534.03,118.5v4.29h-1.43v-4.29h1.43ZM535.46,118.5h-1.43v-1.43h2.86v12.17h-1.43v-10.74Z"/>
        <path class="cls-7" d="M539.65,120.54h2.15v2.15h-2.15v-2.15ZM539.65,127.09h2.15v2.15h-2.15v-2.15Z"/>
        <path class="cls-7" d="M548.01,119.93h1.43v6.44h-1.43v-6.44ZM550.87,119.93h-1.43v-1.43h1.43v1.43ZM550.87,126.37v1.43h-1.43v-1.43h1.43ZM555.16,117.07v1.43h-4.29v-1.43h4.29ZM550.87,127.81h4.29v1.43h-4.29v-1.43ZM553.73,122.08v2.15h-1.43v-2.15h1.43ZM556.6,118.5v1.43h-1.43v-1.43h1.43ZM556.6,127.81h-1.43v-1.43h1.43v1.43ZM558.03,119.93v6.44h-1.43v-6.44h1.43Z"/>
      </g>
      <g>
        <path class="cls-7" d="M521.47,138.54h1.43v2.15h-1.43v-2.15ZM522.9,140.69h1.43v2.15h-1.43v-2.15ZM525.76,142.84v2.15h-1.43v-2.15h1.43ZM525.76,144.98h1.43v5.73h-1.43v-5.73ZM528.63,142.84v2.15h-1.43v-2.15h1.43ZM528.63,140.69h1.43v2.15h-1.43v-2.15ZM530.06,138.54h1.43v2.15h-1.43v-2.15Z"/>
        <path class="cls-7" d="M532.71,142.01h2.15v2.15h-2.15v-2.15ZM532.71,148.56h2.15v2.15h-2.15v-2.15Z"/>
        <path class="cls-7" d="M547.77,147.85h-7.16v-2.86h1.43v1.43h5.73v-6.44h-1.43v-1.43h2.86v7.87h1.43v1.43h-1.43v2.86h-1.43v-2.86ZM543.48,143.55v1.43h-1.43v-1.43h1.43ZM544.91,143.55h-1.43v-2.15h1.43v2.15ZM546.34,141.41h-1.43v-1.43h1.43v1.43Z"/>
        <path class="cls-7" d="M554.38,139.97v-1.43h2.86v10.74h2.86v1.43h-7.87v-1.43h3.58v-9.31h-1.43ZM554.38,141.41h-2.15v-1.43h2.15v1.43Z"/>
      </g>
      <g>
        <path class="cls-7" d="M522.06,160.02h1.43v5.01h3.58v1.43h-3.58v5.73h-1.43v-12.17ZM528.5,163.6v1.43h-1.43v-1.43h1.43ZM528.5,166.46v2.15h-1.43v-2.15h1.43ZM529.93,163.6h-1.43v-2.15h1.43v2.15ZM529.93,168.61v2.15h-1.43v-2.15h1.43ZM531.36,160.02v1.43h-1.43v-1.43h1.43ZM529.93,170.75h1.43v1.43h-1.43v-1.43Z"/>
        <path class="cls-7" d="M533.76,163.49h2.15v2.15h-2.15v-2.15ZM533.76,170.04h2.15v2.15h-2.15v-2.15Z"/>
        <path class="cls-7" d="M543.89,161.45v-1.43h2.86v10.74h2.86v1.43h-7.87v-1.43h3.58v-9.31h-1.43ZM543.89,162.88h-2.15v-1.43h2.15v1.43Z"/>
        <path class="cls-7" d="M552.93,161.45v4.29h1.43v1.43h-2.86v-5.73h1.43ZM551.5,168.61h1.43v2.15h-1.43v-2.15ZM552.93,160.02h6.44v1.43h-6.44v-1.43ZM558.65,172.18h-5.73v-1.43h5.73v1.43ZM554.36,164.31h4.29v1.43h-4.29v-1.43ZM560.08,165.74v5.01h-1.43v-5.01h1.43Z"/>
      </g>
      <g>
        <path class="cls-7" d="M921.54,98.46h1.43v6.44h-1.43v-6.44ZM922.97,97.03h1.43v1.43h-1.43v-1.43ZM922.97,104.9h1.43v1.43h-1.43v-1.43ZM924.4,95.6h5.01v1.43h-5.01v-1.43ZM924.4,106.33h5.01v1.43h-5.01v-1.43ZM929.41,97.03h1.43v1.43h-1.43v-1.43ZM929.41,104.9h1.43v1.43h-1.43v-1.43ZM930.85,98.46h1.43v1.43h-1.43v-1.43ZM930.85,103.47h1.43v1.43h-1.43v-1.43Z"/>
        <path class="cls-7" d="M934.46,99.07h2.15v2.15h-2.15v-2.15ZM934.46,105.62h2.15v2.15h-2.15v-2.15Z"/>
        <path class="cls-7" d="M942.82,98.46h1.43v6.44h-1.43v-6.44ZM945.68,98.46h-1.43v-1.43h1.43v1.43ZM945.68,104.9v1.43h-1.43v-1.43h1.43ZM949.98,95.6v1.43h-4.29v-1.43h4.29ZM945.68,106.33h4.29v1.43h-4.29v-1.43ZM948.54,100.61v2.15h-1.43v-2.15h1.43ZM951.41,97.03v1.43h-1.43v-1.43h1.43ZM951.41,106.33h-1.43v-1.43h1.43v1.43ZM952.84,98.46v6.44h-1.43v-6.44h1.43Z"/>
      </g>
      <g>
        <path class="cls-7" d="M916.32,117.07h2.86v1.43h-1.43v10.74h-1.43v-12.17ZM920.61,118.5v4.29h-1.43v-4.29h1.43ZM922.04,122.8v3.58h-1.43v-3.58h1.43ZM923.47,126.37v2.15h-1.43v-2.15h1.43ZM924.91,122.8v3.58h-1.43v-3.58h1.43ZM926.34,118.5v4.29h-1.43v-4.29h1.43ZM927.77,118.5h-1.43v-1.43h2.86v12.17h-1.43v-10.74Z"/>
        <path class="cls-7" d="M931.96,120.54h2.15v2.15h-2.15v-2.15ZM931.96,127.09h2.15v2.15h-2.15v-2.15Z"/>
        <path class="cls-7" d="M942.08,118.5v-1.43h2.86v10.74h2.86v1.43h-7.87v-1.43h3.58v-9.31h-1.43ZM942.08,119.93h-2.15v-1.43h2.15v1.43Z"/>
        <path class="cls-7" d="M951.12,123.51h-1.43v-5.01h1.43v5.01ZM949.69,126.37h1.43v1.43h-1.43v-1.43ZM956.85,117.07v1.43h-5.73v-1.43h5.73ZM955.42,124.94h-4.29v-1.43h4.29v1.43ZM956.85,129.24h-5.73v-1.43h5.73v1.43ZM958.28,118.5v9.31h-1.43v-4.29h-1.43v-1.43h1.43v-3.58h1.43Z"/>
      </g>
      <g>
        <path class="cls-7" d="M918.19,138.54h1.43v2.15h-1.43v-2.15ZM919.63,140.69h1.43v2.15h-1.43v-2.15ZM922.49,142.84v2.15h-1.43v-2.15h1.43ZM922.49,144.98h1.43v5.73h-1.43v-5.73ZM925.35,142.84v2.15h-1.43v-2.15h1.43ZM925.35,140.69h1.43v2.15h-1.43v-2.15ZM926.78,138.54h1.43v2.15h-1.43v-2.15Z"/>
        <path class="cls-7" d="M929.41,142.01h2.15v2.15h-2.15v-2.15ZM929.41,148.56h2.15v2.15h-2.15v-2.15Z"/>
        <path class="cls-7" d="M939.54,139.97v-1.43h2.86v10.74h2.86v1.43h-7.87v-1.43h3.58v-9.31h-1.43ZM939.54,141.41h-2.15v-1.43h2.15v1.43Z"/>
        <path class="cls-7" d="M948.4,139.97v2.86h-1.43v-2.86h1.43ZM948.4,147.85v1.43h7.16v1.43h-8.59v-2.86h1.43ZM948.4,138.54h5.73v1.43h-5.73v-1.43ZM948.4,146.42h1.43v1.43h-1.43v-1.43ZM949.83,144.98h2.86v1.43h-2.86v-1.43ZM954.13,143.55v1.43h-1.43v-1.43h1.43ZM955.56,139.97v3.58h-1.43v-3.58h1.43Z"/>
      </g>
      <g>
        <path class="cls-7" d="M923.12,160.02h1.43v5.01h3.58v1.43h-3.58v5.73h-1.43v-12.17ZM929.56,163.6v1.43h-1.43v-1.43h1.43ZM929.56,166.46v2.15h-1.43v-2.15h1.43ZM930.99,163.6h-1.43v-2.15h1.43v2.15ZM930.99,168.61v2.15h-1.43v-2.15h1.43ZM932.42,160.02v1.43h-1.43v-1.43h1.43ZM930.99,170.75h1.43v1.43h-1.43v-1.43Z"/>
        <path class="cls-7" d="M934.82,163.49h2.15v2.15h-2.15v-2.15ZM934.82,170.04h2.15v2.15h-2.15v-2.15Z"/>
        <path class="cls-7" d="M944.52,161.45v2.86h-1.43v-2.86h1.43ZM944.52,169.32v1.43h7.16v1.43h-8.59v-2.86h1.43ZM944.52,160.02h5.73v1.43h-5.73v-1.43ZM944.52,167.89h1.43v1.43h-1.43v-1.43ZM945.95,166.46h2.86v1.43h-2.86v-1.43ZM950.24,165.03v1.43h-1.43v-1.43h1.43ZM951.68,161.45v3.58h-1.43v-3.58h1.43Z"/>
      </g>
      <g>
        <path class="cls-7" d="M319.81,336.57h1.43v6.44h-1.43v-6.44ZM321.24,335.13h1.43v1.43h-1.43v-1.43ZM321.24,343.01h1.43v1.43h-1.43v-1.43ZM322.67,333.7h5.01v1.43h-5.01v-1.43ZM322.67,344.44h5.01v1.43h-5.01v-1.43ZM327.68,335.13h1.43v1.43h-1.43v-1.43ZM327.68,343.01h1.43v1.43h-1.43v-1.43ZM329.12,336.57h1.43v1.43h-1.43v-1.43ZM329.12,341.58h1.43v1.43h-1.43v-1.43Z"/>
        <path class="cls-7" d="M332.73,337.17h2.15v2.15h-2.15v-2.15ZM332.73,343.72h2.15v2.15h-2.15v-2.15Z"/>
        <path class="cls-7" d="M341.09,336.57h1.43v6.44h-1.43v-6.44ZM343.95,336.57h-1.43v-1.43h1.43v1.43ZM343.95,343.01v1.43h-1.43v-1.43h1.43ZM348.25,333.7v1.43h-4.29v-1.43h4.29ZM343.95,344.44h4.29v1.43h-4.29v-1.43ZM346.81,338.71v2.15h-1.43v-2.15h1.43ZM349.68,335.13v1.43h-1.43v-1.43h1.43ZM349.68,344.44h-1.43v-1.43h1.43v1.43ZM351.11,336.57v6.44h-1.43v-6.44h1.43Z"/>
      </g>
      <g>
        <path class="cls-7" d="M319.36,355.18h2.86v1.43h-1.43v10.74h-1.43v-12.17ZM323.66,356.61v4.29h-1.43v-4.29h1.43ZM325.09,360.9v3.58h-1.43v-3.58h1.43ZM326.52,364.48v2.15h-1.43v-2.15h1.43ZM327.95,360.9v3.58h-1.43v-3.58h1.43ZM329.38,356.61v4.29h-1.43v-4.29h1.43ZM330.82,356.61h-1.43v-1.43h2.86v12.17h-1.43v-10.74Z"/>
        <path class="cls-7" d="M335,358.65h2.15v2.15h-2.15v-2.15ZM335,365.2h2.15v2.15h-2.15v-2.15Z"/>
        <path class="cls-7" d="M343.27,355.18h8.59v2.86h-1.43v-1.43h-7.16v-1.43ZM343.27,363.77h1.43v2.15h-1.43v-2.15ZM350.43,367.35h-5.73v-1.43h5.73v1.43ZM347.57,362.33h-1.43v-1.43h1.43v1.43ZM349,360.9h-1.43v-1.43h1.43v1.43ZM350.43,359.47h-1.43v-1.43h1.43v1.43ZM350.43,360.9v1.43h-1.43v-1.43h1.43ZM351.86,362.33v3.58h-1.43v-3.58h1.43Z"/>
      </g>
      <g>
        <path class="cls-7" d="M320.31,376.65h1.43v2.15h-1.43v-2.15ZM321.74,378.8h1.43v2.15h-1.43v-2.15ZM324.61,380.95v2.15h-1.43v-2.15h1.43ZM324.61,383.09h1.43v5.73h-1.43v-5.73ZM327.47,380.95v2.15h-1.43v-2.15h1.43ZM327.47,378.8h1.43v2.15h-1.43v-2.15ZM328.9,376.65h1.43v2.15h-1.43v-2.15Z"/>
        <path class="cls-7" d="M331.55,380.12h2.15v2.15h-2.15v-2.15ZM331.55,386.67h2.15v2.15h-2.15v-2.15Z"/>
        <path class="cls-7" d="M339.91,379.51h1.43v6.44h-1.43v-6.44ZM342.77,379.51h-1.43v-1.43h1.43v1.43ZM342.77,385.96v1.43h-1.43v-1.43h1.43ZM347.07,376.65v1.43h-4.29v-1.43h4.29ZM342.77,387.39h4.29v1.43h-4.29v-1.43ZM345.63,381.66v2.15h-1.43v-2.15h1.43ZM348.5,378.08v1.43h-1.43v-1.43h1.43ZM348.5,387.39h-1.43v-1.43h1.43v1.43ZM349.93,379.51v6.44h-1.43v-6.44h1.43Z"/>
      </g>
      <g>
        <path class="cls-7" d="M321.3,398.12h1.43v5.01h3.58v1.43h-3.58v5.73h-1.43v-12.17ZM327.74,401.7v1.43h-1.43v-1.43h1.43ZM327.74,404.57v2.15h-1.43v-2.15h1.43ZM329.17,401.7h-1.43v-2.15h1.43v2.15ZM329.17,406.71v2.15h-1.43v-2.15h1.43ZM330.6,398.12v1.43h-1.43v-1.43h1.43ZM329.17,408.86h1.43v1.43h-1.43v-1.43Z"/>
        <path class="cls-7" d="M333,401.6h2.15v2.15h-2.15v-2.15ZM333,408.15h2.15v2.15h-2.15v-2.15Z"/>
        <path class="cls-7" d="M342.88,399.56v4.29h1.43v1.43h-2.86v-5.73h1.43ZM341.45,406.71h1.43v2.15h-1.43v-2.15ZM342.88,398.12h6.44v1.43h-6.44v-1.43ZM348.6,410.29h-5.73v-1.43h5.73v1.43ZM344.31,402.42h4.29v1.43h-4.29v-1.43ZM350.04,403.85v5.01h-1.43v-5.01h1.43Z"/>
      </g>
      <g>
        <path class="cls-6" d="M694.13,301.89h7.87v1.43h-6.44v9.31h6.44v1.43h-7.87v-12.17ZM703.44,303.32v1.43h-1.43v-1.43h1.43ZM703.44,312.62h-1.43v-1.43h1.43v1.43ZM704.87,304.75v6.44h-1.43v-6.44h1.43Z"/>
        <path class="cls-6" d="M708.63,308.33h-1.43v-1.43h1.43v1.43ZM707.2,309.76h1.43v2.86h-1.43v-2.86ZM708.63,305.47h4.29v1.43h-4.29v-1.43ZM712.92,312.62h-1.43v-1.43h1.43v-1.43h-4.29v-1.43h4.29v-1.43h1.43v7.16h-1.43v-1.43ZM708.63,312.62h2.86v1.43h-2.86v-1.43Z"/>
        <path class="cls-6" d="M716.91,305.47h1.43v1.43h1.43v1.43h-1.43v5.73h-1.43v-8.59ZM719.78,305.47h2.15v1.43h-2.15v-1.43Z"/>
        <path class="cls-6" d="M723.62,301.89h1.43v7.16h2.86v1.43h-2.86v3.58h-1.43v-12.17ZM729.35,309.04h-1.43v-2.15h1.43v2.15ZM729.35,310.48v2.15h-1.43v-2.15h1.43ZM730.78,305.47v1.43h-1.43v-1.43h1.43ZM730.78,312.62v1.43h-1.43v-1.43h1.43Z"/>
        <path class="cls-6" d="M736.9,304.75h1.43v6.44h-1.43v-6.44ZM738.33,303.32h1.43v1.43h-1.43v-1.43ZM739.77,311.19v1.43h-1.43v-1.43h1.43ZM739.77,301.89h5.01v1.43h-5.01v-1.43ZM744.78,312.62v1.43h-5.01v-1.43h5.01ZM744.78,311.19h1.43v-1.43h-2.86v-1.43h4.29v5.73h-1.43v-1.43h-1.43v-1.43ZM746.21,303.32v1.43h-1.43v-1.43h1.43ZM747.64,304.75v1.43h-1.43v-1.43h1.43Z"/>
        <path class="cls-6" d="M750.41,305.47h1.43v1.43h1.43v1.43h-1.43v5.73h-1.43v-8.59ZM753.28,305.47h2.15v1.43h-2.15v-1.43Z"/>
        <path class="cls-6" d="M758.22,306.9v2.15h5.01v-2.15h1.43v3.58h-6.44v2.15h-1.43v-5.73h1.43ZM758.22,305.47h5.01v1.43h-5.01v-1.43ZM763.23,312.62v1.43h-5.01v-1.43h5.01ZM763.23,311.19h1.43v1.43h-1.43v-1.43Z"/>
        <path class="cls-6" d="M768.27,306.9v2.15h5.01v-2.15h1.43v3.58h-6.44v2.15h-1.43v-5.73h1.43ZM768.27,305.47h5.01v1.43h-5.01v-1.43ZM773.28,312.62v1.43h-5.01v-1.43h5.01ZM773.28,311.19h1.43v1.43h-1.43v-1.43Z"/>
        <path class="cls-6" d="M777.15,305.47h1.43v1.43h1.43v1.43h-1.43v5.73h-1.43v-8.59ZM780.01,305.47h2.86v1.43h-2.86v-1.43ZM784.31,306.9v7.16h-1.43v-7.16h1.43Z"/>
      </g>
      <g>
        <path class="cls-3" d="M452.7,63.6h-1.43v-2.86h1.43v2.86ZM451.27,67.89h1.43v2.15h-1.43v-2.15ZM452.7,59.3h5.73v1.43h-5.73v-1.43ZM452.7,63.6h2.86v1.43h-2.86v-1.43ZM458.42,71.47h-5.73v-1.43h5.73v1.43ZM455.56,65.03h2.86v1.43h-2.86v-1.43ZM458.42,60.74h1.43v2.15h-1.43v-2.15ZM459.86,66.46v3.58h-1.43v-3.58h1.43Z"/>
        <path class="cls-3" d="M463.81,64.32v2.15h5.01v-2.15h1.43v3.58h-6.44v2.15h-1.43v-5.73h1.43ZM463.81,62.88h5.01v1.43h-5.01v-1.43ZM468.82,70.04v1.43h-5.01v-1.43h5.01ZM468.82,68.61h1.43v1.43h-1.43v-1.43Z"/>
        <path class="cls-3" d="M473.87,64.32v5.73h-1.43v-5.73h1.43ZM478.16,62.88v1.43h-4.29v-1.43h4.29ZM478.16,71.47h-4.29v-1.43h4.29v1.43ZM479.59,64.32v1.43h-1.43v-1.43h1.43ZM479.59,68.61v1.43h-1.43v-1.43h1.43Z"/>
        <path class="cls-3" d="M482.83,64.32v5.73h-1.43v-5.73h1.43ZM482.83,62.88h5.01v1.43h-5.01v-1.43ZM482.83,70.04h5.01v1.43h-5.01v-1.43ZM489.27,64.32v5.73h-1.43v-5.73h1.43Z"/>
        <path class="cls-3" d="M491.71,62.88h1.43v1.43h1.43v1.43h-1.43v5.73h-1.43v-8.59ZM494.57,62.88h2.86v1.43h-2.86v-1.43ZM498.87,64.32v7.16h-1.43v-7.16h1.43Z"/>
        <path class="cls-3" d="M501.17,64.32h1.43v5.73h-1.43v-5.73ZM502.61,62.88h3.58v1.43h-3.58v-1.43ZM502.61,70.04h3.58v1.43h-3.58v-1.43ZM509.05,59.3v12.17h-1.43v-1.43h-1.43v-1.43h1.43v-2.86h-1.43v-1.43h1.43v-5.01h1.43Z"/>
        <path class="cls-3" d="M512.89,65.75h-1.43v-1.43h1.43v1.43ZM511.46,67.18h1.43v2.86h-1.43v-2.86ZM512.89,62.88h4.29v1.43h-4.29v-1.43ZM517.19,70.04h-1.43v-1.43h1.43v-1.43h-4.29v-1.43h4.29v-1.43h1.43v7.16h-1.43v-1.43ZM512.89,70.04h2.86v1.43h-2.86v-1.43Z"/>
        <path class="cls-3" d="M521.18,62.88h1.43v1.43h1.43v1.43h-1.43v5.73h-1.43v-8.59ZM524.04,62.88h2.15v1.43h-2.15v-1.43Z"/>
        <path class="cls-3" d="M528.84,62.88v4.29h-1.43v-4.29h1.43ZM527.41,73.62h2.86v1.43h-2.86v-1.43ZM530.27,67.18v3.58h-1.43v-3.58h1.43ZM531.7,70.76v2.86h-1.43v-2.86h1.43ZM533.13,67.18v3.58h-1.43v-3.58h1.43ZM534.57,62.88v4.29h-1.43v-4.29h1.43Z"/>
        <path class="cls-3" d="M540.52,62.17h1.43v6.44h-1.43v-6.44ZM541.96,60.74h1.43v1.43h-1.43v-1.43ZM541.96,68.61h1.43v1.43h-1.43v-1.43ZM543.39,59.3h5.01v1.43h-5.01v-1.43ZM543.39,70.04h5.01v1.43h-5.01v-1.43ZM548.4,60.74h1.43v1.43h-1.43v-1.43ZM548.4,68.61h1.43v1.43h-1.43v-1.43ZM549.83,62.17h1.43v1.43h-1.43v-1.43ZM549.83,67.18h1.43v1.43h-1.43v-1.43Z"/>
        <path class="cls-3" d="M554.77,64.32v5.73h-1.43v-5.73h1.43ZM554.77,62.88h5.01v1.43h-5.01v-1.43ZM554.77,70.04h5.01v1.43h-5.01v-1.43ZM561.21,64.32v5.73h-1.43v-5.73h1.43Z"/>
        <path class="cls-3" d="M563.64,59.3h1.43v12.17h-1.43v-12.17Z"/>
        <path class="cls-3" d="M568.94,64.32v5.73h-1.43v-5.73h1.43ZM568.94,62.88h5.01v1.43h-5.01v-1.43ZM568.94,70.04h5.01v1.43h-5.01v-1.43ZM575.38,64.32v5.73h-1.43v-5.73h1.43Z"/>
        <path class="cls-3" d="M577.82,62.88h1.43v1.43h1.43v1.43h-1.43v5.73h-1.43v-8.59ZM580.68,62.88h2.15v1.43h-2.15v-1.43Z"/>
        <path class="cls-3" d="M584.38,62.78h2.15v2.15h-2.15v-2.15ZM584.38,69.33h2.15v2.15h-2.15v-2.15Z"/>
        <path class="cls-3" d="M593.13,59.3h1.43v10.74h7.16v1.43h-8.59v-12.17Z"/>
        <path class="cls-3" d="M603.6,60.02h1.43v1.43h-1.43v-1.43ZM603.6,62.88h1.43v8.59h-1.43v-8.59Z"/>
        <path class="cls-3" d="M607.72,62.88h1.43v1.43h1.43v1.43h-1.43v5.73h-1.43v-8.59ZM610.58,62.88h2.86v1.43h-2.86v-1.43ZM616.31,64.32v1.43h-1.43v5.73h-1.43v-7.16h2.86ZM616.31,62.88h2.86v1.43h-2.86v-1.43ZM620.6,64.32v7.16h-1.43v-7.16h1.43Z"/>
        <path class="cls-3" d="M624.34,64.32v2.15h5.01v-2.15h1.43v3.58h-6.44v2.15h-1.43v-5.73h1.43ZM624.34,62.88h5.01v1.43h-5.01v-1.43ZM629.35,70.04v1.43h-5.01v-1.43h5.01ZM629.35,68.61h1.43v1.43h-1.43v-1.43Z"/>
      </g>
      <g>
        <path class="cls-3" d="M310.77,301.89h1.43v2.86h-1.43v-2.86ZM312.21,304.75h1.43v3.58h-1.43v-3.58ZM313.64,308.33h1.43v3.58h-1.43v-3.58ZM315.07,311.91h1.43v2.15h-1.43v-2.15ZM316.5,308.33h1.43v3.58h-1.43v-3.58ZM317.93,304.75h1.43v3.58h-1.43v-3.58ZM319.36,301.89h1.43v2.86h-1.43v-2.86ZM322.23,304.75v3.58h-1.43v-3.58h1.43ZM323.66,308.33v3.58h-1.43v-3.58h1.43ZM325.09,311.91v2.15h-1.43v-2.15h1.43ZM325.09,308.33h1.43v3.58h-1.43v-3.58ZM327.95,304.75v3.58h-1.43v-3.58h1.43ZM327.95,301.89h1.43v2.86h-1.43v-2.86Z"/>
        <path class="cls-3" d="M331.26,301.89h1.43v5.01h1.43v1.43h-1.43v5.73h-1.43v-12.17ZM336.99,305.47v1.43h-2.86v-1.43h2.86ZM338.42,306.9v7.16h-1.43v-7.16h1.43Z"/>
        <path class="cls-3" d="M340.98,302.6h1.43v1.43h-1.43v-1.43ZM340.98,305.47h1.43v8.59h-1.43v-8.59Z"/>
        <path class="cls-3" d="M345.63,305.47v-2.15h1.43v2.15h2.86v1.43h-2.86v5.73h-1.43v-5.73h-1.43v-1.43h1.43ZM349.93,312.62v1.43h-2.86v-1.43h2.86Z"/>
        <path class="cls-3" d="M353.08,306.9v2.15h5.01v-2.15h1.43v3.58h-6.44v2.15h-1.43v-5.73h1.43ZM353.08,305.47h5.01v1.43h-5.01v-1.43ZM358.09,312.62v1.43h-5.01v-1.43h5.01ZM358.09,311.19h1.43v1.43h-1.43v-1.43Z"/>
      </g>
      <g>
        <path class="cls-3" d="M829.13,63.6h-1.43v-2.86h1.43v2.86ZM827.7,67.89h1.43v2.15h-1.43v-2.15ZM829.13,59.3h5.73v1.43h-5.73v-1.43ZM829.13,63.6h2.86v1.43h-2.86v-1.43ZM834.86,71.47h-5.73v-1.43h5.73v1.43ZM832,65.03h2.86v1.43h-2.86v-1.43ZM834.86,60.74h1.43v2.15h-1.43v-2.15ZM836.29,66.46v3.58h-1.43v-3.58h1.43Z"/>
        <path class="cls-3" d="M840.25,64.32v2.15h5.01v-2.15h1.43v3.58h-6.44v2.15h-1.43v-5.73h1.43ZM840.25,62.88h5.01v1.43h-5.01v-1.43ZM845.26,70.04v1.43h-5.01v-1.43h5.01ZM845.26,68.61h1.43v1.43h-1.43v-1.43Z"/>
        <path class="cls-3" d="M850.3,64.32v5.73h-1.43v-5.73h1.43ZM854.6,62.88v1.43h-4.29v-1.43h4.29ZM854.6,71.47h-4.29v-1.43h4.29v1.43ZM856.03,64.32v1.43h-1.43v-1.43h1.43ZM856.03,68.61v1.43h-1.43v-1.43h1.43Z"/>
        <path class="cls-3" d="M859.27,64.32v5.73h-1.43v-5.73h1.43ZM859.27,62.88h5.01v1.43h-5.01v-1.43ZM859.27,70.04h5.01v1.43h-5.01v-1.43ZM865.71,64.32v5.73h-1.43v-5.73h1.43Z"/>
        <path class="cls-3" d="M868.14,62.88h1.43v1.43h1.43v1.43h-1.43v5.73h-1.43v-8.59ZM871.01,62.88h2.86v1.43h-2.86v-1.43ZM875.3,64.32v7.16h-1.43v-7.16h1.43Z"/>
        <path class="cls-3" d="M877.61,64.32h1.43v5.73h-1.43v-5.73ZM879.04,62.88h3.58v1.43h-3.58v-1.43ZM879.04,70.04h3.58v1.43h-3.58v-1.43ZM885.48,59.3v12.17h-1.43v-1.43h-1.43v-1.43h1.43v-2.86h-1.43v-1.43h1.43v-5.01h1.43Z"/>
        <path class="cls-3" d="M889.33,65.75h-1.43v-1.43h1.43v1.43ZM887.9,67.18h1.43v2.86h-1.43v-2.86ZM889.33,62.88h4.29v1.43h-4.29v-1.43ZM893.62,70.04h-1.43v-1.43h1.43v-1.43h-4.29v-1.43h4.29v-1.43h1.43v7.16h-1.43v-1.43ZM889.33,70.04h2.86v1.43h-2.86v-1.43Z"/>
        <path class="cls-3" d="M897.61,62.88h1.43v1.43h1.43v1.43h-1.43v5.73h-1.43v-8.59ZM900.48,62.88h2.15v1.43h-2.15v-1.43Z"/>
        <path class="cls-3" d="M905.28,62.88v4.29h-1.43v-4.29h1.43ZM903.84,73.62h2.86v1.43h-2.86v-1.43ZM906.71,67.18v3.58h-1.43v-3.58h1.43ZM908.14,70.76v2.86h-1.43v-2.86h1.43ZM909.57,67.18v3.58h-1.43v-3.58h1.43ZM911,62.88v4.29h-1.43v-4.29h1.43Z"/>
        <path class="cls-3" d="M916.96,62.17h1.43v6.44h-1.43v-6.44ZM918.39,60.74h1.43v1.43h-1.43v-1.43ZM918.39,68.61h1.43v1.43h-1.43v-1.43ZM919.82,59.3h5.01v1.43h-5.01v-1.43ZM919.82,70.04h5.01v1.43h-5.01v-1.43ZM924.83,60.74h1.43v1.43h-1.43v-1.43ZM924.83,68.61h1.43v1.43h-1.43v-1.43ZM926.26,62.17h1.43v1.43h-1.43v-1.43ZM926.26,67.18h1.43v1.43h-1.43v-1.43Z"/>
        <path class="cls-3" d="M931.2,64.32v5.73h-1.43v-5.73h1.43ZM931.2,62.88h5.01v1.43h-5.01v-1.43ZM931.2,70.04h5.01v1.43h-5.01v-1.43ZM937.65,64.32v5.73h-1.43v-5.73h1.43Z"/>
        <path class="cls-3" d="M940.08,59.3h1.43v12.17h-1.43v-12.17Z"/>
        <path class="cls-3" d="M945.38,64.32v5.73h-1.43v-5.73h1.43ZM945.38,62.88h5.01v1.43h-5.01v-1.43ZM945.38,70.04h5.01v1.43h-5.01v-1.43ZM951.82,64.32v5.73h-1.43v-5.73h1.43Z"/>
        <path class="cls-3" d="M954.25,62.88h1.43v1.43h1.43v1.43h-1.43v5.73h-1.43v-8.59ZM957.11,62.88h2.15v1.43h-2.15v-1.43Z"/>
        <path class="cls-3" d="M960.82,62.78h2.15v2.15h-2.15v-2.15ZM960.82,69.33h2.15v2.15h-2.15v-2.15Z"/>
        <path class="cls-3" d="M969.57,59.3h1.43v10.74h7.16v1.43h-8.59v-12.17Z"/>
        <path class="cls-3" d="M980.04,60.02h1.43v1.43h-1.43v-1.43ZM980.04,62.88h1.43v8.59h-1.43v-8.59Z"/>
        <path class="cls-3" d="M984.08,64.32h1.43v5.73h-1.43v-5.73ZM984.08,71.47h1.43v2.15h-1.43v-2.15ZM985.51,62.88h3.58v1.43h-3.58v-1.43ZM985.51,70.04h3.58v1.43h-3.58v-1.43ZM985.51,73.62h5.01v1.43h-5.01v-1.43ZM991.96,62.88v10.74h-1.43v-3.58h-1.43v-1.43h1.43v-2.86h-1.43v-1.43h1.43v-1.43h1.43Z"/>
        <path class="cls-3" d="M994.46,59.3h1.43v5.01h1.43v1.43h-1.43v5.73h-1.43v-12.17ZM1000.19,62.88v1.43h-2.86v-1.43h2.86ZM1001.62,64.32v7.16h-1.43v-7.16h1.43Z"/>
        <path class="cls-3" d="M1004.71,62.88v-2.15h1.43v2.15h2.86v1.43h-2.86v5.73h-1.43v-5.73h-1.43v-1.43h1.43ZM1009.01,70.04v1.43h-2.86v-1.43h2.86Z"/>
        <path class="cls-3" d="M1015.13,59.3h7.16v1.43h-5.73v5.01h5.73v1.43h-5.73v4.29h-1.43v-12.17ZM1023.72,60.74v5.01h-1.43v-5.01h1.43Z"/>
        <path class="cls-3" d="M1026.03,60.02h1.43v1.43h-1.43v-1.43ZM1026.03,62.88h1.43v8.59h-1.43v-8.59Z"/>
        <path class="cls-3" d="M1030.14,62.88h1.43v1.43h1.43v1.43h-1.43v5.73h-1.43v-8.59ZM1033,62.88h2.86v1.43h-2.86v-1.43ZM1037.3,64.32v7.16h-1.43v-7.16h1.43Z"/>
        <path class="cls-3" d="M1039.86,59.3h1.43v7.16h2.86v1.43h-2.86v3.58h-1.43v-12.17ZM1045.58,66.46h-1.43v-2.15h1.43v2.15ZM1045.58,67.89v2.15h-1.43v-2.15h1.43ZM1047.02,62.88v1.43h-1.43v-1.43h1.43ZM1047.02,70.04v1.43h-1.43v-1.43h1.43Z"/>
      </g>
    </g>
  </g>
</svg>