<?xml version="1.0" encoding="UTF-8"?>
<svg id="Layer_2" data-name="Layer 2" xmlns="http://www.w3.org/2000/svg" viewBox="0 0 496 151.04">
  <defs>
    <style>
      .cls-1 {
        fill: #ee2c75;
      }
    </style>
  </defs>
  <g id="Layer_1-2" data-name="Layer 1">
    <g>
      <path class="cls-1" d="M36.02,34.49v.49h-15.86v-.49c5.27-.3,4.68-2.17,3.2-5.91l-2.02-5.12h-12.12l-1.23,3.2c-2.17,5.67-2.76,7.54,3.3,7.83v.49H0v-.49c4.29-.3,5.07-1.97,7.34-7.78L17.74,0h.54l11.63,28.58c1.68,4.04,2.71,5.62,6.11,5.91ZM21.09,22.91l-5.96-14.98-5.72,14.98h11.68Z"/>
      <path class="cls-1" d="M67.3,25.57c0,6.9-5.72,9.41-14.98,9.41h-15.77v-.44c3.84-.2,3.84-1.33,3.84-4.73V5.67c0-3.4,0-4.58-3.84-4.73v-.44h15.52c4.78,0,13.5.44,13.5,7.88,0,6.55-6.85,7.69-11.73,7.74v.1c4.68.1,13.45,1.28,13.45,9.36ZM46.7,5.22v10.69h3.55c7.1,0,8.72-1.58,8.72-7.54s-1.53-7.29-6.8-7.29h-2.12c-3.3,0-3.35.79-3.35,4.14ZM60.5,25.57c0-7.05-1.82-9.07-10.05-9.07h-3.74v13.75c0,3.15,0,4.14,3.35,4.14h2.27c5.57,0,8.18-1.33,8.18-8.82Z"/>
      <path class="cls-1" d="M70.99,17.74c0-10.99,8.62-17.74,16.65-17.74,3.45,0,5.57,1.28,7.14,2.51,1.38,1.03,1.97,1.38,2.66,1.38.89,0,1.48-.54,1.53-3.89h.49l.2,14.58h-.49c-.35-5.67-3.74-13.99-11.33-13.99s-9.76,7.88-9.76,17.15,1.23,17,9.71,17c7.74,0,11.04-6.8,11.48-13.16h.49c-.3,5.91-3.35,13.89-12.66,13.89-8.38,0-16.11-6.55-16.11-17.74Z"/>
      <path class="cls-1" d="M103.51,34.49c3.84-.2,3.84-1.28,3.84-4.68V5.67c0-3.4,0-4.53-3.84-4.68v-.49h15.62c8.77,0,17.1,6.26,17.1,17.24s-8.47,17.24-17.2,17.24h-15.52v-.49ZM119.03,34.39c8.38,0,10.1-7.54,10.1-16.65s-1.72-16.65-10-16.65h-2.12c-3.3,0-3.35.79-3.35,4.14v25.03c0,3.15,0,4.14,3.35,4.14h2.02Z"/>
      <path class="cls-1" d="M167.55,20.5l-.25,14.49h-28.08v-.49c3.84-.2,3.84-1.28,3.84-4.68V5.67c0-3.4,0-4.53-3.84-4.68v-.49h27.59l.2,12.71h-.49c-.44-8.47-3.6-12.12-8.87-12.12h-4.93c-3.3,0-3.35.79-3.35,4.14v11.33h3.15c6.41,0,7.39-1.58,7.69-7.49h.49v15.52h-.49c-.3-5.96-1.28-7.54-7.69-7.54h-3.15v13.2c0,3.15,0,4.14,3.35,4.14h3.94c7.49,0,10-4.68,10.4-13.89h.49Z"/>
      <path class="cls-1" d="M199.82,13.84h-.49c-.44-9.11-3.6-12.76-8.87-12.76h-4.93c-3.3,0-3.35.79-3.35,4.14v11.28h3.15c6.41,0,7.39-1.53,7.69-7.44h.49v15.52h-.49c-.3-5.96-1.28-7.49-7.69-7.49h-3.15v12.71c0,3.4,0,4.48,5.17,4.68v.49h-15.32v-.49c3.84-.2,3.84-1.28,3.84-4.68V5.67c0-3.4,0-4.53-3.84-4.68v-.49h27.59l.2,13.35Z"/>
      <path class="cls-1" d="M202.92,17.74c0-10.99,8.62-17.74,16.65-17.74,3.55,0,5.52,1.28,7.14,2.51,1.38,1.03,1.97,1.38,2.76,1.38s1.38-.54,1.48-3.89h.44l.2,14.58h-.49c-.35-5.67-3.74-13.99-11.38-13.99s-9.71,7.88-9.71,17.15,1.18,17.1,8.72,17.1c4.68,0,7.24-3.1,7.24-7.54v-3.99c0-3.35,0-4.48-5.22-4.68v-.49h14.73v.49c-3.65.2-3.65,1.33-3.65,4.68v12.17h-.49l-3.65-7.14c-1.43,4.43-4.38,7.14-9.26,7.14-7.88,0-15.52-6.55-15.52-17.74Z"/>
      <path class="cls-1" d="M269.38,5.67v24.14c0,3.4,0,4.48,3.84,4.68v.49h-14.24v-.49c4.09-.2,4.09-1.28,4.09-4.68v-12.61h-15.27v12.61c0,3.4,0,4.48,4.04,4.68v.49h-14.19v-.49c3.84-.2,3.84-1.28,3.84-4.68V5.67c0-3.35,0-4.53-3.84-4.68v-.49h14.19v.49c-4.04.15-4.04,1.33-4.04,4.68v10.94h15.27V5.67c0-3.35,0-4.53-4.09-4.68v-.49h14.24v.49c-3.84.15-3.84,1.33-3.84,4.68Z"/>
      <path class="cls-1" d="M275.83,34.49c4.04-.2,4.04-1.33,4.04-4.68V5.67c0-3.35,0-4.53-4.04-4.68v-.49h14.34v.49c-3.99.15-3.99,1.33-3.99,4.68v24.14c0,3.35,0,4.48,3.99,4.68v.49h-14.34v-.49Z"/>
      <path class="cls-1" d="M291.6,27.89c0-2.66,1.53-4.73,3.84-4.73,1.53,0,2.56,1.08,3.1,2.17-1.67,1.87-2.86,4.24-2.86,6.06,0,.69.2,1.33.74,1.87.89,1.03,2.61,1.58,4.24,1.58,2.46,0,5.57-.84,5.57-7.74V5.67c0-3.35,0-4.53-5.08-4.68v-.49h15.62v.49c-4.24.15-4.24,1.33-4.24,4.68v17.69c0,7.14-3.65,12.07-11.87,12.07-5.62,0-9.07-3.2-9.07-7.54Z"/>
      <path class="cls-1" d="M353.68,34.49v.49h-15.47v-.49c4.78-.2,3.6-2.61,2.02-5.42l-7.54-12.91c-1.18.89-2.36,1.72-3.6,2.46v11.18c0,3.4,0,4.48,4.29,4.68v.49h-14.44v-.49c3.84-.2,3.84-1.28,3.84-4.68V5.67c0-3.4,0-4.53-3.84-4.68v-.49h14.44v.49c-4.29.15-4.29,1.28-4.29,4.68v12.27c6.31-3.99,13.8-11.28,13.8-15.08,0-1.82-2.02-1.87-4.58-1.87v-.49h12.66v.49c-1.23,0-2.66.2-4.09.99-1.48.84-2.86,2.46-5.47,5.67-.79.99-2.41,2.86-4.09,4.53l9.61,16.9c1.77,3.1,3.3,5.22,6.75,5.42Z"/>
      <path class="cls-1" d="M354.07,34.49c3.84-.2,3.84-1.28,3.84-4.68V5.67c0-3.4,0-4.53-3.84-4.68v-.49h15.32v.49c-5.17.15-5.17,1.28-5.17,4.68v24.59c0,3.15,0,4.14,3.35,4.14h3.25c7.39,0,10.15-5.17,10.59-14.83h.49l-.2,15.42h-27.64v-.49Z"/>
      <path class="cls-1" d="M421.07,7.59v20.3c0,5.27-.05,6.41,4.73,6.6v.49h-15.87v-.49c4.78-.2,4.78-1.33,4.78-6.6V1.82l-11.78,33.16h-.59l-12.02-29.96.05,21.63c0,4.78,0,7.64,6.21,7.83v.49h-12.32v-.49c5.57-.2,5.52-3.05,5.52-7.83V7.05c0-3.15-.3-5.91-5.72-6.06v-.49h11.04l10.3,25.87L414.62.49h11.18v.49c-4.78.15-4.73,1.33-4.73,6.6Z"/>
      <path class="cls-1" d="M462.11.49v.49c-5.86.15-5.86,3.05-5.86,7.83v26.36h-.59l-21.83-30.1v21.58c0,4.78,0,7.64,6.8,7.83v.49h-13.2v-.49c5.81-.2,5.81-3.05,5.81-7.83V7.05c0-3.15-.3-5.91-5.96-6.06v-.49h10.89l17.49,24.54V8.82c0-4.78.05-7.69-6.7-7.83v-.49h13.16Z"/>
      <path class="cls-1" d="M463.53,17.74c0-11.14,8.47-17.74,16.26-17.74s16.21,6.6,16.21,17.74-8.43,17.74-16.21,17.74-16.26-6.6-16.26-17.74ZM488.91,17.74c0-9.85-1.77-17.15-9.11-17.15s-9.16,7.29-9.16,17.15,1.72,17.15,9.16,17.15,9.11-7.29,9.11-17.15Z"/>
    </g>
    <g>
      <path class="cls-1" d="M89.57,69.56c0,7.83-5.86,10.05-13.8,10.05h-5.42v9.31c0,3.35,0,4.48,5.17,4.68v.49h-15.32v-.49c3.84-.2,3.84-1.33,3.84-4.68v-24.14c0-3.4,0-4.53-3.84-4.68v-.49h15.57c7.93,0,13.8,2.17,13.8,9.95ZM82.82,69.56c0-7.59-1.97-9.36-7.05-9.36h-2.07c-3.35,0-3.35.99-3.35,4.14v14.68h5.42c5.07,0,7.05-1.87,7.05-9.46Z"/>
      <path class="cls-1" d="M124.1,94.1h.49v.44c0,4.39-2.86,6.11-5.91,6.11-3.55,0-5.67-2.76-6.55-6.55-1.23.34-2.51.49-3.74.49-7.78,0-16.26-6.6-16.26-17.74s8.47-17.74,16.26-17.74,16.21,6.6,16.21,17.74c0,7.14-3.45,12.42-7.98,15.27,1.97,2.91,3.45,4.88,5.32,4.88,1.68,0,2.17-1.13,2.17-2.56v-.34ZM106.42,93.81c-1.58-.79-2.46-2.37-2.46-3.99,0-2.27,1.82-4.53,4.73-4.53s4.73,2.12,6.55,4.78c1.72-3.1,2.27-7.79,2.27-13.2,0-9.85-1.77-17.15-9.12-17.15s-9.16,7.29-9.16,17.15c0,8.92,1.43,15.72,7.19,16.95ZM109.08,93.9v.1c1.08-.1,2.07-.34,2.91-.74-.3-2.12-.2-4.14-.74-5.57-.39-1.18-1.28-1.82-2.56-1.82-2.37,0-3.5,1.87-3.5,3.94s1.28,4.29,3.89,4.09Z"/>
      <path class="cls-1" d="M159.08,84.79v3.84c0,2.12-.2,3.2-.99,4.14-.74.89-2.17,1.82-4.38,1.82s-3.4-.74-4.14-1.72c-.74-.99-.89-2.32-.89-4.14v-4.14c0-5.07-2.32-6.75-6.6-6.75h-4.29v11.09c0,3.4,0,4.48,4.73,4.68v.49h-14.88v-.49c3.84-.2,3.84-1.28,3.84-4.68v-24.14c0-3.4,0-4.53-3.84-4.68v-.49h15.08c7.69,0,13.6,2.17,13.6,9.07,0,5.91-4.29,8.43-10.84,9.02,5.86.94,9.71,3.79,9.71,8.13v2.86c0,1.08.1,1.97.3,2.46.25.54.69.94,1.38.94.79,0,1.18-.44,1.38-.94.25-.49.34-1.28.34-2.51v-3.84h.49ZM142.72,77.25c4.88,0,6.8-1.82,6.8-8.57s-1.92-8.47-6.8-8.47h-1.58c-3.35,0-3.35.99-3.35,4.14v12.91h4.93Z"/>
      <path class="cls-1" d="M168.69,92.43c-1.72-.94-2.96-1.87-3.79-1.87-.79,0-1.33.59-1.48,3.99h-.49l-.2-14.53h.49c.39,5.86,4.24,13.94,12.91,13.94,2.71,0,5.62-.49,7.49-2.61,1.03-1.08,1.33-2.51,1.33-4.04,0-4.19-4.78-6.11-10.64-8.18-5.07-1.82-11.14-3.74-11.14-10.1,0-3.01,1.18-5.37,3.15-7,2.17-1.97,5.32-2.86,8.62-2.86s5.62,1.23,7,2.12c1.77,1.08,2.66,1.92,3.45,1.92s1.33-.64,1.43-4.04h.49l.2,13.7h-.49c-.44-5.42-3.94-13.11-12.07-13.11-2.17,0-4.43.49-5.86,1.68-1.18.94-1.82,2.32-1.82,3.89,0,4.04,4.09,5.57,9.46,7.49,6.26,2.22,12.17,4.19,12.17,10.79,0,3.3-1.28,5.96-3.6,7.88-2.32,1.87-5.07,3.05-9.16,3.05-3.4,0-5.81-1.13-7.44-2.12Z"/>
      <path class="cls-1" d="M221.4,59.61l.2,13.55h-.49c-.35-8.82-3.45-12.96-8.18-12.96h-2.86v28.73c0,3.4,0,4.48,4.43,4.68v.49h-15.22v-.49c4.43-.2,4.43-1.28,4.43-4.68v-28.73h-2.86c-4.78,0-7.78,4.14-8.23,12.96h-.49l.25-13.55h29.02Z"/>
      <path class="cls-1" d="M227.41,80.8v-16.01c0-3.35,0-4.53-3.84-4.68v-.49h14.88v.49c-4.73.15-4.73,1.33-4.73,4.68v16.7c0,6.75.79,12.27,8.28,12.27,5.47,0,9.21-2.96,9.21-12.32v-13.5c0-4.78.05-7.69-6.41-7.83v-.49h12.76v.49c-5.76.15-5.76,3.05-5.76,7.83v13.5c0,8.38-2.76,13.16-11.43,13.16s-12.96-3.3-12.96-13.8Z"/>
      <path class="cls-1" d="M262.49,66.02c-1.63-4.04-2.66-5.76-6.06-5.91v-.49h15.82v.49c-5.22.15-4.73,2.17-3.2,5.91l8.23,20.5,7.14-18.57c2.22-5.67,2.81-7.69-3.35-7.83v-.49h11.38v.49c-4.29.15-5.12,1.97-7.39,7.78l-10.4,26.66h-.54l-11.63-28.53Z"/>
      <path class="cls-1" d="M342.35,59.61v.49c-4.34.15-5.17,1.92-7.39,7.78l-9.95,26.66h-.59l-7.98-21.43-8.03,21.43h-.59l-11.18-28.53c-1.58-4.04-2.66-5.76-6.01-5.91v-.49h14.88v.49c-4.34.15-3.79,2.12-2.32,5.91l7.83,20.1,5.07-13.84-2.32-6.26c-1.53-4.09-2.61-5.76-5.67-5.91v-.49h15.42v.49c-5.27.15-4.58,2.12-3.2,5.91l7.34,20,6.65-18.08c2.17-5.67,2.81-7.69-3.35-7.83v-.49h11.38Z"/>
      <path class="cls-1" d="M375.75,93.61v.49h-15.82v-.49c5.07-.2,4.43-1.77,1.92-5.76l-5.42-8.92-4.43,6.55c-3.01,4.48-5.22,7.93.84,8.13v.49h-11.28v-.49c4.19-.2,6.5-3.25,9.71-8.08l4.83-7.14-7.54-12.42c-2.66-4.39-3.5-5.72-7.39-5.86v-.49h15.96v.49c-4.93.15-4.29,1.77-2.46,4.78l5.67,9.31,4.29-6.45c3.45-5.17,4.93-7.49-1.03-7.64v-.49h11.28v.49c-4.34.15-6.11,2.32-9.56,7.54l-4.68,7.05,7.93,13.11c2.86,4.58,3.84,5.62,7.19,5.81Z"/>
      <path class="cls-1" d="M410.09,59.61v.49c-4.29.15-5.22,2.17-8.03,7.74l-6.41,12.96v8.13c0,3.35,0,4.48,4.43,4.68v.49h-15.22v-.49c4.43-.2,4.43-1.33,4.43-4.68v-7.29l-7.69-15.67c-1.97-3.94-3.15-5.72-6.7-5.86v-.49h15.91v.49c-5.22.15-4.48,2.27-2.66,5.86l7.14,14.19,6.11-12.27c2.71-5.42,3.45-7.64-2.61-7.78v-.49h11.28Z"/>
      <path class="cls-1" d="M411.17,93.61l19.56-33.41h-9.46c-5.22,0-8.13,4.14-8.57,12.96h-.49l.15-13.55h25.18v.49l-19.56,33.41h8.82c7.44,0,10.2-5.17,10.59-14.83h.49l-.25,15.42h-26.46v-.49Z"/>
    </g>
    <g>
      <path class="cls-1" d="M27.32,137.6v2.85c0,1.39-.14,2.12-.66,2.74-.49.59-1.42,1.22-2.85,1.22s-2.15-.56-2.57-1.15c-.42-.63-.62-1.35-.62-2.81v-.87c-.42,1.35-2.02,4.86-6.29,4.86-1.67,0-2.92-.42-3.79-1.29-.9-.8-1.29-1.98-1.29-3.23,0-1.39.49-2.33,1.25-3.02,1.88-1.67,6.32-2.54,10.11-3.23v-2.81c0-3.2-1.6-4.03-3.47-4.03-1.35,0-2.36.35-3.02,1.01-.28.24-.42.49-.42.94,0,.8.52,2.05,1.7,3.44-.35.83-1.42,1.46-2.54,1.46-1.49,0-2.43-1.39-2.43-2.85,0-2.29,2.57-4.38,6.98-4.38s7.3,1.56,7.3,5.59v8.44c0,.76.03,1.35.21,1.7.14.35.42.66.9.66.52,0,.8-.35.94-.66.17-.35.21-.87.21-1.74v-2.85h.35ZM20.61,138.12v-4.13c-2.71.59-5.25,1.29-6.25,2.64-.62.66-.8,1.56-.8,2.57,0,.94.1,1.74.45,2.4.38.66,1.08,1.15,2.22,1.15,2.43,0,4.1-2.29,4.38-4.62Z"/>
      <path class="cls-1" d="M47.54,135.02c0,5.04-2.92,9.42-8.72,9.42-2.99,0-5.18-1.91-5.73-4.34l-2.22,4.31h-.35v-21.54c0-1.56,0-2.61-2.12-2.75v-.35h6.32v7.02l-.1,4.27c1.15-3.3,3.34-4.62,5.91-4.62,4.38,0,7.02,3.65,7.02,8.58ZM43.06,135.06c0-4.55-.42-7.96-3.54-7.96-1.95,0-3.86,1.53-4.86,4.93l-.03,6.53c0,3.51,1.49,5.49,4.03,5.49,2.26,0,4.41-1.39,4.41-9Z"/>
      <path class="cls-1" d="M65.6,137.94h.35c-.28,3.44-2.54,6.46-7.37,6.46s-8.69-3.54-8.69-8.96,3.65-8.96,9.17-8.96c3.93,0,6.64,2.19,6.64,4.79,0,1.81-1.15,3.3-2.64,3.3-1.04,0-1.84-.63-2.22-1.42,1.18-1.35,2.02-3.09,2.02-4.1,0-.42-.17-.83-.49-1.11-.73-.76-1.81-1.08-3.02-1.08-3.75,0-4.97,4.03-4.97,8.58,0,4.83,1.25,8.34,5.39,8.34,3.44,0,5.56-2.54,5.84-5.84Z"/>
      <path class="cls-1" d="M87,143.74v.35h-5.94v-4.13c-1.08,3.27-2.99,4.48-5.73,4.48-4.52,0-7.16-3.79-7.16-8.76s2.75-9.24,7.82-9.24c2.92,0,4.45,1.25,5.11,3.3l-.04-7.02c0-1.56,0-2.54-3.3-2.61v-.35h7.44v21.02c0,2.4,0,2.95,1.81,2.95ZM81.06,138.88v-6.91c0-2.74-1.49-4.93-4.24-4.93-2.02,0-4.17,1.32-4.17,8.62,0,4.79.76,8.13,3.75,8.13,1.91,0,3.65-1.25,4.66-4.9Z"/>
      <path class="cls-1" d="M105.2,137.94c-.1,3.44-2.29,6.5-7.4,6.5-4.83,0-8.76-3.58-8.76-9s3.58-9,8.37-9c5.11,0,7.75,3.23,7.75,8.44h-11.64v.56c0,5.04,1.42,8.37,5.39,8.37,3.68,0,5.84-2.57,5.94-5.87h.35ZM93.53,134.54h7.3c-.03-4.62-.66-7.68-3.4-7.68s-3.79,2.54-3.89,7.68Z"/>
      <path class="cls-1" d="M119.58,122.55c0,1.56-.83,2.47-2.12,2.47-.94,0-1.63-.59-1.95-1.22.87-.97,1.49-1.98,1.49-2.88,0-.76-.56-1.25-1.6-1.25-1.7,0-2.08,1.22-2.08,4v3.13l3.3-.07v.49l-3.3-.07v13.65c0,2.4,0,2.95,2.61,2.95v.35h-8.55v-.35c1.81,0,1.81-.56,1.81-2.95v-13.65h-1.81v-.35h1.81v-1.29c0-3.89,2.33-6.25,6.15-6.25,2.15,0,4.24,1.08,4.24,3.3Z"/>
      <path class="cls-1" d="M136.08,129.19c0,1.22-.66,2.22-1.7,2.22-.66,0-1.22-.38-1.42-.83.69-.9,1.08-1.74,1.08-2.5,0-.87-.52-1.15-.97-1.15-.9,0-1.63,1.18-1.25,2.78.35.73.52,1.56.52,2.47,0,3.34-2.43,5.7-6.78,5.7h-2.99c-1.11,0-2.02.52-2.02,1.35s.52,1.32,2.15,1.32h6.64c3.51,0,5.39,1.42,5.39,4.31,0,3.75-3.47,6.15-10.04,6.15-5.7,0-7.71-2.05-7.71-3.96,0-1.42.8-2.71,4.2-3.02-1.88-.52-2.54-1.88-2.54-3.2,0-1.63,1.32-3.3,4.03-3.3h.24c-2.64-.76-4.1-2.78-4.1-5.35,0-3.34,2.43-5.73,6.74-5.73,2.71,0,4.66.94,5.77,2.43-.03-1.36.73-2.5,2.19-2.5,1.7,0,2.61,1.32,2.57,2.81ZM122.92,144.23c-2.47,0-4.27.69-4.27,2.81,0,2.4,2.61,3.51,6.05,3.51,4.97,0,8.44-1.56,8.44-3.96,0-1.98-1.39-2.36-3.34-2.36h-6.88ZM128.51,132.17c0-3.44-1.01-5.32-2.95-5.32s-2.92,1.88-2.92,5.32.97,5.28,2.92,5.28,2.95-1.88,2.95-5.28Z"/>
      <path class="cls-1" d="M156.48,143.74v.35h-8.1v-.35c2.08,0,2.08-.59,2.08-2.95v-9.83c0-2.33-1.11-3.34-2.88-3.34-2.08,0-3.75,1.39-5.04,3.86v9.31c0,2.36,0,2.95,2.08,2.95v.35h-8.06v-.35c1.81,0,1.81-.59,1.81-2.95v-17.93c0-1.56,0-2.61-2.12-2.75v-.35h6.29v7.02l-.07,4.03c1.49-2.74,3.82-4.38,6.88-4.38,2.88,0,5.32,1.6,5.32,5.25v9.1c0,2.36,0,2.95,1.81,2.95Z"/>
      <path class="cls-1" d="M158.21,144.09v-.35c1.84,0,1.84-.56,1.84-2.95v-10.7c0-1.56,0-2.74-2.15-2.95v-.35h6.32v14c0,2.4,0,2.95,1.84,2.95v.35h-7.85ZM159.39,121.47c0-1.49,1.22-2.68,2.71-2.68,1.6,0,2.78,1.15,2.78,2.68s-1.18,2.71-2.78,2.71c-1.49,0-2.71-1.18-2.71-2.71Z"/>
      <path class="cls-1" d="M174.4,144.16c0,4.41-2.43,6.71-5.73,6.71-2.43,0-4.1-1.22-4.1-3.27,0-1.39.73-2.29,1.98-2.29.87,0,1.56.52,1.84,1.15-.73.9-1.36,1.84-1.36,2.68,0,.73.52,1.32,1.39,1.32,1.35,0,1.81-1.29,1.81-4.62v-15.74c0-1.56,0-2.74-2.85-2.95v-.35h7.02v17.37ZM169.57,121.47c0-1.49,1.22-2.68,2.74-2.68s2.75,1.15,2.75,2.68-1.18,2.71-2.75,2.71-2.74-1.18-2.74-2.71Z"/>
      <path class="cls-1" d="M198.06,143.74v.35h-9.28v-.35c2.61,0,2.15-.97.69-3.72l-3.27-5.66c-.87.63-1.74,1.22-2.61,1.67v4.76c0,2.4,0,2.95,2.08,2.95v.35h-8.06v-.35c1.81,0,1.81-.56,1.81-2.95v-17.93c0-1.56,0-2.61-2.12-2.75v-.35h6.29l-.07,15.84c3.41-1.84,7.68-5.77,7.68-7.57,0-.94-1.25-.9-2.64-.9v-.35h7.4v.35c-.73,0-1.67,0-2.43.38-.9.49-1.42,1.22-2.88,2.81-.35.38-.87.94-1.46,1.49l4.69,8.2c1.46,2.61,2.22,3.72,4.17,3.72Z"/>
      <path class="cls-1" d="M198.16,144.09v-.35c1.81,0,1.81-.56,1.81-2.95v-17.93c0-1.56,0-2.61-2.12-2.75v-.35h6.32v21.02c0,2.4,0,2.95,1.77,2.95v.35h-7.78Z"/>
      <path class="cls-1" d="M238.6,143.74v.35h-8.03v-.35c2.05,0,2.05-.56,2.05-2.95v-9.8c0-2.36-1.15-3.27-2.68-3.27-1.98,0-3.44,1.42-4.59,3.68v9.38c0,2.4,0,2.95,2.02,2.95v.35h-8.23v-.35c2.02,0,2.02-.56,2.02-2.95v-9.8c0-2.36-1.11-3.27-2.64-3.27-1.98,0-3.4,1.46-4.59,3.75v9.31c0,2.4,0,2.95,2.02,2.95v.35h-8.03v-.35c1.81,0,1.81-.56,1.81-2.95v-10.7c0-1.56,0-2.74-2.12-2.95v-.35h6.29l-.04,4c1.46-2.68,3.75-4.34,6.5-4.34,2.54,0,4.66,1.35,4.97,4.31,1.42-2.64,3.68-4.31,6.43-4.31s5,1.6,5,5.04v9.31c0,2.4,0,2.95,1.84,2.95Z"/>
      <path class="cls-1" d="M260.2,143.74v.35h-8.06v-.35c2.08,0,2.08-.59,2.08-2.95v-9.83c0-2.33-1.11-3.34-2.92-3.34-2.02,0-3.68,1.35-5,3.79v9.38c0,2.36,0,2.95,2.08,2.95v.35h-8.1v-.35c1.81,0,1.81-.59,1.81-2.95v-10.7c0-1.56,0-2.74-2.12-2.95v-.35h6.29l-.04,4c1.53-2.71,3.82-4.34,6.84-4.34s5.32,1.6,5.32,5.25v9.1c0,2.36,0,2.95,1.81,2.95Z"/>
      <path class="cls-1" d="M262.01,135.44c0-5.56,4.27-9,8.79-9s8.89,3.44,8.89,9-4.27,9-8.89,9-8.79-3.44-8.79-9ZM275.21,135.44c0-5.52-1.49-8.58-4.41-8.58s-4.31,3.06-4.31,8.58,1.49,8.58,4.31,8.58,4.41-3.06,4.41-8.58Z"/>
      <path class="cls-1" d="M300.57,135.02c0,5.04-2.68,9.42-7.96,9.42-2.68,0-4.24-1.22-4.93-3.2l.03,6.39c0,2.02,0,2.78,2.78,2.81v.35h-8.93v-.35c1.95-.1,1.95-.94,1.95-2.95v-17.41c0-1.56,0-2.74-2.12-2.95v-.35h6.32l-.03,4.2c1.18-3.3,3.3-4.55,5.87-4.55,4.34,0,7.02,3.65,7.02,8.58ZM296.09,135.06c0-4.55-.42-7.99-3.54-7.99-1.95,0-3.75,1.49-4.83,4.83v7.02c0,2.74,1.49,4.97,4.03,4.97,2.19,0,4.34-1.46,4.34-8.83Z"/>
      <path class="cls-1" d="M321.97,150.45v.35h-8.93v-.35c2.78-.04,2.78-.8,2.78-2.81v-3.54l.1-4.34c-1.08,3.41-3.34,4.69-5.94,4.69-4.38,0-7.02-3.79-7.02-8.76s3.02-9.24,8.48-9.24c3.34,0,5.39,1.98,6.01,4.38.9-.97,1.67-2.57,2.19-4.34h.35v21.02c0,2.02,0,2.85,1.98,2.95ZM315.85,138.88l.04-6.53c0-3.51-1.39-5.49-4.17-5.49-2.12,0-4.27,1.29-4.27,8.79,0,4.59.42,8.03,3.54,8.03,1.95,0,3.89-1.39,4.86-4.79Z"/>
      <path class="cls-1" d="M339.16,130.16c0,1.74-1.08,3.34-2.61,3.34-.97,0-1.98-.69-2.29-1.42,1.11-1.39,1.7-2.64,1.7-3.54,0-1.11-.9-1.35-1.67-1.35-2.36,0-4.13,2.61-4.9,6.5v7.12c0,2.4,0,2.95,2.57,2.95v.35h-8.58v-.35c1.81,0,1.81-.56,1.81-2.95v-10.7c0-1.56,0-2.74-2.12-2.95v-.35h6.29l-.04,5.73c.94-3.82,2.88-6.08,5.84-6.08,2.61,0,4,1.6,4,3.72Z"/>
      <path class="cls-1" d="M344.02,143.19c-1.15-.73-1.6-1.18-1.98-1.18-.66,0-.83,1.18-.9,2.43h-.35l.17-7.92h.31c.1,5.7,4.31,7.5,7.37,7.5,1.35,0,2.71-.28,3.54-.94.56-.45.9-1.11.9-1.91,0-2.43-2.71-3.2-6.05-4.03-3.79-.97-6.01-2.15-6.01-5.28,0-1.81.83-3.2,2.12-4.1,1.39-.9,3.06-1.29,4.62-1.29,2.19,0,3.61.76,4.48,1.35.73.45,1.18.87,1.49.87.45,0,.52-.59.56-2.22h.35l.1,6.88h-.31c-.35-3.27-2.57-6.5-6.64-6.5-1.18,0-2.54.28-3.54.9-.69.42-1.29,1.15-1.29,2.12,0,2.02,2.36,2.71,5.32,3.44,4.03.97,7.3,1.95,7.3,5.77,0,2.02-1.04,3.44-2.68,4.34-1.04.56-2.54,1.01-4.27,1.01-2.05,0-3.65-.66-4.62-1.25Z"/>
      <path class="cls-1" d="M363.62,127.14v12.06c0,1.22.07,2.29.31,2.88.17.45.56.87,1.35.87s1.25-.45,1.49-.97c.28-.59.31-1.56.31-2.81v-2.26h.35v2.26c0,1.39-.03,2.85-.8,3.82-.94,1.18-2.26,1.46-3.34,1.46-1.6,0-2.57-.52-3.09-1.42-.49-.87-.73-2.19-.73-4.27v-11.6h-2.22v-.35h1.22c2.95,0,4.34-2.26,4.76-6.36h.38v6.36l3.82-.07v.49l-3.82-.07Z"/>
      <path class="cls-1" d="M388.8,143.74v.35h-5.94v-3.96c-1.49,2.68-3.89,4.31-6.88,4.31s-5.28-1.56-5.28-5.18v-9.17c0-2.4,0-2.95-1.77-2.95v-.35h5.94v13.17c0,2.36,1.08,3.37,2.81,3.37,2.12,0,3.86-1.39,5.14-3.82v-9.55c0-2.05,0-2.78-2.99-2.81v-.35h7.16v14c0,2.4,0,2.95,1.81,2.95Z"/>
      <path class="cls-1" d="M408.43,126.79v.35c-2.19,0-2.78,1.35-3.93,4.06l-5.49,13.2h-.35l-5.59-13.17c-1.32-3.16-1.74-4.1-3.75-4.1v-.35h9.28v.35c-2.78,0-2.33,1.22-1.11,4.1l3.27,8.1,3.34-8.13c1.01-2.36,1.67-4.06-2.08-4.06v-.35h6.43Z"/>
      <path class="cls-1" d="M436.78,126.79v.35c-2.15,0-2.74,1.35-3.89,4.06l-5.49,13.2h-.38l-4.52-11.92-4.97,11.92h-.35l-5.59-13.17c-1.32-3.16-1.74-4.1-3.75-4.1v-.35h8.82v.35c-2.29,0-1.88,1.22-1.08,3.23l3.72,9,2.99-7.37-.63-1.67c-.83-2.29-1.32-3.2-2.99-3.2v-.35h8.89v.35c-2.92,0-2.4,1.18-1.32,4.1l2.92,8.13,3.3-8.17c1.01-2.4,1.63-4.06-2.12-4.06v-.35h6.43Z"/>
      <path class="cls-1" d="M455.36,143.74v.35h-9.1v-.35c2.61,0,1.95-1.15.31-3.79l-2.08-3.23-2.54,3.16c-1.81,2.26-2.95,3.86.56,3.86v.35h-6.18v-.35c1.98,0,3.16-1.35,5.14-3.86l2.81-3.51-3.51-5.45c-1.88-2.95-2.64-3.79-4.27-3.79v-.35h8.89v.35c-2.61,0-2.15.73-.21,3.82l1.7,2.64,2.19-2.68c1.7-2.12,2.78-3.79-.42-3.79v-.35h6.01v.35c-2.12,0-3.2,1.35-5.11,3.79l-2.43,3.02,3.86,5.98c1.56,2.57,2.57,3.82,4.38,3.82Z"/>
      <path class="cls-1" d="M459.11,151.04c-1.84,0-3.51-1.32-3.51-3.54,0-1.63.97-3.02,2.29-2.99,1.04,0,1.91.66,2.15,1.35-1.22,1.15-2.4,2.61-2.36,3.61,0,.8.63,1.18,1.53,1.18,1.04,0,2.4-.66,3.54-3.44l1.32-3.02-5.56-12.96c-1.35-3.16-1.77-4.1-3.75-4.1v-.35h9.24v.35c-2.71,0-2.29,1.22-1.11,4.1l3.27,8.13,3.37-8.17c1.01-2.4,1.67-4.06-2.12-4.06v-.35h6.43v.35c-2.15,0-2.75,1.35-3.89,4.06l-6.81,16.12c-1.25,3.02-2.78,3.72-4.03,3.72Z"/>
      <path class="cls-1" d="M474.08,143.78l10.42-16.61h-4.1c-3.96,0-4.9,1.98-5.21,6.46h-.35l.35-6.84h13.93v.35l-10.28,16.61h4.31c4.76,0,5.49-1.6,5.98-7.5h.31l-.45,7.85h-14.91v-.31Z"/>
    </g>
  </g>
</svg>