<?xml version="1.0" encoding="UTF-8"?>
<svg id="Layer_2" data-name="Layer 2" xmlns="http://www.w3.org/2000/svg" viewBox="0 0 233.74 200.14">
  <defs>
    <style>
      .cls-1 {
        fill: #f3ecf2;
      }

      .cls-2 {
        fill: #ee2c75;
      }
    </style>
  </defs>
  <g id="Layer_1-2" data-name="Layer 1">
    <polygon class="cls-2" points="132.71 0 132.71 33.36 100.85 33.36 100.85 0 33.31 0 33.31 33.38 0 33.38 0 100.24 33.31 100.24 33.31 133.52 66.62 133.52 66.62 166.76 99.92 166.76 99.92 200.14 133.17 200.14 133.17 166.76 166.12 166.76 166.12 133.52 200.25 133.52 200.25 100.24 233.74 100.24 233.74 33.38 200.25 33.38 200.25 0 132.71 0"/>
    <g>
      <path class="cls-1" d="M63.47,70.03h13v2.17h-10.83v6.5h9.75v2.17h-9.75v7.58h-2.17v-18.41Z"/>
      <path class="cls-1" d="M80.82,77.62v3.25h7.58v-3.25h2.17v5.42h-9.75v3.25h-2.17v-8.66h2.17ZM80.82,75.45h7.58v2.17h-7.58v-2.17ZM88.4,86.28v2.17h-7.58v-2.17h7.58ZM88.4,84.11h2.17v2.17h-2.17v-2.17Z"/>
      <path class="cls-1" d="M94.25,75.45h2.17v2.17h2.17v2.17h-2.17v8.66h-2.17v-13ZM98.58,75.45h4.33v2.17h-4.33v-2.17ZM107.24,77.62v2.17h-2.17v8.66h-2.17v-10.83h4.33ZM107.24,75.45h4.33v2.17h-4.33v-2.17ZM113.74,77.62v10.83h-2.17v-10.83h2.17Z"/>
      <path class="cls-1" d="M117.61,71.12h2.17v2.17h-2.17v-2.17ZM117.61,75.45h2.17v13h-2.17v-13Z"/>
      <path class="cls-1" d="M123.84,75.45h2.17v2.17h2.17v2.17h-2.17v8.66h-2.17v-13ZM128.17,75.45h4.33v2.17h-4.33v-2.17ZM134.67,77.62v10.83h-2.17v-10.83h2.17Z"/>
      <path class="cls-1" d="M138.54,71.12h2.17v2.17h-2.17v-2.17ZM138.54,75.45h2.17v13h-2.17v-13Z"/>
      <path class="cls-1" d="M144.77,75.45h2.17v2.17h2.17v2.17h-2.17v8.66h-2.17v-13ZM149.1,75.45h4.33v2.17h-4.33v-2.17ZM155.6,77.62v10.83h-2.17v-10.83h2.17Z"/>
      <path class="cls-1" d="M161.26,77.62v3.25h7.58v-3.25h2.17v5.42h-9.75v3.25h-2.17v-8.66h2.17ZM161.26,75.45h7.58v2.17h-7.58v-2.17ZM168.84,86.28v2.17h-7.58v-2.17h7.58ZM168.84,84.11h2.17v2.17h-2.17v-2.17Z"/>
    </g>
  </g>
</svg>