<?xml version="1.0" encoding="UTF-8"?>
<svg id="Layer_2" data-name="Layer 2" xmlns="http://www.w3.org/2000/svg" viewBox="0 0 233.74 200.14">
  <defs>
    <style>
      .cls-1 {
        fill: #f3ecf2;
      }

      .cls-2 {
        fill: #ee2c75;
      }
    </style>
  </defs>
  <g id="Layer_1-2" data-name="Layer 1">
    <polygon class="cls-2" points="132.71 0 132.71 33.36 100.85 33.36 100.85 0 33.31 0 33.31 33.38 0 33.38 0 100.24 33.31 100.24 33.31 133.52 66.62 133.52 66.62 166.76 99.92 166.76 99.92 200.14 133.17 200.14 133.17 166.76 166.12 166.76 166.12 133.52 200.25 133.52 200.25 100.24 233.74 100.24 233.74 33.38 200.25 33.38 200.25 0 132.71 0"/>
    <g>
      <path class="cls-1" d="M87.51,78.41h2.17v9.75h-2.17v-9.75ZM89.67,76.24h2.17v2.17h-2.17v-2.17ZM89.67,88.16h2.17v2.17h-2.17v-2.17ZM91.84,74.08h7.58v2.17h-7.58v-2.17ZM91.84,90.32h7.58v2.17h-7.58v-2.17ZM99.42,76.24h2.17v2.17h-2.17v-2.17ZM99.42,88.16h2.17v2.17h-2.17v-2.17ZM101.59,78.41h2.17v2.17h-2.17v-2.17ZM101.59,85.99h2.17v2.17h-2.17v-2.17Z"/>
      <path class="cls-1" d="M109.06,81.66v8.66h-2.17v-8.66h2.17ZM109.06,79.49h7.58v2.17h-7.58v-2.17ZM109.06,90.32h7.58v2.17h-7.58v-2.17ZM118.8,81.66v8.66h-2.17v-8.66h2.17Z"/>
      <path class="cls-1" d="M132.99,79.49v4.33h-2.17v-2.17h-8.66v-2.17h10.83ZM122.16,88.16h2.17v2.17h8.66v2.17h-10.83v-4.33ZM124.33,85.99h3.25v2.17h-3.25v-2.17ZM130.83,85.99h-3.25v-2.17h3.25v2.17Z"/>
      <path class="cls-1" d="M138.16,79.49v6.5h-2.17v-6.5h2.17ZM136,95.74h4.33v2.17h-4.33v-2.17ZM140.33,85.99v5.41h-2.17v-5.41h2.17ZM142.49,91.41v4.33h-2.17v-4.33h2.17ZM144.66,85.99v5.41h-2.17v-5.41h2.17ZM146.83,79.49v6.5h-2.17v-6.5h2.17Z"/>
    </g>
  </g>
</svg>