<?xml version="1.0" encoding="UTF-8"?>
<svg id="Layer_2" data-name="Layer 2" xmlns="http://www.w3.org/2000/svg" viewBox="0 0 233.74 200.14">
  <defs>
    <style>
      .cls-1 {
        fill: #f3ecf2;
      }

      .cls-2 {
        fill: #ee2c75;
      }
    </style>
  </defs>
  <g id="Layer_1-2" data-name="Layer 1">
    <polygon class="cls-2" points="132.71 0 132.71 33.36 100.85 33.36 100.85 0 33.31 0 33.31 33.38 0 33.38 0 100.24 33.31 100.24 33.31 133.52 66.62 133.52 66.62 166.76 99.92 166.76 99.92 200.14 133.17 200.14 133.17 166.76 166.12 166.76 166.12 133.52 200.25 133.52 200.25 100.24 233.74 100.24 233.74 33.38 200.25 33.38 200.25 0 132.71 0"/>
    <g>
      <path class="cls-1" d="M66.34,77.32h2.17v9.75h-2.17v-9.75ZM68.5,75.15h2.17v2.17h-2.17v-2.17ZM68.5,87.06h2.17v2.17h-2.17v-2.17ZM70.67,72.99h7.58v2.17h-7.58v-2.17ZM70.67,89.23h7.58v2.17h-7.58v-2.17ZM78.25,75.15h2.17v2.17h-2.17v-2.17ZM78.25,87.06h2.17v2.17h-2.17v-2.17ZM80.41,77.32h2.17v2.17h-2.17v-2.17ZM80.41,84.9h2.17v2.17h-2.17v-2.17Z"/>
      <path class="cls-1" d="M86.1,78.4h2.17v2.17h2.17v2.17h-2.17v8.66h-2.17v-13ZM90.43,78.4h3.25v2.17h-3.25v-2.17Z"/>
      <path class="cls-1" d="M97.93,80.57v3.25h7.58v-3.25h2.17v5.42h-9.75v3.25h-2.17v-8.66h2.17ZM97.93,78.4h7.58v2.17h-7.58v-2.17ZM105.51,89.23v2.17h-7.58v-2.17h7.58ZM105.51,87.06h2.17v2.17h-2.17v-2.17Z"/>
      <path class="cls-1" d="M113.12,82.73h-2.17v-2.17h2.17v2.17ZM110.95,84.9h2.17v4.33h-2.17v-4.33ZM113.12,78.4h6.5v2.17h-6.5v-2.17ZM119.62,89.23h-2.17v-2.17h2.17v-2.17h-6.5v-2.17h6.5v-2.17h2.17v10.83h-2.17v-2.17ZM113.12,89.23h4.33v2.17h-4.33v-2.17Z"/>
      <path class="cls-1" d="M126.2,78.4v-3.25h2.17v3.25h4.33v2.17h-4.33v8.66h-2.17v-8.66h-2.17v-2.17h2.17ZM132.69,89.23v2.17h-4.33v-2.17h4.33Z"/>
      <path class="cls-1" d="M135.81,74.07h2.17v2.17h-2.17v-2.17ZM135.81,78.4h2.17v13h-2.17v-13Z"/>
      <path class="cls-1" d="M141.3,78.4h2.17v4.33h-2.17v-4.33ZM143.47,82.73h2.17v5.41h-2.17v-5.41ZM147.8,88.15v3.25h-2.17v-3.25h2.17ZM149.97,88.15h-2.17v-5.41h2.17v5.41ZM152.13,78.4v4.33h-2.17v-4.33h2.17Z"/>
      <path class="cls-1" d="M157.14,80.57v3.25h7.58v-3.25h2.17v5.42h-9.75v3.25h-2.17v-8.66h2.17ZM157.14,78.4h7.58v2.17h-7.58v-2.17ZM164.72,89.23v2.17h-7.58v-2.17h7.58ZM164.72,87.06h2.17v2.17h-2.17v-2.17Z"/>
    </g>
  </g>
</svg>