<?xml version="1.0" encoding="UTF-8"?>
<svg id="Layer_2" data-name="Layer 2" xmlns="http://www.w3.org/2000/svg" viewBox="0 0 488.44 148.85">
  <defs>
    <style>
      .cls-1 {
        fill: #ee2c75;
      }
    </style>
  </defs>
  <g id="Layer_1-2" data-name="Layer 1">
    <g>
      <path class="cls-1" d="M19.76.79h5.17l7.83,33.55h-7.09l-1.28-6.6h-13.84l-3.74,6.6H0L19.76.79ZM23.26,21.98l-2.46-12.42-7,12.42h9.46Z"/>
      <path class="cls-1" d="M43.65.79h13.8c6.55,0,10.4,3.65,9.31,9.9-.54,2.81-2.61,5.17-5.62,6.5,3.1,1.33,5.08,3.99,4.24,8.82-.94,5.17-5.42,8.33-11.09,8.33h-16.55L43.65.79ZM53.41,28.53c2.76,0,5.03-1.33,5.52-4.09.64-3.3-1.43-4.58-4.53-4.58h-7.39l-1.63,8.67h8.03ZM55.28,14.83c2.96,0,4.93-1.77,5.27-3.79.54-2.86-.94-4.48-4.29-4.48h-6.95l-1.53,8.28h7.49Z"/>
      <path class="cls-1" d="M72.37,16.16C74.1,6.45,81.49.05,90.9.05c7,0,12.22,3.25,14.49,9.26l-6.7,2.76c-1.23-3.7-4.29-5.91-8.18-5.91-6.06,0-10.1,4.48-11.18,10.59-1.13,6.5,2.27,12.27,8.33,12.22,4.14,0,7.59-1.97,9.41-5.67l6.06,2.91c-3.1,6.16-9.41,8.87-15.91,8.87-10.54,0-16.7-8.72-14.83-18.92Z"/>
      <path class="cls-1" d="M113.16.79h9.71c12.02,0,18.13,7,16.01,18.82-1.63,9.31-8.87,14.73-18.87,14.73h-12.76L113.16.79ZM120.41,28.43c6.21,0,10.59-3.74,11.68-9.76,1.33-7.34-2.02-11.97-8.77-11.97h-4.53l-3.79,21.73h5.42Z"/>
      <path class="cls-1" d="M148.88.79h22.66l-.99,5.86h-16.01l-1.48,7.69h15.18l-.89,5.62h-15.18l-1.53,8.52h16.41l-.99,5.86h-23.11L148.88.79Z"/>
      <path class="cls-1" d="M178.64.79h21.98l-1.03,5.91h-15.32l-1.63,8.62h14.39l-.94,5.72h-14.39l-2.32,13.3h-6.65L178.64.79Z"/>
      <path class="cls-1" d="M201.84,16.16C203.66,6.6,210.95.05,220.96.05c6.16,0,11.53,3.01,13.89,8.97l-6.5,2.76c-1.28-3.79-4.58-5.76-8.18-5.76-5.96,0-10.2,4.63-11.28,10.74-1.23,6.75,2.46,12.37,8.43,12.37,4.73,0,8.77-2.81,10.49-7.69h-9.85l.84-5.57h16.75c0,1.28-.1,2.46-.3,3.7-1.68,10.3-9.66,15.52-18.67,15.52-10.3,0-16.55-8.52-14.73-18.92Z"/>
      <path class="cls-1" d="M244.6.79h6.65l-2.37,13.45h15.32l2.37-13.45h6.65l-5.91,33.55h-6.65l2.51-14.19h-15.32l-2.51,14.19h-6.65L244.6.79Z"/>
      <path class="cls-1" d="M281.4.79h6.65l-5.91,33.55h-6.65l5.91-33.55Z"/>
      <path class="cls-1" d="M287.86,34.05l1.23-5.86c.74.34,1.43.54,2.27.54,2.32,0,3.99-1.43,4.48-4.29l4.14-23.65h6.65l-4.34,24.64c-1.13,6.41-5.22,9.36-10.49,9.36-1.48,0-2.76-.3-3.94-.74Z"/>
      <path class="cls-1" d="M318.45,18.33l-2.81,16.01h-6.65l5.91-33.55h6.65l-2.61,14.78,14.98-14.78h7.98v.15l-16.7,16.01,12.07,17.2v.2h-7.83l-10.99-16.01Z"/>
      <path class="cls-1" d="M348.3.79h6.65l-4.88,27.64h14.53l-1.03,5.91h-21.19l5.91-33.55Z"/>
      <path class="cls-1" d="M375.1.79h7.83l7.24,21.43,14.04-21.43h8.33l-5.91,33.55h-6.7l3.99-22.62c-.59.99-1.13,1.92-1.58,2.56l-13.99,20.74h-.74l-7.24-20.35c-.2-.54-.44-1.43-.64-2.32l-3.89,21.97h-6.65l5.91-33.55Z"/>
      <path class="cls-1" d="M420.67.79h6.11l10.79,19.22c.69,1.28,1.38,2.46,1.92,3.74l4.04-22.96h6.65l-5.91,33.55h-6.06l-10.74-19.02c-.79-1.38-1.43-2.76-1.97-4.19l-4.09,23.21h-6.65l5.91-33.55Z"/>
      <path class="cls-1" d="M454.17,16.06c1.77-9.66,9.07-16.06,19.07-16.06s16.75,8.77,14.88,19.07c-1.72,9.61-8.97,16.01-18.92,16.01s-16.9-8.72-15.03-19.02ZM481.08,18.48c1.23-6.55-2.32-12.32-8.57-12.32-6.06-.05-10.15,4.48-11.28,10.54-1.18,6.55,2.46,12.27,8.67,12.27s10.05-4.48,11.18-10.49Z"/>
    </g>
    <g>
      <path class="cls-1" d="M66.36,59.91h12.47c6.8,0,11.23,4.73,9.95,11.87-1.18,6.55-6.31,9.85-12.91,9.85h-6.7l-2.07,11.83h-6.65l5.91-33.55ZM76.02,76.12c3.55,0,5.67-1.87,6.11-4.48.59-3.35-.84-5.81-4.88-5.81h-5.27l-1.82,10.3h5.86Z"/>
      <path class="cls-1" d="M92.86,75.18c1.77-9.71,8.97-16.11,18.82-16.11s16.51,8.82,14.63,19.12c-.84,4.63-3.05,8.47-6.21,11.23l3.3,6.41v.1h-6.9l-1.67-3.25c-2.22.94-4.63,1.53-7.29,1.53-10.1,0-16.51-8.72-14.68-19.02ZM112.13,87.45l-5.27-10.25v-.1h6.85l3.3,6.31c1.08-1.63,1.82-3.65,2.27-5.81,1.23-6.6-2.22-12.42-8.33-12.42s-9.9,4.53-11.04,10.59c-1.18,6.65,2.32,12.37,8.43,12.37,1.38,0,2.66-.25,3.79-.69Z"/>
      <path class="cls-1" d="M137.06,59.91h12.02c7.09,0,11.58,4.88,10.45,11.48-.79,4.98-5.47,7.98-10.59,8.52l10.3,13.35-.05.2h-8.08l-10.69-14.53h-.05l-2.56,14.53h-6.65l5.91-33.55ZM142.72,65.52l-1.68,9.41h6.16c2.96,0,5.22-1.43,5.67-4.24.49-3.05-1.43-5.17-4.63-5.17h-5.52Z"/>
      <path class="cls-1" d="M162.87,88.14l5.32-4.24c1.92,2.81,4.78,4.39,7.39,4.39,2.96,0,5.12-1.53,5.57-3.74.54-2.76-1.97-3.94-4.43-4.88-6.16-2.41-10.79-4.98-9.61-11.38.94-5.52,6.31-9.21,12.66-9.21,4.14,0,8.13,1.63,10.59,5.52l-5.27,4.24c-1.63-2.71-3.89-3.79-6.01-3.79-2.86,0-4.98,1.58-5.37,3.7-.49,2.66,1.87,3.74,4.14,4.63,6.16,2.37,11.18,4.53,9.95,11.48-.99,5.62-6.01,9.36-12.96,9.36-4.53,0-9.31-1.87-11.97-6.06Z"/>
      <path class="cls-1" d="M203.17,65.82h-9.9l1.03-5.91h26.46l-1.03,5.91h-9.9l-4.88,27.64h-6.65l4.88-27.64Z"/>
      <path class="cls-1" d="M221.79,78.83l3.35-18.92h6.95l-3.4,19.17c-.94,5.27,1.23,9.07,6.11,9.07s7.44-3.15,8.28-8.08l3.55-20.15h6.95l-3.7,20.79c-1.38,7.93-7,13.5-15.37,13.5-9.41,0-14.29-6.11-12.71-15.37Z"/>
      <path class="cls-1" d="M258.35,59.91h7.14l4.93,23.99,13.89-23.99h6.9l-19.76,33.55h-5.27l-7.83-33.55Z"/>
      <path class="cls-1" d="M293.67,59.91h6.9l1.72,22.02,12.07-22.02h4.68l3.35,22.12,10.3-22.12h7.1l-16.01,33.55h-4.73l-4.34-22.12-12.22,22.12h-4.78l-4.04-33.55Z"/>
      <path class="cls-1" d="M336.68,93.12l14.68-16.8-8.28-16.06.05-.34h7.34l5.96,11.82,10.1-11.82h7.29l-.05.34-13.94,16.11,8.77,16.75-.05.34h-7.34l-6.5-12.56-10.74,12.56h-7.34l.05-.34Z"/>
      <path class="cls-1" d="M383.63,80.65l-7.93-20.59v-.15h7l5.27,14.53,10.4-14.53h7.19v.15l-15.18,20.5-2.32,12.91h-6.7l2.27-12.81Z"/>
      <path class="cls-1" d="M400.72,92.77l21.53-26.95h-14.73l1.03-5.91h25.67l.15.64-21.63,27h16.8l-1.03,5.91h-27.69l-.1-.69Z"/>
    </g>
    <g>
      <path class="cls-1" d="M14.66,131.23c.76-4.34,3.82-7.68,8.27-7.68,2.33,0,3.86.97,4.86,3.02l.38-.07c.07-.9.17-1.67.35-2.61h4.34l-2.92,16.5h-4.34c.14-.94.35-1.7.56-2.64l-.42-.14c-1.63,2.26-3.47,3.13-5.32,3.13-4.62,0-6.67-4.41-5.77-9.52ZM27.03,132.38c.49-2.85-.76-4.86-3.47-4.86-2.36,0-4.1,1.81-4.52,4.2-.52,2.88.76,5.04,3.34,5.04,2.4,0,4.2-1.81,4.66-4.38Z"/>
      <path class="cls-1" d="M39.81,137.73l-.38.07c-.07.94-.21,1.7-.35,2.61h-4.34l4.45-25.22h4.48l-1.15,6.46c-.35,1.81-.59,3.13-1.11,4.9l.42.14c1.67-2.19,3.51-3.13,5.32-3.13,4.66,0,6.71,4.45,5.77,9.52-.76,4.34-3.79,7.68-8.23,7.68-2.33,0-3.86-.94-4.86-3.02ZM48.57,132.58c.49-2.88-.76-5-3.37-5-2.4,0-4.17,1.81-4.62,4.34-.49,2.85.76,4.86,3.44,4.86,2.36,0,4.13-1.81,4.55-4.2Z"/>
      <path class="cls-1" d="M55.9,131.16c.83-4.59,4.59-7.85,9.24-7.85,3.51,0,6.12,1.77,7.09,4.83l-3.93,1.63c-.52-1.53-1.81-2.5-3.41-2.5-2.5,0-4.24,1.91-4.69,4.41-.52,2.95.97,5.32,3.54,5.32,1.7,0,3.13-.87,4.03-2.4l3.61,1.77c-1.74,2.99-4.66,4.59-7.99,4.59-5.39,0-8.44-4.13-7.5-9.8Z"/>
      <path class="cls-1" d="M73.93,131.23c.76-4.34,3.82-7.68,8.27-7.68,2.33,0,3.86.97,4.86,3.02l.38-.07c.07-.9.28-3.16.59-4.76l1.18-6.57h4.45l-4.45,25.22h-4.34c.14-.94.35-1.7.56-2.64l-.42-.14c-1.63,2.22-3.47,3.13-5.32,3.13-4.62,0-6.71-4.41-5.77-9.52ZM86.3,132.38c.49-2.85-.76-4.86-3.47-4.86-2.36,0-4.1,1.81-4.52,4.2-.52,2.92.76,5.04,3.34,5.04,2.4,0,4.2-1.81,4.66-4.38Z"/>
      <path class="cls-1" d="M94.49,131.47c.87-4.9,4.48-8.17,9.28-8.17s7.68,3.86,6.81,9c-.07.38-.14.66-.24,1.04h-11.78c.17,2.15,1.56,3.79,3.54,3.79,1.74,0,3.09-.97,4.03-2.43l3.51,1.77c-1.67,2.92-4.41,4.48-7.78,4.48-4.9,0-8.34-4.2-7.37-9.48ZM106.48,130.33c-.14-1.95-1.29-3.3-3.09-3.3-2.05,0-3.54,1.35-4.31,3.3h7.4Z"/>
      <path class="cls-1" d="M115.86,127.76h-2.43l.66-3.86h2.47l.42-2.33c.8-4.55,3.79-6.71,7.5-6.71.9,0,1.67.07,2.43.31l-.76,3.75c-.52-.14-1.04-.17-1.56-.17-1.53,0-2.85,1.01-3.2,3.02l-.38,2.12h4.27l-.69,3.86h-4.24l-2.22,12.65h-4.48l2.22-12.65Z"/>
      <path class="cls-1" d="M123.95,143.7l4.1-1.25c.49,1.32,1.67,2.47,3.93,2.47s4.31-1.63,4.76-4.13c.21-1.18.42-2.05.66-3.06l-.38-.1c-1.63,2.19-3.34,3.09-5.42,3.09-4.62,0-6.64-4.38-5.77-9.45.73-4.31,3.82-7.71,8.27-7.71,2.29,0,3.79.9,4.86,3.02l.38-.07c.07-.9.17-1.7.35-2.61h4.38l-3.09,17.34c-.87,5.04-5,7.61-9.03,7.61-4.83,0-7.23-2.29-7.99-5.14ZM138.16,132.45c.52-2.85-.76-4.9-3.47-4.9-2.33,0-4.06,1.77-4.48,4.17-.52,2.92.8,5.07,3.34,5.07,2.4,0,4.17-1.81,4.62-4.34Z"/>
      <path class="cls-1" d="M150.35,115.18h4.48l-1.15,6.46c-.42,2.15-.87,3.86-1.08,4.76l.38.1c1.49-2.02,3.13-2.99,4.97-2.99,3.61,0,5.56,2.78,4.79,7.05l-1.74,9.83h-4.45l1.6-9.07c.38-2.33-.45-3.75-2.57-3.75-1.95,0-3.23,1.49-3.58,3.51l-1.63,9.31h-4.48l4.45-25.22Z"/>
      <path class="cls-1" d="M168.59,123.9h4.52l-2.95,16.5h-4.45l2.88-16.5ZM168.97,118.69c.28-1.35,1.42-2.22,2.92-2.22,1.77,0,2.81,1.32,2.5,3.02-.28,1.35-1.42,2.22-2.92,2.22-1.77,0-2.81-1.32-2.5-3.02Z"/>
      <path class="cls-1" d="M177.83,123.9h4.52l-4.38,24.49h-4.45l4.31-24.49ZM178.21,118.69c.28-1.35,1.42-2.22,2.92-2.22,1.77,0,2.81,1.32,2.5,3.02-.28,1.35-1.42,2.22-2.92,2.22-1.77,0-2.81-1.32-2.5-3.02Z"/>
      <path class="cls-1" d="M190.61,132.2l-1.46,8.2h-4.38l4.45-25.26h4.38l-2.74,15.7,6.32-6.95h5.52v.14l-7.57,7.57,5.32,8.69v.1h-5.21l-4.62-8.2Z"/>
      <path class="cls-1" d="M207.67,115.18h4.48l-4.45,25.22h-4.48l4.45-25.22Z"/>
      <path class="cls-1" d="M215.38,123.9h4.34c-.17.9-.35,1.63-.56,2.5l.38.1c1.22-1.95,2.88-2.99,4.9-2.99,2.12,0,3.51,1.15,4.06,3.06h.49c1.22-2.08,3.2-3.06,5.07-3.06,4.07,0,5.21,3.27,4.48,7.3l-1.7,9.59h-4.48l1.63-9.31c.38-2.15-.21-3.51-2.22-3.51-1.74,0-2.88,1.39-3.16,3.13l-1.74,9.69h-4.45l1.63-9.31c.38-2.15-.24-3.51-2.15-3.51-1.7,0-2.95,1.32-3.27,3.13l-1.7,9.69h-4.48l2.92-16.5Z"/>
      <path class="cls-1" d="M244.46,123.9h4.34c-.17.9-.35,1.63-.56,2.5l.38.1c1.49-2.02,3.13-2.99,4.97-2.99,3.61,0,5.56,2.78,4.79,7.05l-1.74,9.83h-4.45l1.6-9.07c.38-2.33-.45-3.75-2.57-3.75-1.95,0-3.23,1.49-3.58,3.51l-1.63,9.31h-4.48l2.92-16.5Z"/>
      <path class="cls-1" d="M261.82,131.4c.87-4.83,4.41-8.1,9.31-8.1,5.28,0,8.51,4.41,7.57,9.55-.83,4.83-4.45,8.1-9.35,8.1-5.25,0-8.48-4.38-7.54-9.55ZM274.33,132.48c.49-2.71-.83-5.14-3.47-5.14s-4.24,1.84-4.69,4.45c-.52,2.71.8,5.18,3.44,5.18s4.27-1.88,4.73-4.48Z"/>
      <path class="cls-1" d="M283.99,123.9h4.38c-.17.94-.35,1.7-.59,2.64l.42.1c1.67-2.22,3.51-3.09,5.32-3.09,4.66,0,6.71,4.41,5.77,9.52-.76,4.31-3.79,7.68-8.23,7.68-2.33,0-3.86-.97-4.86-3.06l-.38.1c-.07.9-.35,3.16-.62,4.76l-1.04,5.84h-4.45l4.31-24.49ZM294.93,132.55c.49-2.88-.76-5-3.37-5-2.4,0-4.17,1.81-4.62,4.34-.49,2.85.76,4.86,3.44,4.86,2.36,0,4.13-1.81,4.55-4.2Z"/>
      <path class="cls-1" d="M312.65,142.7c.35-1.81.59-3.13,1.11-4.93l-.42-.14c-1.63,2.22-3.47,3.13-5.32,3.13-4.62,0-6.71-4.41-5.77-9.52.76-4.34,3.82-7.68,8.27-7.68,2.33,0,3.86.97,4.86,3.02l.38-.07c.07-.9.17-1.67.35-2.61h4.34l-4.34,24.49h-4.48l1.01-5.7ZM314.63,132.38c.49-2.85-.76-4.86-3.47-4.86-2.36,0-4.1,1.81-4.52,4.2-.52,2.92.76,5.04,3.34,5.04,2.4,0,4.2-1.81,4.66-4.38Z"/>
      <path class="cls-1" d="M325.26,123.9h4.34c-.17.94-.35,1.7-.59,2.64l.38.1c1.22-2.08,3.09-2.92,5-2.92.31,0,.59.03.9.1l-.73,4.1h-1.81c-2.43,0-4,1.42-4.45,4l-1.49,8.48h-4.48l2.92-16.5Z"/>
      <path class="cls-1" d="M334.15,137.94l3.2-2.54c.97,1.35,2.29,2.08,3.61,2.08s2.43-.52,2.64-1.6c.21-1.15-1.15-1.67-2.71-2.12-2.4-.76-5.14-2.15-4.55-5.63.52-3.06,3.41-4.76,6.84-4.76,2.12,0,4.1.73,5.49,2.4l-3.02,2.54c-.69-.94-1.7-1.46-2.78-1.46-1.25,0-2.29.52-2.5,1.56s1.01,1.56,2.57,2.02c2.43.76,5.32,2.05,4.69,5.77-.52,2.99-3.61,4.76-7.19,4.76-2.43,0-4.9-1.11-6.29-3.02Z"/>
      <path class="cls-1" d="M353.74,127.76h-2.43l.7-3.86h2.47l.8-4.62h4.48l-.83,4.62h3.72l-.69,3.86h-3.72l-2.22,12.65h-4.48l2.22-12.65Z"/>
      <path class="cls-1" d="M363.71,133.31l1.67-9.42h4.45l-1.74,9.66c-.31,1.91.63,3.41,2.61,3.41,1.77,0,3.06-1.18,3.34-2.95l1.81-10.11h4.45l-1.88,10.56c-.69,4.13-3.93,6.53-8.06,6.53-4.83,0-7.47-3.02-6.64-7.68Z"/>
      <path class="cls-1" d="M382.82,123.97v-.07h4.55l1.95,11.54,6.08-11.54h4.69v.07l-9.38,16.43h-4.41l-3.47-16.43Z"/>
      <path class="cls-1" d="M401.23,123.9h4.38l1.32,10.15,5.25-10.15h3.3l1.7,10.35,4.86-10.35h4.55l-8.37,16.5h-3.75l-1.6-10.32-5.35,10.32h-3.79l-2.5-16.5Z"/>
      <path class="cls-1" d="M424.71,140.23l7.26-8.27-4.1-7.89.03-.17h4.83l2.54,5.11,4.41-5.11h4.62l-.03.17-6.88,7.85,4.38,8.3-.03.17h-4.79l-2.85-5.56-4.79,5.56h-4.62l.04-.17Z"/>
      <path class="cls-1" d="M449.41,140.12l-3.79-16.23h4.66l2.12,11.54,6.11-11.54h4.79l-14.14,24.49h-4.55l4.79-8.27Z"/>
      <path class="cls-1" d="M461.12,140.02l9.62-12.26h-6.53l.69-3.86h13.83l.07.38-9.66,12.23h7.44l-.69,3.89h-14.66l-.1-.38Z"/>
    </g>
  </g>
</svg>