<?xml version="1.0" encoding="UTF-8"?>
<svg id="Layer_2" data-name="Layer 2" xmlns="http://www.w3.org/2000/svg" xmlns:xlink="http://www.w3.org/1999/xlink" viewBox="0 0 1068.17 390.13">
  <defs>
    <style>
      .cls-1 {
        fill: none;
      }

      .cls-2 {
        fill: #0f1b1a;
      }

      .cls-3 {
        fill: #231f20;
      }

      .cls-4 {
        fill: #ee2b74;
      }

      .cls-5 {
        fill: #f1f2f2;
      }

      .cls-6 {
        clip-path: url(#clippath-1);
      }

      .cls-7 {
        clip-path: url(#clippath-3);
      }

      .cls-8 {
        clip-path: url(#clippath-4);
      }

      .cls-9 {
        clip-path: url(#clippath-2);
      }

      .cls-10 {
        fill: #fff;
      }

      .cls-11 {
        fill: #ffcf22;
      }

      .cls-12 {
        clip-path: url(#clippath);
      }

      .cls-13 {
        fill: #f9c9db;
      }
    </style>
    <clipPath id="clippath">
      <rect class="cls-1" y="0" width="1068.17" height="390.13"/>
    </clipPath>
    <clipPath id="clippath-1">
      <rect class="cls-1" y="0" width="1068.17" height="390.13"/>
    </clipPath>
    <clipPath id="clippath-2">
      <rect class="cls-1" y="0" width="1068.17" height="390.13"/>
    </clipPath>
    <clipPath id="clippath-3">
      <rect class="cls-1" y="0" width="1068.17" height="390.13"/>
    </clipPath>
    <clipPath id="clippath-4">
      <rect class="cls-1" y="0" width="1068.17" height="390.13"/>
    </clipPath>
  </defs>
  <g id="Layer_1-2" data-name="Layer 1">
    <rect class="cls-2" y="173.23" width="1068.17" height="216.9" rx="49.13" ry="49.13"/>
    <path class="cls-5" d="M360.19,237.09h2.9v5.8h-2.9v2.9h-11.59v-11.59h11.59v2.9ZM328.31,219.7v57.97h2.9v2.9h14.49v-2.9h2.9v-14.49h20.29v-2.9h5.8v-2.9h2.9v-2.9h2.9v-5.8h2.9v-17.39h-2.9v-5.8h-2.9v-2.9h-2.9v-2.9h-5.8v-2.9h-37.68v2.9h-2.9ZM394.97,234.19v5.8h2.9v23.19h-2.9v5.8h-2.9v2.9h-2.9v2.9h-5.8v2.9h-20.29v14.49h-2.9v2.9h-20.29v-2.9h-2.9v-2.9h-2.9v-2.9h-2.9v-2.9h-2.9v-2.9h-2.9v-63.76h2.9v-2.9h43.47v2.9h5.8v2.9h2.9v2.9h2.9v2.9h2.9v2.9h2.9v2.9h2.9v2.9h2.9Z"/>
    <path class="cls-5" d="M415.26,248.69h2.9v14.49h-2.9v2.9h-5.8v-2.9h-2.9v-14.49h2.9v-2.9h5.8v2.9ZM392.07,237.09h-2.9v5.8h-2.9v26.08h2.9v5.8h2.9v2.9h5.8v2.9h28.98v-2.9h5.8v-2.9h2.9v-5.8h2.9v-26.08h-2.9v-5.8h-2.9v-2.9h-5.8v-2.9h-28.98v2.9h-5.8v2.9ZM450.04,245.79v5.8h2.9v31.88h-2.9v5.8h-2.9v2.9h-5.8v2.9h-34.78v-2.9h-5.8v-2.9h-2.9v-2.9h-2.9v-2.9h-2.9v-2.9h-2.9v-2.9h-2.9v-5.8h-2.9v-31.88h2.9v-5.8h2.9v-2.9h5.8v-2.9h34.78v2.9h5.8v2.9h2.9v2.9h2.9v2.9h2.9v2.9h2.9v2.9h2.9Z"/>
    <path class="cls-5" d="M551.48,245.79h2.9v2.9h-2.9v2.9h-8.69v-5.8h2.9v-2.9h5.8v2.9ZM528.29,239.99h-2.9v5.8h-2.9v23.19h2.9v5.8h2.9v2.9h5.8v2.9h31.88v-2.9h5.8v-11.59h-2.9v-2.9h-5.8v2.9h-17.39v-2.9h-2.9v-2.9h23.19v-2.9h2.9v-2.9h2.9v-14.49h-2.9v-2.9h-2.9v-2.9h-5.8v-2.9h-23.19v2.9h-5.8v2.9h-2.9v2.9ZM586.25,274.77v17.39h-5.8v2.9h-37.68v-2.9h-5.8v-2.9h-2.9v-2.9h-2.9v-2.9h-2.9v-2.9h-2.9v-2.9h-2.9v-5.8h-2.9v-28.98h2.9v-5.8h2.9v-2.9h2.9v-2.9h5.8v-2.9h28.98v2.9h5.8v2.9h2.9v2.9h2.9v2.9h2.9v2.9h2.9v2.9h2.9v2.9h2.9v20.29h-2.9v5.8h2.9Z"/>
    <path class="cls-5" d="M577.56,234.19v43.47h2.9v2.9h14.49v-2.9h2.9v-28.98h2.9v2.9h8.69v-2.9h2.9v-14.49h-2.9v-2.9h-11.59v2.9h-2.9v-2.9h-14.49v2.9h-2.9ZM577.56,231.3v-2.9h34.78v2.9h2.9v2.9h2.9v2.9h2.9v2.9h2.9v2.9h2.9v20.29h-2.9v2.9h-11.59v26.08h-2.9v2.9h-20.29v-2.9h-2.9v-2.9h-2.9v-2.9h-2.9v-2.9h-2.9v-2.9h-2.9v-49.27h2.9Z"/>
    <path class="cls-5" d="M615.23,219.7v46.37h2.9v5.8h2.9v2.9h2.9v2.9h5.8v2.9h26.08v-2.9h5.8v-2.9h2.9v-2.9h2.9v-5.8h2.9v-46.37h-2.9v-2.9h-14.49v2.9h-2.9v40.57h-2.9v2.9h-8.69v-2.9h-2.9v-40.57h-2.9v-2.9h-14.49v2.9h-2.9ZM647.12,225.5v-8.7h2.9v-2.9h20.29v2.9h2.9v2.9h2.9v2.9h2.9v2.9h2.9v2.9h2.9v52.17h-2.9v5.8h-2.9v2.9h-2.9v2.9h-5.8v2.9h-31.88v-2.9h-5.8v-2.9h-2.9v-2.9h-2.9v-2.9h-2.9v-2.9h-2.9v-2.9h-2.9v-2.9h-2.9v-5.8h-2.9v-52.17h2.9v-2.9h20.29v2.9h2.9v2.9h2.9v2.9h2.9v2.9h2.9Z"/>
    <path class="cls-5" d="M705.08,248.69h2.9v14.49h-2.9v2.9h-8.69v-17.39h2.9v-2.9h5.8v2.9ZM676.1,234.19v57.97h2.9v2.9h14.49v-2.9h2.9v-11.59h17.39v-2.9h5.8v-2.9h2.9v-2.9h2.9v-5.8h2.9v-23.19h-2.9v-5.8h-2.9v-2.9h-5.8v-2.9h-20.29v2.9h-2.9v-2.9h-14.49v2.9h-2.9ZM739.86,245.79v5.8h2.9v28.98h-2.9v5.8h-2.9v2.9h-2.9v2.9h-5.8v2.9h-17.39v11.59h-2.9v2.9h-20.29v-2.9h-2.9v-2.9h-2.9v-2.9h-2.9v-2.9h-2.9v-2.9h-2.9v-63.76h2.9v-2.9h43.47v2.9h5.8v2.9h2.9v2.9h2.9v2.9h2.9v2.9h2.9v2.9h2.9Z"/>
    <g class="cls-12">
      <path class="cls-5" d="M448.3,307.44c0-3.54-.9-5.63-2.99-5.63-4.79,0-11.18,10-15.62,23.06-1.39,6.11-.69,10.9,3.61,10.9,2.92,0,4.93-1.94,6.87-4.51,4.72-6.18,8.12-18.75,8.12-23.82M453.65,313.48c0,11.11-9.37,23.33-19.65,23.26-4.03-.07-5.76-2.85-5.69-6.81l-3.47,13.12c-1.18,4.38-1.6,5.69,5.28,5.69l-.21.69h-17.92l.21-.69c4.44-.14,5.21-2.29,7.78-11.94,4.1-15,8.96-28.19,8.96-32.92,0-1.18-.56-1.94-1.74-1.94-3.26,0-6.74,5.28-9.3,12.08l-.63-.28c3.06-7.85,6.39-12.92,11.53-12.92,3.68,0,5.83,2.92,5.83,5.9,0,3.33-3.82,10.83-6.11,18.68h.28c4.65-13.75,11.18-24.65,17.29-24.65,3.96,0,7.57,4.44,7.57,12.71"/>
      <path class="cls-5" d="M490.1,307.16c0,3.68-2.5,7.71-6.32,7.71-1.46,0-2.78-.97-3.12-2.64,3.06-2.01,5.42-5.56,5.42-7.99,0-1.46-.97-2.43-2.64-2.43-5.9,0-11.46,11.46-16.46,27.08l-1.67,7.15-7.01.7c4.1-15,9.37-28.12,9.37-32.85,0-1.25-.56-2.01-1.74-2.01-3.26,0-6.74,5.35-9.31,12.08l-.69-.28c3.13-7.85,6.46-12.92,11.6-12.92,3.47,0,5.76,2.85,5.76,5.83,0,3.96-3.89,11.53-6.32,18.82h.42c5.14-14.72,10.14-24.65,16.67-24.65,3.54,0,6.04,2.5,6.04,6.39"/>
      <path class="cls-5" d="M552.39,323.76c-2.64,6.67-5.9,12.99-11.11,12.99-3.82,0-5.97-2.99-5.97-6.18,0-7.36,8.06-20,8.06-25.28,0-1.94-1.04-3.47-2.92-3.47-5.56,0-13.54,12.78-17.92,27.08l-1.67,7.15-7.01.69c4.1-15,9.37-28.12,9.37-32.85,0-1.25-.56-2.01-1.74-2.01-3.26,0-6.74,5.35-9.3,12.08l-.69-.28c3.12-7.85,6.46-12.92,11.6-12.92,3.61,0,5.83,2.92,5.83,5.9,0,4.51-3.89,11.32-6.25,18.75h.21c4.86-13.96,12.22-24.65,18.33-24.65,4.31,0,7.01,5.21,7.01,8.89,0,5.97-7.29,18.68-7.29,23.89,0,1.25.42,2.08,1.6,2.08,3.12,0,6.67-5.49,9.24-12.15l.63.28Z"/>
      <path class="cls-5" d="M555.37,322.02c.42-8.96,8.96-21.25,20.35-21.25,5.69,0,8.4,3.54,8.4,7.5,0,3.54-2.15,7.01-5.49,7.01-1.32,0-2.71-.9-3.13-2.64,2.85-1.81,5-5.07,5-7.64,0-2.36-2.01-3.4-4.58-3.4-3.47,0-5.83,1.67-8.05,4.86-3.47,5-6.94,18.54-6.94,23.19,0,3.96,1.46,6.18,5,6.18,5.97,0,10.83-5,14.72-12.92l.76.42c-4.72,9.31-9.65,13.4-16.18,13.4s-10.42-5-9.86-14.72"/>
      <path class="cls-5" d="M593.7,319.59c8.82-.56,15.62-6.39,15.62-14.24,0-1.81-.63-3.75-3.47-3.75-2.43,0-4.65,1.67-6.87,4.86-2.01,2.85-3.89,8.19-5.28,13.13M611.2,322.93l.76.42c-4.72,9.31-9.72,13.4-15.55,13.4-6.18,0-10.35-5-9.86-14.72.42-8.96,8.06-21.25,19.44-21.25,4.03,0,8.26,2.15,8.26,7.22,0,6.53-7.57,11.8-20.69,12.36-.97,3.54-1.6,6.87-1.67,8.82-.21,4.24,1.6,6.67,5.42,6.67,4.93,0,9.93-4.58,13.89-12.92"/>
      <path class="cls-5" d="M634.11,333.97c1.74-1.32,3.06-3.4,3.06-5.56,0-3.96-4.03-5.63-9.1-7.57-5-1.94-7.78-3.54-7.78-8.19,0-3.33,2.15-7.22,5.49-9.37,2.71-1.81,5.76-2.5,8.61-2.5,6.53,0,10.14,3.26,10.14,7.08,0,3.06-2.01,6.04-4.72,6.04-1.11,0-2.43-.69-2.78-2.15,2.36-1.39,4.44-4.31,4.44-6.39,0-2.5-3.19-3.82-7.29-3.82-2.57,0-4.93.7-6.87,1.94-2.01,1.25-3.54,3.4-3.54,5.56,0,3.05,3.4,4.44,7.85,6.11,5.42,2.01,10.21,4.03,10.21,9.37,0,4.1-2.5,7.78-6.87,10.21-2.01,1.11-4.93,2.01-8.61,2.01-6.81,0-11.04-3.47-11.04-7.78,0-3.33,2.15-6.53,5.21-6.53,1.18,0,2.57.76,2.99,2.36-2.64,1.46-4.93,4.51-4.93,6.81,0,2.71,3.33,4.38,8.06,4.38,3.06,0,5.62-.7,7.5-2.01"/>
      <path class="cls-5" d="M665.15,333.97c1.74-1.32,3.06-3.4,3.06-5.56,0-3.96-4.03-5.63-9.1-7.57-5-1.94-7.78-3.54-7.78-8.19,0-3.33,2.15-7.22,5.49-9.37,2.71-1.81,5.76-2.5,8.61-2.5,6.53,0,10.14,3.26,10.14,7.08,0,3.06-2.01,6.04-4.72,6.04-1.11,0-2.43-.69-2.78-2.15,2.36-1.39,4.44-4.31,4.44-6.39,0-2.5-3.19-3.82-7.29-3.82-2.57,0-4.93.7-6.87,1.94-2.01,1.25-3.54,3.4-3.54,5.56,0,3.05,3.4,4.44,7.85,6.11,5.42,2.01,10.21,4.03,10.21,9.37,0,4.1-2.5,7.78-6.87,10.21-2.01,1.11-4.93,2.01-8.61,2.01-6.81,0-11.04-3.47-11.04-7.78,0-3.33,2.15-6.53,5.21-6.53,1.18,0,2.57.76,2.99,2.36-2.64,1.46-4.93,4.51-4.93,6.81,0,2.71,3.33,4.38,8.06,4.38,3.06,0,5.62-.7,7.5-2.01"/>
      <path class="cls-10" d="M511.44,274.32h-.01c-.49,0-.96.12-1.38.33-.35.18-.67.42-.94.73-.18.21-.34.44-.46.69l-3.72,7.3-2.97-3.92c-.6-.79-1.52-1.23-2.48-1.23-.32,0-.65.05-.97.16-1.26.42-2.12,1.59-2.14,2.92-.04,3.1.23,6.21.78,9.25.41,2.25.99,4.49,1.71,6.66.43,1.28,1.62,2.12,2.95,2.12.12,0,.24,0,.36-.02.18-.02.36-.03.54-.03.61,0,1.52.12,2.39.66,1.8,1.13,2.07,3.28,2.09,3.52.12,1.17.88,2.16,1.98,2.58.36.14.74.21,1.11.21.76,0,1.5-.28,2.09-.8,2.63-2.38,4.88-5.12,6.71-8.15,1.88-3.13,3.27-6.51,4.13-10.06.28-1.16-.13-2.38-1.05-3.13-.57-.47-1.27-.71-1.97-.71-.44,0-.89.09-1.31.29l-4.45,2.06.15-8.23c.03-1.46-.95-2.71-2.32-3.07-.27-.07-.54-.11-.81-.11M511.44,277.43l-.31.98.26-.8.05-.19-.02.09.03-.09-.05.19-.35,2.03.41-2.21-.24,13.2,8.96-4.14c-.57,2.35-1.64,5.65-3.77,9.19-2.06,3.42-4.37,5.86-6.13,7.45-.05-.45-.46-3.9-3.53-5.83-1.51-.95-3.05-1.14-4.05-1.14-.39,0-.7.03-.9.05-.6-1.8-1.18-3.89-1.6-6.23-.6-3.27-.76-6.21-.73-8.65l5.97,7.88,6-11.77Z"/>
      <path class="cls-5" d="M519.6,257.38h-2.9v5.8h-2.9v5.8h-2.9v5.8h-2.9v2.9h-2.9v2.9h-17.39v-2.9h-2.9v-8.69h-2.9v-8.7h-2.9v8.7h-2.9v8.69h-2.9v2.9h-17.39v-2.9h-2.9v-2.9h-2.9v-5.8h-2.9v-5.8h-2.9v-5.8h-2.9v-23.19h2.9v-2.9h14.49v2.9h2.9v14.49h2.9v11.59h2.9v-11.59h2.9v-14.49h2.9v-2.9h14.49v2.9h2.9v14.49h2.9v11.59h2.9v-11.59h2.9v-14.49h2.9v-2.9h14.49v2.9h2.9v23.19ZM531.19,242.89v-2.9h-2.9v-2.9h-2.9v-2.9h-2.9v-2.9h-2.9v-2.9h-20.29v2.9h-2.9v2.9h-2.9v-2.9h-2.9v-2.9h-20.29v2.9h-2.9v2.9h-2.9v-2.9h-2.9v-2.9h-20.29v2.9h-2.9v28.98h2.9v5.8h2.9v5.8h2.9v5.8h2.9v2.9h2.9v2.9h2.9v2.9h2.9v2.9h2.9v2.9h2.9v2.9h23.19v-2.9h2.9v-2.9h2.9v2.9h2.9v2.9h5.15c-.44-1.47-.85-3.11-1.18-4.89-.6-3.27-.76-6.21-.73-8.65l5.97,7.88,6-11.77-.02.09.03-.09-.05.19-.35,2.03.41-2.21-.24,13.2,8.96-4.14c-.52,2.17-1.49,5.15-3.31,8.38h2.55v-2.9h2.9v-2.9h2.9v-5.8h2.9v-5.8h2.9v-5.8h2.9v-28.98h-2.9Z"/>
    </g>
    <polygon class="cls-5" points="511.31 278.6 511.57 277.8 511.62 277.62 511.31 278.6"/>
    <g class="cls-6">
      <path class="cls-5" d="M500.1,335.63c-1.18,0-1.67-.83-1.67-2.08,0-5.55,7.99-20.35,7.99-27.5,0-2.99-2.36-5.28-6.04-5.28-5.14,0-8.47,5.07-11.53,12.92l.63.28c2.57-6.74,6.04-12.08,9.31-12.08,1.18,0,1.87.76,1.87,2.01,0,5.9-7.71,19.58-7.71,26.39,0,3.13,2.08,6.46,5.9,6.46,5.21,0,8.47-6.32,11.11-12.99l-.69-.28c-2.5,6.67-6.11,12.15-9.17,12.15"/>
    </g>
    <path class="cls-3" d="M645.09,20.29v11.59h11.59v-2.9h2.9v-5.8h-2.9v-2.9h-11.59ZM624.8,5.8h2.9v-2.9h37.68v2.9h5.8v2.9h2.9v2.9h2.9v5.8h2.9v17.39h-2.9v5.8h-2.9v2.9h-2.9v2.9h-5.8v2.9h-20.29v14.49h-2.9v2.9h-14.49v-2.9h-2.9V5.8ZM624.8,0v2.9h-2.9v63.76h2.9v2.9h2.9v2.9h2.9v2.9h2.9v2.9h2.9v2.9h20.29v-2.9h2.9v-14.49h20.29v-2.9h5.8v-2.9h2.9v-2.9h2.9v-5.8h2.9v-23.19h-2.9v-5.8h-2.9v-2.9h-2.9v-2.9h-2.9v-2.9h-2.9v-2.9h-2.9v-2.9h-2.9v-2.9h-5.8V0h-43.47Z"/>
    <path class="cls-3" d="M711.75,34.78h2.9v14.49h-2.9v2.9h-5.8v-2.9h-2.9v-14.49h2.9v-2.9h5.8v2.9ZM688.56,23.19h-2.9v5.8h-2.9v26.08h2.9v5.8h2.9v2.9h5.8v2.9h28.98v-2.9h5.8v-2.9h2.9v-5.8h2.9v-26.08h-2.9v-5.8h-2.9v-2.9h-5.8v-2.9h-28.98v2.9h-5.8v2.9ZM746.53,31.88v5.8h2.9v31.88h-2.9v5.8h-2.9v2.9h-5.8v2.9h-34.78v-2.9h-5.8v-2.9h-2.9v-2.9h-2.9v-2.9h-2.9v-2.9h-2.9v-2.9h-2.9v-5.8h-2.9v-31.88h2.9v-5.8h2.9v-2.9h5.8v-2.9h34.78v2.9h5.8v2.9h2.9v2.9h2.9v2.9h2.9v2.9h2.9v2.9h2.9Z"/>
    <path class="cls-3" d="M847.96,31.88h2.9v2.9h-2.9v2.9h-8.69v-5.8h2.9v-2.9h5.8v2.9ZM824.78,26.08h-2.9v5.8h-2.9v23.19h2.9v5.8h2.9v2.9h5.8v2.9h31.88v-2.9h5.8v-11.59h-2.9v-2.9h-5.8v2.9h-17.39v-2.9h-2.9v-2.9h23.19v-2.9h2.9v-2.9h2.9v-14.49h-2.9v-2.9h-2.9v-2.9h-5.8v-2.9h-23.19v2.9h-5.8v2.9h-2.9v2.9ZM882.74,60.86v17.39h-5.8v2.9h-37.68v-2.9h-5.8v-2.9h-2.9v-2.9h-2.9v-2.9h-2.9v-2.9h-2.9v-2.9h-2.9v-5.8h-2.9v-28.98h2.9v-5.8h2.9v-2.9h2.9v-2.9h5.8v-2.9h28.98v2.9h5.8v2.9h2.9v2.9h2.9v2.9h2.9v2.9h2.9v2.9h2.9v2.9h2.9v20.29h-2.9v5.8h2.9Z"/>
    <path class="cls-3" d="M874.05,20.29v43.47h2.9v2.9h14.49v-2.9h2.9v-28.98h2.9v2.9h8.69v-2.9h2.9v-14.49h-2.9v-2.9h-11.59v2.9h-2.9v-2.9h-14.49v2.9h-2.9ZM874.05,17.39v-2.9h34.78v2.9h2.9v2.9h2.9v2.9h2.9v2.9h2.9v2.9h2.9v20.29h-2.9v2.9h-11.59v26.08h-2.9v2.9h-20.29v-2.9h-2.9v-2.9h-2.9v-2.9h-2.9v-2.9h-2.9v-2.9h-2.9V17.39h2.9Z"/>
    <path class="cls-3" d="M943.6,49.27v-2.9h2.9V5.8h2.9v-2.9h14.49v2.9h2.9v46.37h-2.9v5.8h-2.9v2.9h-2.9v2.9h-5.8v2.9h-26.08v-2.9h-5.8v-2.9h-2.9v-2.9h-2.9v-5.8h-2.9V5.8h2.9v-2.9h14.49v2.9h2.9v40.57h2.9v2.9h8.69ZM946.5,0v2.9h-2.9v8.69h-2.9v-2.9h-2.9v-2.9h-2.9v-2.9h-2.9V0h-20.29v2.9h-2.9v52.17h2.9v5.8h2.9v2.9h2.9v2.9h2.9v2.9h2.9v2.9h2.9v2.9h2.9v2.9h5.8v2.9h31.88v-2.9h5.8v-2.9h2.9v-2.9h2.9v-5.8h2.9V14.49h-2.9v-2.9h-2.9v-2.9h-2.9v-2.9h-2.9v-2.9h-2.9V0h-20.29Z"/>
    <path class="cls-3" d="M1001.57,34.78h2.9v14.49h-2.9v2.9h-8.69v-17.39h2.9v-2.9h5.8v2.9ZM972.58,20.29v57.97h2.9v2.9h14.49v-2.9h2.9v-11.59h17.39v-2.9h5.8v-2.9h2.9v-2.9h2.9v-5.8h2.9v-23.19h-2.9v-5.8h-2.9v-2.9h-5.8v-2.9h-20.29v2.9h-2.9v-2.9h-14.49v2.9h-2.9ZM1036.35,31.88v5.8h2.9v28.98h-2.9v5.8h-2.9v2.9h-2.9v2.9h-5.8v2.9h-17.39v11.59h-2.9v2.9h-20.29v-2.9h-2.9v-2.9h-2.9v-2.9h-2.9v-2.9h-2.9v-2.9h-2.9V17.39h2.9v-2.9h43.47v2.9h5.8v2.9h2.9v2.9h2.9v2.9h2.9v2.9h2.9v2.9h2.9Z"/>
    <g class="cls-9">
      <path class="cls-3" d="M744.79,93.53c0-3.54-.9-5.63-2.99-5.63-4.79,0-11.18,10-15.62,23.06-1.39,6.11-.69,10.9,3.61,10.9,2.92,0,4.93-1.94,6.87-4.51,4.72-6.18,8.12-18.75,8.12-23.82M750.13,99.58c0,11.11-9.37,23.33-19.65,23.26-4.03-.07-5.76-2.85-5.69-6.81l-3.47,13.12c-1.18,4.38-1.6,5.69,5.28,5.69l-.21.69h-17.92l.21-.69c4.44-.14,5.21-2.29,7.78-11.94,4.1-15,8.96-28.19,8.96-32.92,0-1.18-.56-1.94-1.74-1.94-3.26,0-6.74,5.28-9.3,12.08l-.63-.28c3.06-7.85,6.39-12.92,11.53-12.92,3.68,0,5.83,2.92,5.83,5.9,0,3.33-3.82,10.83-6.11,18.68h.28c4.65-13.75,11.18-24.65,17.29-24.65,3.96,0,7.57,4.44,7.57,12.71"/>
      <path class="cls-3" d="M786.59,93.26c0,3.68-2.5,7.71-6.32,7.71-1.46,0-2.78-.97-3.12-2.64,3.06-2.01,5.42-5.56,5.42-7.99,0-1.46-.97-2.43-2.64-2.43-5.9,0-11.46,11.46-16.46,27.08l-1.67,7.15-7.01.7c4.1-15,9.37-28.12,9.37-32.85,0-1.25-.56-2.01-1.74-2.01-3.26,0-6.74,5.35-9.31,12.08l-.69-.28c3.13-7.85,6.46-12.92,11.6-12.92,3.47,0,5.76,2.85,5.76,5.83,0,3.96-3.89,11.53-6.32,18.82h.42c5.14-14.72,10.14-24.65,16.67-24.65,3.54,0,6.04,2.5,6.04,6.39"/>
      <path class="cls-3" d="M848.87,109.85c-2.64,6.67-5.9,12.99-11.11,12.99-3.82,0-5.97-2.99-5.97-6.18,0-7.36,8.06-20,8.06-25.28,0-1.94-1.04-3.47-2.92-3.47-5.56,0-13.54,12.78-17.92,27.08l-1.67,7.15-7.01.69c4.1-15,9.37-28.12,9.37-32.85,0-1.25-.56-2.01-1.74-2.01-3.26,0-6.74,5.35-9.3,12.08l-.69-.28c3.12-7.85,6.46-12.92,11.6-12.92,3.61,0,5.83,2.92,5.83,5.9,0,4.51-3.89,11.32-6.25,18.75h.21c4.86-13.96,12.22-24.65,18.33-24.65,4.31,0,7.01,5.21,7.01,8.89,0,5.97-7.29,18.68-7.29,23.89,0,1.25.42,2.08,1.6,2.08,3.12,0,6.67-5.49,9.24-12.15l.63.28Z"/>
      <path class="cls-3" d="M851.86,108.12c.42-8.96,8.96-21.25,20.35-21.25,5.69,0,8.4,3.54,8.4,7.5,0,3.54-2.15,7.01-5.49,7.01-1.32,0-2.71-.9-3.13-2.64,2.85-1.81,5-5.07,5-7.64,0-2.36-2.01-3.4-4.58-3.4-3.47,0-5.83,1.67-8.05,4.86-3.47,5-6.94,18.54-6.94,23.19,0,3.96,1.46,6.18,5,6.18,5.97,0,10.83-5,14.72-12.92l.76.42c-4.72,9.31-9.65,13.4-16.18,13.4s-10.42-5-9.86-14.72"/>
      <path class="cls-3" d="M890.19,105.69c8.82-.56,15.62-6.39,15.62-14.24,0-1.81-.63-3.75-3.47-3.75-2.43,0-4.65,1.67-6.87,4.86-2.01,2.85-3.89,8.19-5.28,13.13M907.69,109.02l.76.42c-4.72,9.31-9.72,13.4-15.55,13.4-6.18,0-10.35-5-9.86-14.72.42-8.96,8.06-21.25,19.44-21.25,4.03,0,8.26,2.15,8.26,7.22,0,6.53-7.57,11.8-20.69,12.36-.97,3.54-1.6,6.87-1.67,8.82-.21,4.24,1.6,6.67,5.42,6.67,4.93,0,9.93-4.58,13.89-12.92"/>
      <path class="cls-3" d="M930.6,120.06c1.74-1.32,3.06-3.4,3.06-5.56,0-3.96-4.03-5.63-9.1-7.57-5-1.94-7.78-3.54-7.78-8.19,0-3.33,2.15-7.22,5.49-9.37,2.71-1.81,5.76-2.5,8.61-2.5,6.53,0,10.14,3.26,10.14,7.08,0,3.06-2.01,6.04-4.72,6.04-1.11,0-2.43-.69-2.78-2.15,2.36-1.39,4.44-4.31,4.44-6.39,0-2.5-3.19-3.82-7.29-3.82-2.57,0-4.93.69-6.87,1.94-2.01,1.25-3.54,3.4-3.54,5.56,0,3.05,3.4,4.44,7.85,6.11,5.42,2.01,10.21,4.03,10.21,9.37,0,4.1-2.5,7.78-6.87,10.21-2.01,1.11-4.93,2.01-8.61,2.01-6.81,0-11.04-3.47-11.04-7.78,0-3.33,2.15-6.53,5.21-6.53,1.18,0,2.57.76,2.99,2.36-2.64,1.46-4.93,4.51-4.93,6.81,0,2.71,3.33,4.38,8.06,4.38,3.06,0,5.62-.7,7.5-2.01"/>
      <path class="cls-3" d="M961.64,120.06c1.74-1.32,3.06-3.4,3.06-5.56,0-3.96-4.03-5.63-9.1-7.57-5-1.94-7.78-3.54-7.78-8.19,0-3.33,2.15-7.22,5.49-9.37,2.71-1.81,5.76-2.5,8.61-2.5,6.53,0,10.14,3.26,10.14,7.08,0,3.06-2.01,6.04-4.72,6.04-1.11,0-2.43-.69-2.78-2.15,2.36-1.39,4.44-4.31,4.44-6.39,0-2.5-3.19-3.82-7.29-3.82-2.57,0-4.93.69-6.87,1.94-2.01,1.25-3.54,3.4-3.54,5.56,0,3.05,3.4,4.44,7.85,6.11,5.42,2.01,10.21,4.03,10.21,9.37,0,4.1-2.5,7.78-6.87,10.21-2.01,1.11-4.93,2.01-8.61,2.01-6.81,0-11.04-3.47-11.04-7.78,0-3.33,2.15-6.53,5.21-6.53,1.18,0,2.57.76,2.99,2.36-2.64,1.46-4.93,4.51-4.93,6.81,0,2.71,3.33,4.38,8.06,4.38,3.06,0,5.62-.7,7.5-2.01"/>
      <path class="cls-3" d="M807.93,60.42s-.01,0-.02,0c-.48,0-.95.12-1.36.32-.36.18-.69.43-.96.74-.18.2-.33.43-.45.69l-3.72,7.3-2.97-3.92c-.6-.79-1.52-1.23-2.48-1.23-.32,0-.65.05-.97.16-1.26.42-2.12,1.59-2.14,2.92-.04,3.1.23,6.21.78,9.25.41,2.25.99,4.49,1.71,6.66.43,1.28,1.62,2.12,2.95,2.12.12,0,.24,0,.36-.02.18-.02.36-.03.54-.03.61,0,1.52.12,2.39.66,1.8,1.13,2.07,3.28,2.09,3.52.12,1.17.88,2.16,1.98,2.58.36.14.74.21,1.11.21.76,0,1.5-.28,2.09-.8,2.63-2.38,4.88-5.12,6.71-8.15,1.88-3.13,3.27-6.51,4.12-10.06.28-1.16-.13-2.38-1.05-3.14-.57-.47-1.27-.71-1.97-.71-.44,0-.89.09-1.31.29l-4.45,2.06.15-8.23c.03-1.46-.96-2.71-2.33-3.07-.27-.07-.54-.11-.81-.11M807.93,63.53l-.31.98.26-.8.05-.19-.02.09.03-.09-.05.19-.35,2.03.41-2.21-.24,13.2,8.96-4.14c-.57,2.35-1.64,5.64-3.77,9.19-2.06,3.42-4.37,5.86-6.13,7.45-.05-.45-.46-3.9-3.53-5.83-1.51-.95-3.05-1.14-4.05-1.14-.39,0-.7.03-.9.05-.6-1.8-1.18-3.89-1.6-6.23-.6-3.27-.76-6.21-.73-8.65l5.97,7.88,6-11.77Z"/>
      <path class="cls-3" d="M816.08,43.47h-2.9v5.8h-2.9v5.8h-2.9v5.8h-2.9v2.9h-2.9v2.9h-17.39v-2.9h-2.9v-8.69h-2.9v-8.7h-2.9v8.7h-2.9v8.69h-2.9v2.9h-17.39v-2.9h-2.9v-2.9h-2.9v-5.8h-2.9v-5.8h-2.9v-5.8h-2.9v-23.19h2.9v-2.9h14.49v2.9h2.9v14.49h2.9v11.59h2.9v-11.59h2.9v-14.49h2.9v-2.9h14.49v2.9h2.9v14.49h2.9v11.59h2.9v-11.59h2.9v-14.49h2.9v-2.9h14.49v2.9h2.9v23.19ZM827.68,28.98v-2.9h-2.9v-2.9h-2.9v-2.9h-2.9v-2.9h-2.9v-2.9h-20.29v2.9h-2.9v2.9h-2.9v-2.9h-2.9v-2.9h-20.29v2.9h-2.9v2.9h-2.9v-2.9h-2.9v-2.9h-20.29v2.9h-2.9v28.98h2.9v5.8h2.9v5.8h2.9v5.8h2.9v2.9h2.9v2.9h2.9v2.9h2.9v2.9h2.9v2.9h2.9v2.9h23.19v-2.9h2.9v-2.9h2.9v2.9h2.9v2.9h5.15c-.44-1.47-.85-3.11-1.18-4.89-.6-3.27-.76-6.21-.73-8.65l5.97,7.88,6-11.77-.02.09.03-.09-.05.19-.35,2.03.41-2.21-.24,13.2,8.96-4.14c-.52,2.17-1.49,5.15-3.31,8.38h2.55v-2.9h2.9v-2.9h2.9v-5.8h2.9v-5.8h2.9v-5.8h2.9v-28.98h-2.9Z"/>
    </g>
    <polygon class="cls-3" points="807.79 64.69 808.06 63.9 808.1 63.71 807.79 64.69"/>
    <g class="cls-7">
      <path class="cls-3" d="M796.59,121.73c-1.18,0-1.67-.83-1.67-2.08,0-5.55,7.99-20.35,7.99-27.5,0-2.99-2.36-5.28-6.04-5.28-5.14,0-8.47,5.07-11.53,12.92l.63.28c2.57-6.74,6.04-12.08,9.31-12.08,1.18,0,1.87.76,1.87,2.01,0,5.9-7.71,19.58-7.71,26.39,0,3.13,2.08,6.46,5.9,6.46,5.21,0,8.47-6.32,11.11-12.99l-.69-.28c-2.5,6.67-6.11,12.15-9.17,12.15"/>
      <g>
        <path class="cls-13" d="M35.01,5.8v-2.9h37.68v2.9h5.8v2.9h2.9v2.9h2.9v5.8h2.9v17.39h-2.9v5.8h-2.9v2.9h-2.9v2.9h-5.8v2.9h-20.29v14.49h-2.9v2.9h-14.49v-2.9h-2.9V5.8h2.9ZM64,20.29h-11.59v11.59h11.59v-2.9h2.9v-5.8h-2.9v-2.9Z"/>
        <path class="cls-13" d="M95.87,20.29h5.8v-2.9h28.98v2.9h5.8v2.9h2.9v5.8h2.9v26.08h-2.9v5.8h-2.9v2.9h-5.8v2.9h-28.98v-2.9h-5.8v-2.9h-2.9v-5.8h-2.9v-26.08h2.9v-5.8h2.9v-2.9ZM119.06,31.88h-5.8v2.9h-2.9v14.49h2.9v2.9h5.8v-2.9h2.9v-14.49h-2.9v-2.9Z"/>
        <path class="cls-13" d="M148.04,20.29v-2.9h14.49v2.9h2.9v14.49h2.9v11.59h2.9v-11.59h2.9v-14.49h2.9v-2.9h14.49v2.9h2.9v14.49h2.9v11.59h2.9v-11.59h2.9v-14.49h2.9v-2.9h14.49v2.9h2.9v23.19h-2.9v5.8h-2.9v5.8h-2.9v5.8h-2.9v2.9h-2.9v2.9h-17.39v-2.9h-2.9v-8.69h-2.9v-8.7h-2.9v8.7h-2.9v8.69h-2.9v2.9h-17.39v-2.9h-2.9v-2.9h-2.9v-5.8h-2.9v-5.8h-2.9v-5.8h-2.9v-23.19h2.9Z"/>
        <path class="cls-13" d="M232.09,23.19h2.9v-2.9h5.8v-2.9h23.19v2.9h5.8v2.9h2.9v2.9h2.9v14.49h-2.9v2.9h-2.9v2.9h-23.19v2.9h2.9v2.9h17.39v-2.9h5.8v2.9h2.9v11.59h-5.8v2.9h-31.88v-2.9h-5.8v-2.9h-2.9v-5.8h-2.9v-23.19h2.9v-5.8h2.9v-2.9ZM255.28,28.98h-5.8v2.9h-2.9v5.8h8.7v-2.9h2.9v-2.9h-2.9v-2.9Z"/>
        <path class="cls-13" d="M284.26,20.29v-2.9h14.49v2.9h2.9v-2.9h11.59v2.9h2.9v14.49h-2.9v2.9h-8.69v-2.9h-2.9v28.98h-2.9v2.9h-14.49v-2.9h-2.9V20.29h2.9Z"/>
        <path class="cls-13" d="M321.93,5.8v-2.9h14.49v2.9h2.9v40.58h2.9v2.9h8.69v-2.9h2.9V5.8h2.9v-2.9h14.49v2.9h2.9v46.37h-2.9v5.8h-2.9v2.9h-2.9v2.9h-5.8v2.9h-26.08v-2.9h-5.8v-2.9h-2.9v-2.9h-2.9v-5.8h-2.9V5.8h2.9Z"/>
        <path class="cls-13" d="M382.79,20.29v-2.9h14.49v2.9h2.9v-2.9h20.29v2.9h5.8v2.9h2.9v5.8h2.9v23.19h-2.9v5.8h-2.9v2.9h-2.9v2.9h-5.8v2.9h-17.39v11.59h-2.9v2.9h-14.49v-2.9h-2.9V20.29h2.9ZM408.88,31.88h-5.8v2.9h-2.9v17.39h8.7v-2.9h2.9v-14.49h-2.9v-2.9Z"/>
      </g>
      <path class="cls-4" d="M98.45,20.29v5.8h2.9v23.19h-2.9v5.8h-2.9v2.9h-2.9v2.9h-5.8v2.9h-20.29v14.49h-2.9v2.9h-20.29v-2.9h-2.9v-2.9h-2.9v-2.9h-2.9v-2.9h-2.9v-2.9h-2.9V2.9h2.9V0h43.47v2.9h5.8v2.9h2.9v2.9h2.9v2.9h2.9v2.9h2.9v2.9h2.9v2.9h2.9ZM31.79,5.8v57.97h2.9v2.9h14.49v-2.9h2.9v-14.49h20.29v-2.9h5.8v-2.9h2.9v-2.9h2.9v-5.8h2.9v-17.39h-2.9v-5.8h-2.9v-2.9h-2.9v-2.9h-5.8v-2.9h-37.68v2.9h-2.9ZM63.67,23.19h2.9v5.8h-2.9v2.9h-11.59v-11.59h11.59v2.9Z"/>
      <g>
        <path class="cls-4" d="M153.52,31.88v5.8h2.9v31.88h-2.9v5.8h-2.9v2.9h-5.8v2.9h-34.78v-2.9h-5.8v-2.9h-2.9v-2.9h-2.9v-2.9h-2.9v-2.9h-2.9v-2.9h-2.9v-5.8h-2.9v-31.88h2.9v-5.8h2.9v-2.9h5.8v-2.9h34.78v2.9h5.8v2.9h2.9v2.9h2.9v2.9h2.9v2.9h2.9v2.9h2.9ZM95.55,23.19h-2.9v5.8h-2.9v26.08h2.9v5.8h2.9v2.9h5.8v2.9h28.98v-2.9h5.8v-2.9h2.9v-5.8h2.9v-26.08h-2.9v-5.8h-2.9v-2.9h-5.8v-2.9h-28.98v2.9h-5.8v2.9ZM118.74,34.78h2.9v14.49h-2.9v2.9h-5.8v-2.9h-2.9v-14.49h2.9v-2.9h5.8v2.9Z"/>
        <path class="cls-4" d="M144.82,17.39v-2.9h20.29v2.9h2.9v2.9h2.9v-2.9h2.9v-2.9h20.29v2.9h2.9v2.9h2.9v-2.9h2.9v-2.9h20.29v2.9h2.9v2.9h2.9v2.9h2.9v2.9h2.9v2.9h2.9v28.98h-2.9v5.8h-2.9v5.8h-2.9v5.8h-2.9v2.9h-2.9v2.9h-23.19v-2.9h-2.9v-2.9h-2.9v2.9h-2.9v2.9h-23.19v-2.9h-2.9v-2.9h-2.9v-2.9h-2.9v-2.9h-2.9v-2.9h-2.9v-2.9h-2.9v-5.8h-2.9v-5.8h-2.9v-5.8h-2.9v-28.98h2.9ZM144.82,20.29v23.19h2.9v5.8h2.9v5.8h2.9v5.8h2.9v2.9h2.9v2.9h17.39v-2.9h2.9v-8.69h2.9v-8.7h2.9v8.7h2.9v8.69h2.9v2.9h17.39v-2.9h2.9v-2.9h2.9v-5.8h2.9v-5.8h2.9v-5.8h2.9v-23.19h-2.9v-2.9h-14.49v2.9h-2.9v14.49h-2.9v11.59h-2.9v-11.59h-2.9v-14.49h-2.9v-2.9h-14.49v2.9h-2.9v14.49h-2.9v11.59h-2.9v-11.59h-2.9v-14.49h-2.9v-2.9h-14.49v2.9h-2.9Z"/>
        <path class="cls-4" d="M289.74,60.86v17.39h-5.8v2.9h-37.68v-2.9h-5.8v-2.9h-2.9v-2.9h-2.9v-2.9h-2.9v-2.9h-2.9v-2.9h-2.9v-5.8h-2.9v-28.98h2.9v-5.8h2.9v-2.9h2.9v-2.9h5.8v-2.9h28.98v2.9h5.8v2.9h2.9v2.9h2.9v2.9h2.9v2.9h2.9v2.9h2.9v2.9h2.9v20.29h-2.9v5.8h2.9ZM231.77,26.08h-2.9v5.8h-2.9v23.19h2.9v5.8h2.9v2.9h5.8v2.9h31.88v-2.9h5.8v-11.59h-2.9v-2.9h-5.8v2.9h-17.39v-2.9h-2.9v-2.9h23.19v-2.9h2.9v-2.9h2.9v-14.49h-2.9v-2.9h-2.9v-2.9h-5.8v-2.9h-23.19v2.9h-5.8v2.9h-2.9v2.9ZM254.96,31.88h2.9v2.9h-2.9v2.9h-8.7v-5.8h2.9v-2.9h5.8v2.9Z"/>
        <path class="cls-4" d="M281.04,17.39v-2.9h34.78v2.9h2.9v2.9h2.9v2.9h2.9v2.9h2.9v2.9h2.9v20.29h-2.9v2.9h-11.59v26.08h-2.9v2.9h-20.29v-2.9h-2.9v-2.9h-2.9v-2.9h-2.9v-2.9h-2.9v-2.9h-2.9V17.39h2.9ZM281.04,20.29v43.47h2.9v2.9h14.49v-2.9h2.9v-28.98h2.9v2.9h8.69v-2.9h2.9v-14.49h-2.9v-2.9h-11.59v2.9h-2.9v-2.9h-14.49v2.9h-2.9Z"/>
        <path class="cls-4" d="M350.6,11.59V2.9h2.9V0h20.29v2.9h2.9v2.9h2.9v2.9h2.9v2.9h2.9v2.9h2.9v52.17h-2.9v5.8h-2.9v2.9h-2.9v2.9h-5.8v2.9h-31.88v-2.9h-5.8v-2.9h-2.9v-2.9h-2.9v-2.9h-2.9v-2.9h-2.9v-2.9h-2.9v-2.9h-2.9v-5.8h-2.9V2.9h2.9V0h20.29v2.9h2.9v2.9h2.9v2.9h2.9v2.9h2.9ZM318.71,5.8v46.37h2.9v5.8h2.9v2.9h2.9v2.9h5.8v2.9h26.08v-2.9h5.8v-2.9h2.9v-2.9h2.9v-5.8h2.9V5.8h-2.9v-2.9h-14.49v2.9h-2.9v40.58h-2.9v2.9h-8.69v-2.9h-2.9V5.8h-2.9v-2.9h-14.49v2.9h-2.9Z"/>
        <path class="cls-4" d="M443.34,31.88v5.8h2.9v28.98h-2.9v5.8h-2.9v2.9h-2.9v2.9h-5.8v2.9h-17.39v11.59h-2.9v2.9h-20.29v-2.9h-2.9v-2.9h-2.9v-2.9h-2.9v-2.9h-2.9v-2.9h-2.9V17.39h2.9v-2.9h43.47v2.9h5.8v2.9h2.9v2.9h2.9v2.9h2.9v2.9h2.9v2.9h2.9ZM379.58,20.29v57.97h2.9v2.9h14.49v-2.9h2.9v-11.59h17.39v-2.9h5.8v-2.9h2.9v-2.9h2.9v-5.8h2.9v-23.19h-2.9v-5.8h-2.9v-2.9h-5.8v-2.9h-20.29v2.9h-2.9v-2.9h-14.49v2.9h-2.9ZM408.56,34.78h2.9v14.49h-2.9v2.9h-8.7v-17.39h2.9v-2.9h5.8v2.9Z"/>
      </g>
    </g>
    <g>
      <path class="cls-4" d="M157.16,99.58c0,11.11-9.37,23.33-19.65,23.26-4.03-.07-5.76-2.85-5.69-6.81l-3.47,13.12c-1.18,4.38-1.6,5.69,5.28,5.69l-.21.69h-17.92l.21-.69c4.44-.14,5.21-2.29,7.78-11.94,4.1-15,8.96-28.19,8.96-32.92,0-1.18-.56-1.94-1.74-1.94-3.26,0-6.74,5.28-9.31,12.08l-.62-.28c3.06-7.85,6.39-12.92,11.53-12.92,3.68,0,5.83,2.92,5.83,5.9,0,3.33-3.82,10.83-6.11,18.68h.28c4.65-13.75,11.18-24.65,17.29-24.65,3.96,0,7.57,4.44,7.57,12.71ZM151.81,93.53c0-3.54-.9-5.62-2.99-5.62-4.79,0-11.18,10-15.62,23.06-1.39,6.11-.69,10.9,3.61,10.9,2.92,0,4.93-1.94,6.88-4.51,4.72-6.18,8.12-18.75,8.12-23.82Z"/>
      <path class="cls-4" d="M193.61,93.26c0,3.68-2.5,7.71-6.32,7.71-1.46,0-2.78-.97-3.12-2.64,3.06-2.01,5.42-5.56,5.42-7.99,0-1.46-.97-2.43-2.64-2.43-5.9,0-11.46,11.46-16.46,27.08l-1.67,7.15-7.01.69c4.1-15,9.38-28.12,9.38-32.85,0-1.25-.56-2.01-1.74-2.01-3.26,0-6.74,5.35-9.31,12.08l-.69-.28c3.12-7.85,6.46-12.92,11.6-12.92,3.47,0,5.76,2.85,5.76,5.83,0,3.96-3.89,11.53-6.32,18.82h.42c5.14-14.72,10.14-24.65,16.67-24.65,3.54,0,6.04,2.5,6.04,6.39Z"/>
      <path class="cls-4" d="M201.6,119.65c0,1.25.49,2.08,1.67,2.08,3.06,0,6.67-5.49,9.17-12.15l.69.28c-2.64,6.67-5.9,12.99-11.11,12.99-3.82,0-5.9-3.33-5.9-6.46,0-6.81,7.71-20.49,7.71-26.39,0-1.25-.69-2.01-1.88-2.01-3.26,0-6.74,5.35-9.31,12.08l-.62-.28c3.06-7.85,6.39-12.92,11.53-12.92,3.68,0,6.04,2.29,6.04,5.28,0,7.15-7.99,21.94-7.99,27.5ZM206.46,76.66c0-2.64,1.88-4.72,4.31-4.72,2.57,0,4.44,2.08,4.44,4.72s-1.88,4.72-4.44,4.72c-2.43,0-4.31-2.08-4.31-4.72Z"/>
      <path class="cls-4" d="M255.55,109.85c-2.64,6.67-5.9,12.99-11.11,12.99-3.82,0-5.97-2.99-5.97-6.18,0-7.36,8.06-20,8.06-25.28,0-1.94-1.04-3.47-2.92-3.47-5.56,0-13.54,12.78-17.92,27.08l-1.67,7.15-7.01.69c4.1-15,9.38-28.12,9.38-32.85,0-1.25-.56-2.01-1.74-2.01-3.26,0-6.74,5.35-9.31,12.08l-.69-.28c3.12-7.85,6.46-12.92,11.6-12.92,3.61,0,5.83,2.92,5.83,5.9,0,4.51-3.89,11.32-6.25,18.75h.21c4.86-13.96,12.22-24.65,18.33-24.65,4.31,0,7.01,5.21,7.01,8.89,0,5.97-7.29,18.68-7.29,23.89,0,1.25.42,2.08,1.6,2.08,3.12,0,6.67-5.49,9.24-12.15l.62.28Z"/>
      <path class="cls-4" d="M258.53,108.12c.42-8.96,8.96-21.25,20.35-21.25,5.69,0,8.4,3.54,8.4,7.5,0,3.54-2.15,7.01-5.49,7.01-1.32,0-2.71-.9-3.12-2.64,2.85-1.81,5-5.07,5-7.64,0-2.36-2.01-3.4-4.58-3.4-3.47,0-5.83,1.67-8.06,4.86-3.47,5-6.94,18.54-6.94,23.19,0,3.96,1.46,6.18,5,6.18,5.97,0,10.83-5,14.72-12.92l.76.42c-4.72,9.31-9.65,13.4-16.18,13.4s-10.42-5-9.86-14.72Z"/>
      <path class="cls-4" d="M314.36,109.02l.76.42c-4.72,9.31-9.72,13.4-15.56,13.4-6.18,0-10.35-5-9.86-14.72.42-8.96,8.06-21.25,19.44-21.25,4.03,0,8.26,2.15,8.26,7.22,0,6.53-7.57,11.81-20.69,12.36-.97,3.54-1.6,6.87-1.67,8.82-.21,4.24,1.6,6.67,5.42,6.67,4.93,0,9.93-4.58,13.89-12.92ZM296.86,105.69c8.82-.56,15.62-6.39,15.62-14.24,0-1.81-.62-3.75-3.47-3.75-2.43,0-4.65,1.67-6.87,4.86-2.01,2.85-3.89,8.19-5.28,13.12Z"/>
      <path class="cls-4" d="M337.28,120.06c1.74-1.32,3.06-3.4,3.06-5.56,0-3.96-4.03-5.62-9.1-7.57-5-1.94-7.78-3.54-7.78-8.19,0-3.33,2.15-7.22,5.49-9.37,2.71-1.81,5.76-2.5,8.61-2.5,6.53,0,10.14,3.26,10.14,7.08,0,3.06-2.01,6.04-4.72,6.04-1.11,0-2.43-.69-2.78-2.15,2.36-1.39,4.44-4.31,4.44-6.39,0-2.5-3.19-3.82-7.29-3.82-2.57,0-4.93.69-6.88,1.94-2.01,1.25-3.54,3.4-3.54,5.56,0,3.06,3.4,4.44,7.85,6.11,5.42,2.01,10.21,4.03,10.21,9.37,0,4.1-2.5,7.78-6.87,10.21-2.01,1.11-4.93,2.01-8.61,2.01-6.81,0-11.04-3.47-11.04-7.78,0-3.33,2.15-6.53,5.21-6.53,1.18,0,2.57.76,2.99,2.36-2.64,1.46-4.93,4.51-4.93,6.81,0,2.71,3.33,4.38,8.06,4.38,3.06,0,5.62-.69,7.5-2.01Z"/>
      <path class="cls-4" d="M368.32,120.06c1.74-1.32,3.06-3.4,3.06-5.56,0-3.96-4.03-5.62-9.1-7.57-5-1.94-7.78-3.54-7.78-8.19,0-3.33,2.15-7.22,5.49-9.37,2.71-1.81,5.76-2.5,8.61-2.5,6.53,0,10.14,3.26,10.14,7.08,0,3.06-2.01,6.04-4.72,6.04-1.11,0-2.43-.69-2.78-2.15,2.36-1.39,4.44-4.31,4.44-6.39,0-2.5-3.19-3.82-7.29-3.82-2.57,0-4.93.69-6.87,1.94-2.01,1.25-3.54,3.4-3.54,5.56,0,3.06,3.4,4.44,7.85,6.11,5.42,2.01,10.21,4.03,10.21,9.37,0,4.1-2.5,7.78-6.87,10.21-2.01,1.11-4.93,2.01-8.61,2.01-6.81,0-11.04-3.47-11.04-7.78,0-3.33,2.15-6.53,5.21-6.53,1.18,0,2.57.76,2.99,2.36-2.64,1.46-4.93,4.51-4.93,6.81,0,2.71,3.33,4.38,8.06,4.38,3.06,0,5.62-.69,7.5-2.01Z"/>
    </g>
    <g class="cls-8">
      <path class="cls-11" d="M213.79,90.78c-.19,0-.38-.03-.56-.1-.55-.21-.93-.71-.99-1.29-.05-.52-.44-3.18-2.81-4.67-1.18-.74-2.4-.9-3.22-.9-.31,0-.56.02-.72.04-.06,0-.12.01-.18.01-.66,0-1.26-.42-1.47-1.06-.7-2.11-1.26-4.28-1.66-6.45-.54-2.94-.79-5.95-.75-8.95,0-.67.44-1.25,1.07-1.46.16-.05.32-.08.49-.08.48,0,.94.22,1.24.62l4.47,5.9,4.86-9.54c.06-.12.13-.23.22-.33.14-.16.31-.29.49-.38.21-.1.44-.16.68-.16h0c.13,0,.27.02.4.05.7.17,1.2.8,1.19,1.54l-.2,10.72,6.7-3.1c.21-.1.43-.14.65-.14.35,0,.7.12.99.35.46.38.66.99.52,1.57-.82,3.39-2.15,6.63-3.95,9.62-1.75,2.9-3.9,5.53-6.42,7.8-.29.26-.66.4-1.04.4"/>
      <path class="cls-4" d="M214.95,60.42h-.02c-.48,0-.95.12-1.36.32-.36.18-.69.43-.97.74-.18.21-.33.44-.45.69l-3.72,7.3-2.97-3.92c-.6-.79-1.52-1.23-2.48-1.23-.32,0-.65.05-.97.16-1.26.42-2.12,1.59-2.14,2.92-.04,3.1.23,6.21.78,9.25.41,2.25.99,4.49,1.71,6.66.43,1.28,1.62,2.12,2.95,2.12.12,0,.24,0,.36-.02.18-.02.36-.03.54-.03.61,0,1.52.12,2.39.66,1.8,1.13,2.07,3.28,2.09,3.52.12,1.17.88,2.16,1.98,2.58.36.14.74.21,1.11.21.76,0,1.5-.28,2.09-.8,2.63-2.38,4.88-5.12,6.71-8.15,1.88-3.13,3.27-6.51,4.12-10.06.28-1.16-.13-2.38-1.05-3.13-.57-.47-1.27-.71-1.97-.71-.44,0-.89.09-1.31.29l-4.45,2.06.15-8.23c.03-1.46-.96-2.71-2.33-3.07-.27-.07-.54-.11-.81-.11M214.95,63.53l-.31.98.26-.8.05-.19-.02.09.03-.09-.05.19-.35,2.03.41-2.21-.24,13.2,8.96-4.14c-.57,2.35-1.64,5.65-3.77,9.19-2.06,3.42-4.37,5.86-6.13,7.45-.05-.45-.46-3.9-3.53-5.83-1.51-.95-3.05-1.14-4.05-1.14-.39,0-.7.03-.9.05-.6-1.8-1.18-3.89-1.6-6.23-.6-3.27-.76-6.21-.73-8.65l5.97,7.88,6-11.77Z"/>
    </g>
  </g>
</svg>