<?xml version="1.0" encoding="UTF-8"?>
<svg id="Layer_2" data-name="Layer 2" xmlns="http://www.w3.org/2000/svg" viewBox="0 0 475.11 147.07">
  <defs>
    <style>
      .cls-1 {
        fill: #ee2c75;
      }
    </style>
  </defs>
  <g id="Layer_1-2" data-name="Layer 1">
    <g>
      <path class="cls-1" d="M0,7.88h3.94v11.82h15.76V7.88h3.94v25.62h-3.94v-9.85H3.94v9.85H0V7.88ZM3.94,3.94h3.94v3.94h-3.94v-3.94ZM15.76,0v3.94h-7.88V0h7.88ZM19.71,3.94v3.94h-3.94v-3.94h3.94Z"/>
      <path class="cls-1" d="M31.88,0h21.68v3.94h-17.74v9.85h17.74v3.94h-17.74v11.82h17.74v3.94h-21.68V0ZM53.55,3.94h3.94v9.85h-3.94V3.94ZM53.55,17.74h3.94v11.82h-3.94v-11.82Z"/>
      <path class="cls-1" d="M64.39,7.88h3.94v17.74h-3.94V7.88ZM68.33,3.94h3.94v3.94h-3.94v-3.94ZM68.33,25.62h3.94v3.94h-3.94v-3.94ZM72.27,0h13.79v3.94h-13.79V0ZM72.27,29.56h13.79v3.94h-13.79v-3.94ZM86.07,3.94h3.94v3.94h-3.94v-3.94ZM86.07,25.62h3.94v3.94h-3.94v-3.94ZM90.01,7.88h3.94v3.94h-3.94v-3.94ZM90.01,21.68h3.94v3.94h-3.94v-3.94Z"/>
      <path class="cls-1" d="M100.94,0h21.68v3.94h-17.74v25.62h17.74v3.94h-21.68V0ZM126.56,3.94v3.94h-3.94v-3.94h3.94ZM126.56,29.56h-3.94v-3.94h3.94v3.94ZM130.5,7.88v17.74h-3.94V7.88h3.94Z"/>
      <path class="cls-1" d="M138.24,0h23.65v3.94h-19.71v9.85h17.74v3.94h-17.74v11.82h19.71v3.94h-23.65V0Z"/>
      <path class="cls-1" d="M169.32,0h23.65v3.94h-19.71v11.82h17.74v3.94h-17.74v13.79h-3.94V0Z"/>
      <path class="cls-1" d="M197.9,7.88h3.94v17.74h-3.94V7.88ZM201.84,3.94h3.94v3.94h-3.94v-3.94ZM205.78,25.62v3.94h-3.94v-3.94h3.94ZM205.78,0h13.79v3.94h-13.79V0ZM219.57,29.56v3.94h-13.79v-3.94h13.79ZM219.57,25.62h3.94v-3.94h-7.88v-3.94h11.82v15.77h-3.94v-3.94h-3.94v-3.94ZM223.52,3.94v3.94h-3.94v-3.94h3.94ZM227.46,7.88v3.94h-3.94v-3.94h3.94Z"/>
      <path class="cls-1" d="M235.68,0h3.94v13.79h17.74V0h3.94v33.5h-3.94v-15.77h-17.74v15.77h-3.94V0Z"/>
      <path class="cls-1" d="M269.87,0h3.94v33.5h-3.94V0Z"/>
      <path class="cls-1" d="M279.58,29.56h9.85v3.94h-9.85v-3.94ZM293.37,0v29.56h-3.94V0h3.94Z"/>
      <path class="cls-1" d="M301.6,0h3.94v13.79h9.85v3.94h-9.85v15.77h-3.94V0ZM319.34,9.85v3.94h-3.94v-3.94h3.94ZM319.34,17.74v5.91h-3.94v-5.91h3.94ZM323.28,9.85h-3.94V3.94h3.94v5.91ZM323.28,23.65v5.91h-3.94v-5.91h3.94ZM327.22,0v3.94h-3.94V0h3.94ZM323.28,29.56h3.94v3.94h-3.94v-3.94Z"/>
      <path class="cls-1" d="M334.81,0h3.94v29.56h19.71v3.94h-23.65V0Z"/>
      <path class="cls-1" d="M364.22,0h7.88v3.94h-3.94v29.56h-3.94V0ZM376.04,3.94v11.82h-3.94V3.94h3.94ZM379.98,15.76v9.85h-3.94v-9.85h3.94ZM383.92,25.62v5.91h-3.94v-5.91h3.94ZM387.86,15.76v9.85h-3.94v-9.85h3.94ZM391.81,3.94v11.82h-3.94V3.94h3.94ZM395.75,3.94h-3.94V0h7.88v33.5h-3.94V3.94Z"/>
      <path class="cls-1" d="M408.26,0h7.88v3.94h-3.94v29.56h-3.94V0ZM420.08,3.94v9.85h-3.94V3.94h3.94ZM424.02,13.79v5.91h-3.94v-5.91h3.94ZM424.02,19.71h3.94v9.85h-3.94v-9.85ZM435.85,0v33.5h-7.88v-3.94h3.94V0h3.94Z"/>
      <path class="cls-1" d="M447.52,25.62h-3.94V7.88h3.94v17.74ZM451.47,7.88h-3.94v-3.94h3.94v3.94ZM447.52,25.62h3.94v3.94h-3.94v-3.94ZM451.47,0h15.76v3.94h-15.76V0ZM451.47,29.56h15.76v3.94h-15.76v-3.94ZM471.17,3.94v3.94h-3.94v-3.94h3.94ZM467.23,25.62h3.94v3.94h-3.94v-3.94ZM475.11,7.88v17.74h-3.94V7.88h3.94Z"/>
    </g>
    <g>
      <path class="cls-1" d="M53.85,59.12h19.71v3.94h-15.76v13.79h15.76v3.94h-15.76v11.82h-3.94v-33.5ZM77.49,63.06v13.79h-3.94v-13.79h3.94Z"/>
      <path class="cls-1" d="M87.54,84.74h-3.94v-17.74h3.94v17.74ZM91.49,67h-3.94v-3.94h3.94v3.94ZM87.54,84.74h3.94v3.94h-3.94v-3.94ZM91.49,59.12h15.76v3.94h-15.76v-3.94ZM91.49,88.68h11.82v-3.94h7.88v3.94h-3.94v3.94h-15.76v-3.94ZM103.31,80.8v3.94h-3.94v-3.94h3.94ZM111.19,63.06v3.94h-3.94v-3.94h3.94ZM113.16,92.62v3.94h-5.91v-3.94h5.91ZM115.13,67v17.74h-3.94v-17.74h3.94Z"/>
      <path class="cls-1" d="M122.87,59.12h19.71v3.94h-15.76v11.82h15.76v3.94h-3.94v3.94h-3.94v-3.94h-7.88v13.79h-3.94v-33.5ZM138.63,82.77h3.94v5.91h-3.94v-5.91ZM146.51,63.06v11.82h-3.94v-11.82h3.94ZM142.57,88.68h3.94v3.94h-3.94v-3.94Z"/>
      <path class="cls-1" d="M157.65,70.94h-3.94v-7.88h3.94v7.88ZM153.71,82.77h3.94v5.91h-3.94v-5.91ZM157.65,59.12h15.76v3.94h-15.76v-3.94ZM157.65,70.94h7.88v3.94h-7.88v-3.94ZM173.41,92.62h-15.76v-3.94h15.76v3.94ZM165.53,74.88h7.88v3.94h-7.88v-3.94ZM173.41,63.06h3.94v5.91h-3.94v-5.91ZM177.35,78.82v9.85h-3.94v-9.85h3.94Z"/>
      <path class="cls-1" d="M193.17,63.06h-11.82v-3.94h27.59v3.94h-11.82v29.56h-3.94v-29.56Z"/>
      <path class="cls-1" d="M217.8,59.12v25.62h-3.94v-25.62h3.94ZM221.74,84.74v3.94h-3.94v-3.94h3.94ZM233.57,88.68v3.94h-11.82v-3.94h11.82ZM237.51,88.68h-3.94v-3.94h3.94v3.94ZM241.45,59.12v25.62h-3.94v-25.62h3.94Z"/>
      <path class="cls-1" d="M246.87,59.12h3.94v7.88h-3.94v-7.88ZM250.81,67h3.94v9.85h-3.94v-9.85ZM254.75,76.85h3.94v9.85h-3.94v-9.85ZM258.69,86.71h3.94v5.91h-3.94v-5.91ZM262.63,76.85h3.94v9.85h-3.94v-9.85ZM266.57,67h3.94v9.85h-3.94v-9.85ZM270.51,59.12h3.94v7.88h-3.94v-7.88Z"/>
      <path class="cls-1" d="M278.35,59.12h3.94v7.88h-3.94v-7.88ZM282.29,67h3.94v9.85h-3.94v-9.85ZM286.23,76.85h3.94v9.85h-3.94v-9.85ZM290.17,86.71h3.94v5.91h-3.94v-5.91ZM294.11,76.85h3.94v9.85h-3.94v-9.85ZM298.05,67h3.94v9.85h-3.94v-9.85ZM301.99,59.12h3.94v7.88h-3.94v-7.88ZM309.88,67v9.85h-3.94v-9.85h3.94ZM313.82,76.85v9.85h-3.94v-9.85h3.94ZM317.76,86.71v5.91h-3.94v-5.91h3.94ZM317.76,76.85h3.94v9.85h-3.94v-9.85ZM325.64,67v9.85h-3.94v-9.85h3.94ZM325.64,59.12h3.94v7.88h-3.94v-7.88Z"/>
      <path class="cls-1" d="M338.3,59.12v5.91h-3.94v-5.91h3.94ZM338.3,92.62h-3.94v-5.91h3.94v5.91ZM342.25,65.03v3.94h-3.94v-3.94h3.94ZM342.25,86.71h-3.94v-3.94h3.94v3.94ZM346.19,68.97v3.94h-3.94v-3.94h3.94ZM346.19,82.77h-3.94v-3.94h3.94v3.94ZM350.13,72.91v5.91h-3.94v-5.91h3.94ZM350.13,68.97h3.94v3.94h-3.94v-3.94ZM350.13,78.82h3.94v3.94h-3.94v-3.94ZM358.01,65.03v3.94h-3.94v-3.94h3.94ZM354.07,82.77h3.94v3.94h-3.94v-3.94ZM361.95,59.12v5.91h-3.94v-5.91h3.94ZM358.01,86.71h3.94v5.91h-3.94v-5.91Z"/>
      <path class="cls-1" d="M366.29,59.12h3.94v5.91h-3.94v-5.91ZM370.23,65.03h3.94v5.91h-3.94v-5.91ZM378.11,70.94v5.91h-3.94v-5.91h3.94ZM378.11,76.85h3.94v15.77h-3.94v-15.77ZM385.99,70.94v5.91h-3.94v-5.91h3.94ZM385.99,65.03h3.94v5.91h-3.94v-5.91ZM389.93,59.12h3.94v5.91h-3.94v-5.91Z"/>
      <path class="cls-1" d="M398.16,59.12h23.65v7.88h-3.94v-3.94h-19.71v-3.94ZM398.16,82.77h3.94v5.91h19.71v3.94h-23.65v-9.85ZM406.04,82.77h-3.94v-3.94h3.94v3.94ZM409.98,74.88v3.94h-3.94v-3.94h3.94ZM413.92,74.88h-3.94v-3.94h3.94v3.94ZM413.92,67h3.94v3.94h-3.94v-3.94Z"/>
    </g>
    <g>
      <path class="cls-1" d="M12.37,129.01h-2.78v-2.78h2.78v2.78ZM9.59,131.79h2.78v5.56h-2.78v-5.56ZM12.37,123.45h8.34v2.78h-8.34v-2.78ZM20.71,137.35h-2.78v-2.78h2.78v-2.78h-8.34v-2.78h8.34v-2.78h2.78v13.9h-2.78v-2.78ZM12.37,137.35h5.56v2.78h-5.56v-2.78Z"/>
      <path class="cls-1" d="M31.24,116.5v9.73h2.78v2.78h-2.78v5.56h2.78v2.78h-2.78v2.78h-2.78v-23.62h2.78ZM40.96,123.45v2.78h-6.95v-2.78h6.95ZM40.96,140.13h-6.95v-2.78h6.95v2.78ZM40.96,126.23h2.78v11.12h-2.78v-11.12Z"/>
      <path class="cls-1" d="M50.76,126.23v11.12h-2.78v-11.12h2.78ZM59.1,123.45v2.78h-8.34v-2.78h8.34ZM59.1,140.13h-8.34v-2.78h8.34v2.78ZM61.88,126.23v2.78h-2.78v-2.78h2.78ZM61.88,134.57v2.78h-2.78v-2.78h2.78Z"/>
      <path class="cls-1" d="M65.38,126.23h2.78v11.12h-2.78v-11.12ZM68.16,123.45h6.95v2.78h-6.95v-2.78ZM68.16,137.35h6.95v2.78h-6.95v-2.78ZM80.67,116.5v23.62h-2.78v-2.78h-2.78v-2.78h2.78v-5.56h-2.78v-2.78h2.78v-9.73h2.78Z"/>
      <path class="cls-1" d="M88.17,126.23v4.17h9.73v-4.17h2.78v6.95h-12.51v4.17h-2.78v-11.12h2.78ZM88.17,123.45h9.73v2.78h-9.73v-2.78ZM97.9,137.35v2.78h-9.73v-2.78h9.73ZM97.9,134.57h2.78v2.78h-2.78v-2.78Z"/>
      <path class="cls-1" d="M103.67,126.23v-2.78h2.78v-4.17h2.78v4.17h5.56v2.78h-5.56v13.9h-2.78v-13.9h-2.78ZM109.22,116.5h5.56v2.78h-5.56v-2.78Z"/>
      <path class="cls-1" d="M117.46,126.23h2.78v11.12h-2.78v-11.12ZM117.46,140.13h2.78v4.17h-2.78v-4.17ZM120.23,123.45h6.95v2.78h-6.95v-2.78ZM120.23,137.35h6.95v2.78h-6.95v-2.78ZM120.23,144.29h9.73v2.78h-9.73v-2.78ZM132.74,123.45v20.84h-2.78v-6.95h-2.78v-2.78h2.78v-5.56h-2.78v-2.78h2.78v-2.78h2.78Z"/>
      <path class="cls-1" d="M137.6,116.5h2.78v9.73h2.78v2.78h-2.78v11.12h-2.78v-23.62ZM148.72,123.45v2.78h-5.56v-2.78h5.56ZM151.5,126.23v13.9h-2.78v-13.9h2.78Z"/>
      <path class="cls-1" d="M156.47,117.89h2.78v2.78h-2.78v-2.78ZM156.47,123.45h2.78v16.67h-2.78v-16.67Z"/>
      <path class="cls-1" d="M165.19,144.29v2.78h-4.17v-2.78h4.17ZM165.19,117.89h2.78v2.78h-2.78v-2.78ZM167.96,123.45v20.84h-2.78v-20.84h2.78Z"/>
      <path class="cls-1" d="M173.18,116.5h2.78v13.9h5.56v2.78h-5.56v6.95h-2.78v-23.62ZM184.29,130.4h-2.78v-4.17h2.78v4.17ZM184.29,133.18v4.17h-2.78v-4.17h2.78ZM187.07,123.45v2.78h-2.78v-2.78h2.78ZM187.07,137.35v2.78h-2.78v-2.78h2.78Z"/>
      <path class="cls-1" d="M191.66,116.5h2.78v23.62h-2.78v-23.62Z"/>
      <path class="cls-1" d="M199.65,123.45h2.78v2.78h2.78v2.78h-2.78v11.12h-2.78v-16.67ZM205.2,123.45h5.56v2.78h-5.56v-2.78ZM216.32,126.23v2.78h-2.78v11.12h-2.78v-13.9h5.56ZM216.32,123.45h5.56v2.78h-5.56v-2.78ZM224.66,126.23v13.9h-2.78v-13.9h2.78Z"/>
      <path class="cls-1" d="M229.62,123.45h2.78v2.78h2.78v2.78h-2.78v11.12h-2.78v-16.67ZM235.18,123.45h5.56v2.78h-5.56v-2.78ZM243.52,126.23v13.9h-2.78v-13.9h2.78Z"/>
      <path class="cls-1" d="M250.78,126.23v11.12h-2.78v-11.12h2.78ZM250.78,123.45h9.73v2.78h-9.73v-2.78ZM250.78,137.35h9.73v2.78h-9.73v-2.78ZM263.29,126.23v11.12h-2.78v-11.12h2.78Z"/>
      <path class="cls-1" d="M270.79,123.45v2.78h2.78v2.78h-2.78v5.56h2.78v2.78h-2.78v9.73h-2.78v-23.62h2.78ZM273.57,123.45h6.95v2.78h-6.95v-2.78ZM280.52,140.13h-6.95v-2.78h6.95v2.78ZM283.3,126.23v11.12h-2.78v-11.12h2.78Z"/>
      <path class="cls-1" d="M290.31,137.35h-2.78v-11.12h2.78v11.12ZM290.31,123.45h6.95v2.78h-6.95v-2.78ZM297.26,140.13h-6.95v-2.78h6.95v2.78ZM300.04,137.35h-2.78v-2.78h2.78v-5.56h-2.78v-2.78h2.78v-2.78h2.78v23.62h-2.78v-9.73Z"/>
      <path class="cls-1" d="M308.03,123.45h2.78v2.78h2.78v2.78h-2.78v11.12h-2.78v-16.67ZM313.59,123.45h4.17v2.78h-4.17v-2.78Z"/>
      <path class="cls-1" d="M322.9,129.01h-2.78v-2.78h2.78v2.78ZM322.9,134.57v2.78h-2.78v-2.78h2.78ZM322.9,123.45h8.34v2.78h-8.34v-2.78ZM327.07,129.01v2.78h-4.17v-2.78h4.17ZM322.9,137.35h8.34v2.78h-8.34v-2.78ZM331.24,131.79v2.78h-4.17v-2.78h4.17ZM334.01,126.23v2.78h-2.78v-2.78h2.78ZM334.01,134.57v2.78h-2.78v-2.78h2.78Z"/>
      <path class="cls-1" d="M339.33,123.45v-4.17h2.78v4.17h5.56v2.78h-5.56v11.12h-2.78v-11.12h-2.78v-2.78h2.78ZM347.67,137.35v2.78h-5.56v-2.78h5.56Z"/>
      <path class="cls-1" d="M351.42,123.45h2.78v13.9h-2.78v-13.9ZM359.75,140.13h-5.56v-2.78h5.56v2.78ZM362.53,137.35h-2.78v-2.78h2.78v-11.12h2.78v16.67h-2.78v-2.78Z"/>
      <path class="cls-1" d="M369.58,123.45h2.78v5.56h-2.78v-5.56ZM372.36,129.01h2.78v6.95h-2.78v-6.95ZM377.92,135.96v4.17h-2.78v-4.17h2.78ZM380.7,135.96h-2.78v-6.95h2.78v6.95ZM383.48,123.45v5.56h-2.78v-5.56h2.78Z"/>
      <path class="cls-1" d="M389.59,123.45v5.56h-2.78v-5.56h2.78ZM392.37,129.01v6.95h-2.78v-6.95h2.78ZM395.15,135.96v4.17h-2.78v-4.17h2.78ZM395.15,129.01h2.78v6.95h-2.78v-6.95ZM400.71,123.45v5.56h-2.78v-5.56h2.78ZM403.49,129.01v6.95h-2.78v-6.95h2.78ZM406.27,135.96v4.17h-2.78v-4.17h2.78ZM406.27,129.01h2.78v6.95h-2.78v-6.95ZM409.05,123.45h2.78v5.56h-2.78v-5.56Z"/>
      <path class="cls-1" d="M418.32,123.45v4.17h-2.78v-4.17h2.78ZM415.54,135.96h2.78v4.17h-2.78v-4.17ZM421.1,127.62v2.78h-2.78v-2.78h2.78ZM421.1,135.96h-2.78v-2.78h2.78v2.78ZM421.1,130.4h2.78v2.78h-2.78v-2.78ZM426.66,130.4h-2.78v-2.78h2.78v2.78ZM426.66,133.18v2.78h-2.78v-2.78h2.78ZM429.44,123.45v4.17h-2.78v-4.17h2.78ZM426.66,135.96h2.78v4.17h-2.78v-4.17Z"/>
      <path class="cls-1" d="M436.07,123.45v8.34h-2.78v-8.34h2.78ZM433.29,144.29h5.56v2.78h-5.56v-2.78ZM438.85,131.79v6.95h-2.78v-6.95h2.78ZM441.63,138.74v5.56h-2.78v-5.56h2.78ZM444.41,131.79v6.95h-2.78v-6.95h2.78ZM447.19,123.45v8.34h-2.78v-8.34h2.78Z"/>
      <path class="cls-1" d="M464.94,123.45v5.56h-2.78v-2.78h-11.12v-2.78h13.9ZM451.05,134.57h2.78v2.78h11.12v2.78h-13.9v-5.56ZM453.83,131.79h4.17v2.78h-4.17v-2.78ZM462.16,131.79h-4.17v-2.78h4.17v2.78Z"/>
    </g>
  </g>
</svg>